<svg width="201" height="200" viewBox="0 0 201 200" fill="none" xmlns="http://www.w3.org/2000/svg">
<path d="M41.5709 111.712C41.392 111.712 41.213 111.669 41.047 111.583L37.994 109.977C37.9164 109.936 37.8237 109.936 37.7461 109.977L34.6931 111.583C34.3093 111.784 33.8544 111.749 33.5051 111.495C33.1558 111.24 32.9833 110.818 33.0545 110.391L33.6388 106.993C33.6539 106.907 33.6237 106.818 33.559 106.756L31.0946 104.352C30.7842 104.05 30.6742 103.608 30.8079 103.196C30.9416 102.784 31.2908 102.489 31.7199 102.424L35.1329 101.926C35.2213 101.915 35.2946 101.859 35.3334 101.782L36.8599 98.6921C37.0497 98.3061 37.4378 98.0625 37.869 98.0625H37.8711C38.3045 98.0625 38.6926 98.304 38.8845 98.6921L40.4088 101.784C40.4476 101.861 40.5231 101.918 40.6072 101.928L44.0223 102.426C44.4514 102.489 44.8007 102.784 44.9344 103.196C45.068 103.608 44.9581 104.05 44.6498 104.352L42.1789 106.758C42.1164 106.818 42.0884 106.909 42.1035 106.995L42.6877 110.391C42.761 110.816 42.5886 111.24 42.2415 111.495C42.0431 111.641 41.8081 111.715 41.5731 111.715L41.5709 111.712ZM37.8711 109.084C38.0522 109.084 38.2333 109.127 38.3994 109.216L41.4459 110.82C41.5795 110.889 41.6895 110.826 41.7305 110.796C41.7714 110.766 41.862 110.682 41.8361 110.535L41.2518 107.137C41.1893 106.771 41.31 106.398 41.5752 106.137L44.0461 103.731C44.1517 103.627 44.128 103.504 44.1129 103.457C44.0978 103.41 44.0461 103.295 43.8951 103.274L40.4864 102.776C40.1264 102.728 39.8051 102.497 39.6369 102.163L38.1104 99.0694C38.0436 98.9357 37.9207 98.9206 37.869 98.9206C37.8194 98.9206 37.6965 98.9357 37.6318 99.0694L36.1053 102.159C35.9393 102.495 35.6202 102.726 35.2515 102.776L31.8449 103.272C31.6962 103.293 31.6444 103.407 31.6293 103.455C31.6142 103.502 31.5905 103.623 31.6983 103.726L34.1649 106.133C34.4322 106.396 34.553 106.769 34.4904 107.133L33.9061 110.531C33.8803 110.678 33.973 110.764 34.0139 110.792C34.0549 110.82 34.1627 110.882 34.2964 110.813L37.3472 109.209C37.5111 109.123 37.6922 109.078 37.8733 109.078L37.8711 109.084Z" fill="#DCE6F4"/>
<path d="M186.893 50.0244C185.843 53.1615 184.265 56.0549 182.258 58.6012C182.126 58.7694 181.993 58.9376 181.855 59.1014C181.59 59.4248 181.318 59.7439 181.035 60.0544C180.477 60.6797 179.886 61.2812 179.272 61.8547C178.112 62.9327 176.866 63.9159 175.54 64.7913C175.509 64.8128 175.479 64.8301 175.451 64.8495C173.116 66.3867 170.555 67.5855 167.814 68.3811C165.87 68.946 163.839 69.3125 161.749 69.4548C161.508 69.4677 161.271 69.4871 161.032 69.4936C160.626 69.513 160.212 69.5216 159.798 69.5216C157.845 69.5216 155.945 69.3276 154.102 68.9503C147.591 67.6329 141.881 64.0992 137.789 59.1704C136.877 58.0687 136.047 56.8979 135.305 55.6668L134.851 56.111L132.406 58.4956C132.179 58.7176 132.074 59.0367 132.125 59.3494L132.932 64.0345C133.065 64.8236 132.237 65.423 131.532 65.0543L127.324 62.84C127.043 62.6913 126.705 62.6913 126.427 62.84L122.22 65.0543C121.511 65.423 120.681 64.8236 120.817 64.0345L121.623 59.3494C121.675 59.0367 121.574 58.7176 121.347 58.4956L118.9 56.111L117.941 55.1774C117.371 54.6211 117.686 53.6509 118.477 53.5345L123.18 52.8467C123.495 52.8057 123.764 52.6052 123.909 52.3206L126.011 48.0603C126.366 47.3423 127.386 47.3423 127.738 48.0603L129.844 52.3206C129.984 52.6052 130.258 52.8057 130.569 52.8467L134.059 53.3577C132.246 49.6062 131.231 45.3997 131.231 40.9539C131.231 38.7095 131.489 36.5254 131.981 34.4297H35.8057C23.0095 34.4297 12.6367 44.8025 12.6367 57.5965C12.6367 63.9935 15.2305 69.7868 19.4218 73.9804C23.6154 78.1717 29.4087 80.7655 35.8057 80.7655H133.9L147.985 95.0666C149.617 96.7246 152.442 95.7695 152.733 93.4625L154.339 80.7655H164.992C177.788 80.7655 188.161 70.3927 188.161 57.5965C188.161 54.9445 187.715 52.3961 186.893 50.0244ZM56.3766 55.1774L55.4193 56.111L52.9744 58.4956C52.748 58.7176 52.6423 59.0367 52.6962 59.3494L53.5004 64.0345C53.6341 64.8236 52.8083 65.423 52.1012 65.0543L47.8925 62.84C47.6122 62.6913 47.2738 62.6913 46.9956 62.84L42.7892 65.0543C42.0798 65.423 41.2519 64.8236 41.3877 64.0345L42.1919 59.3494C42.2458 59.0367 42.1423 58.7176 41.916 58.4956L39.4688 56.111L38.5094 55.1774C37.9402 54.6211 38.255 53.6509 39.0462 53.5345L43.7486 52.8467C44.0655 52.8057 44.3329 52.6052 44.4774 52.3206L46.5795 48.0603C46.9353 47.3423 47.9572 47.3423 48.3087 48.0603L50.413 52.3206C50.5531 52.6052 50.8269 52.8057 51.1374 52.8467L55.8462 53.5345C56.6353 53.6509 56.9523 54.6211 56.3766 55.1774ZM82.8551 55.1774L81.8957 56.111L79.4529 58.4956C79.2243 58.7176 79.1187 59.0367 79.1726 59.3494L79.9768 64.0345C80.1105 64.8236 79.2847 65.423 78.5797 65.0543L74.3689 62.84C74.0908 62.6913 73.7501 62.6913 73.4741 62.84L69.2655 65.0543C68.5562 65.423 67.7282 64.8236 67.8641 64.0345L68.6683 59.3494C68.7222 59.0367 68.6209 58.7176 68.3945 58.4956L65.9473 56.111L64.9879 55.1774C64.4165 54.6211 64.7335 53.6509 65.5226 53.5345L70.2249 52.8467C70.5419 52.8057 70.8114 52.6052 70.9537 52.3206L73.0558 48.0603C73.4116 47.3423 74.4336 47.3423 74.785 48.0603L76.8915 52.3206C77.0295 52.6052 77.3033 52.8057 77.6159 52.8467L82.3226 53.5345C83.1117 53.6509 83.4286 54.6211 82.8551 55.1774ZM109.331 55.1774L108.374 56.111L105.929 58.4956C105.703 58.7176 105.597 59.0367 105.649 59.3494L106.453 64.0345C106.587 64.8236 105.761 65.423 105.056 65.0543L100.847 62.84C100.567 62.6913 100.229 62.6913 99.9505 62.84L95.744 65.0543C95.0325 65.423 94.2046 64.8236 94.3404 64.0345L95.1446 59.3494C95.1985 59.0367 95.0972 58.7176 94.8708 58.4956L92.4237 56.111L91.4642 55.1774C90.8929 54.6211 91.2099 53.6509 91.999 53.5345L96.7035 52.8467C97.0183 52.8057 97.2878 52.6052 97.4322 52.3206L99.5322 48.0603C99.888 47.3423 100.91 47.3423 101.261 48.0603L103.368 52.3206C103.508 52.6052 103.78 52.8057 104.092 52.8467L108.799 53.5345C109.59 53.6509 109.905 54.6211 109.331 55.1774Z" fill="#3563AD"/>
<path d="M149.962 96.3337C149.117 96.3337 148.297 95.9995 147.679 95.37L133.72 81.1982H35.8053C29.5031 81.1982 23.5761 78.7446 19.1174 74.2859C14.6608 69.8272 12.2051 63.9002 12.2051 57.598C12.2051 44.5862 22.7913 34 35.8053 34H132.524L132.399 34.5304C131.909 36.6196 131.659 38.7821 131.659 40.9554C131.659 45.2374 132.597 49.3468 134.445 53.1716L134.798 53.9047L130.504 53.2751C130.055 53.2169 129.661 52.9302 129.456 52.5119L127.349 48.2515C127.259 48.0639 127.08 47.954 126.875 47.954C126.668 47.954 126.489 48.0661 126.396 48.2537L124.294 52.514C124.081 52.9345 123.686 53.2191 123.233 53.2773L118.537 53.9651C118.333 53.9953 118.171 54.1311 118.106 54.3294C118.042 54.5256 118.093 54.7283 118.24 54.8728L121.646 58.1909C121.972 58.51 122.123 58.9714 122.047 59.4242L121.241 64.1115C121.207 64.3141 121.284 64.5103 121.452 64.6311C121.623 64.7561 121.834 64.7712 122.022 64.6742L126.226 62.4599C126.629 62.2443 127.116 62.2443 127.526 62.4599L131.732 64.6742C131.914 64.7691 132.125 64.754 132.293 64.6311C132.461 64.5082 132.541 64.312 132.506 64.1072L131.7 59.4242C131.625 58.9714 131.776 58.51 132.103 58.1888L135.393 54.9784L135.674 55.4441C136.402 56.6537 137.226 57.8136 138.121 58.896C142.228 63.842 147.933 67.2636 154.188 68.5292C156.012 68.9022 157.901 69.0919 159.798 69.0919C160.22 69.0919 160.628 69.0833 161.01 69.0639C161.171 69.0596 161.322 69.0488 161.475 69.0402C161.557 69.0359 161.641 69.0294 161.725 69.0251C163.741 68.8871 165.751 68.5314 167.693 67.9686C170.35 67.1968 172.879 66.0282 175.214 64.4909C175.222 64.4845 175.24 64.4737 175.259 64.4607L175.287 64.4413C176.591 63.5789 177.829 62.6065 178.976 61.5393C179.586 60.9701 180.17 60.3729 180.712 59.767C180.966 59.4867 181.229 59.1806 181.52 58.827C181.658 58.6631 181.79 58.4993 181.917 58.3354C183.922 55.7912 185.457 52.9496 186.483 49.888L186.884 48.687L187.298 49.8837C188.154 52.3588 188.59 54.9525 188.59 57.5959C188.59 70.6098 178.004 81.196 164.99 81.196H154.716L153.157 93.5157C153.002 94.749 152.174 95.7602 150.997 96.1591C150.654 96.2755 150.303 96.3315 149.958 96.3315L149.962 96.3337ZM35.8053 34.8624C23.2678 34.8624 13.0675 45.0606 13.0675 57.598C13.0675 63.6695 15.4327 69.3809 19.7254 73.6779C24.0224 77.9727 29.7317 80.3358 35.8053 80.3358H134.08L148.293 94.7663C148.94 95.4238 149.85 95.6416 150.725 95.3441C151.601 95.0487 152.191 94.3243 152.306 93.4101L153.959 80.3358H164.992C177.529 80.3358 187.73 70.1355 187.73 57.598C187.73 55.4765 187.441 53.3894 186.867 51.3756C185.83 54.0729 184.396 56.589 182.598 58.8701C182.464 59.0404 182.326 59.2129 182.186 59.3811C181.891 59.7411 181.619 60.0581 181.356 60.347C180.8 60.9701 180.196 61.5846 179.567 62.1732C178.383 63.2728 177.109 64.2753 175.779 65.155C175.77 65.1615 175.746 65.1766 175.722 65.1916L175.699 65.2067C173.284 66.7979 170.675 68.0031 167.937 68.7987C165.936 69.3809 163.864 69.7474 161.781 69.8875C161.695 69.8918 161.613 69.8962 161.533 69.9026C161.37 69.9134 161.208 69.922 161.046 69.9285C160.66 69.9479 160.238 69.9565 159.802 69.9565C157.844 69.9565 155.9 69.7603 154.02 69.3765C147.575 68.0721 141.693 64.547 137.461 59.4501C136.653 58.4734 135.902 57.4363 135.225 56.3561L132.711 58.8076C132.586 58.9305 132.526 59.1094 132.556 59.2819L133.362 63.9648C133.453 64.4931 133.24 65.017 132.806 65.3318C132.375 65.6466 131.812 65.6875 131.338 65.4417L127.129 63.2275C126.976 63.1456 126.789 63.1456 126.636 63.2275L122.427 65.4439C121.948 65.6919 121.383 65.6487 120.95 65.3318C120.519 65.017 120.308 64.4952 120.398 63.9692L121.204 59.2841C121.232 59.1116 121.176 58.9326 121.051 58.8119L117.647 55.4959C117.265 55.1229 117.132 54.5752 117.296 54.0686C117.462 53.5597 117.893 53.1954 118.421 53.1177L123.123 52.43C123.298 52.4062 123.447 52.2963 123.531 52.1346L125.631 47.8785C125.87 47.3977 126.349 47.1002 126.883 47.1002H126.886C127.42 47.1002 127.897 47.3999 128.132 47.8807L130.238 52.1389C130.316 52.2963 130.467 52.4062 130.633 52.4278L133.339 52.8245C131.659 49.0902 130.808 45.1037 130.808 40.9641C130.808 38.9072 131.023 36.8589 131.45 34.871H35.8053V34.8624Z" fill="#DCE6F4"/>
<path d="M52.5492 65.5988C52.3293 65.5988 52.1072 65.547 51.9024 65.4392L47.6916 63.2249C47.5385 63.143 47.3509 63.143 47.1978 63.2249L42.9892 65.4414C42.5106 65.6893 41.9478 65.6462 41.5145 65.3314C41.0833 65.0166 40.872 64.4949 40.9625 63.9666L41.7667 59.2815C41.7969 59.109 41.7387 58.9322 41.6137 58.8093L38.2093 55.4933C37.8276 55.1203 37.694 54.5727 37.8578 54.066C38.0238 53.5572 38.455 53.1928 38.9833 53.1152L43.6856 52.4274C43.8603 52.4037 44.009 52.2959 44.0931 52.132L46.1931 47.876C46.4324 47.3952 46.9111 47.0977 47.4458 47.0977H47.4501C47.9848 47.0977 48.4613 47.3973 48.6963 47.8781L50.8006 52.1364C50.8782 52.2937 51.0292 52.4037 51.1952 52.4253L55.9105 53.113C56.4409 53.1907 56.8721 53.5572 57.0359 54.066C57.1998 54.5749 57.0618 55.1203 56.678 55.4912L53.2758 58.8093C53.1507 58.9322 53.0925 59.109 53.1205 59.2815L53.9247 63.9666C54.0153 64.4949 53.8018 65.0188 53.3685 65.3314C53.1227 65.5104 52.8359 65.6009 52.547 65.6009L52.5492 65.5988ZM47.4436 62.2978C47.6679 62.2978 47.8921 62.3517 48.0948 62.4595L52.3012 64.6738C52.4823 64.7687 52.6936 64.7536 52.8618 64.6307C53.03 64.5078 53.1098 64.3116 53.0753 64.1068L52.271 59.4217C52.1934 58.9711 52.3422 58.5097 52.6721 58.1862L56.0765 54.8659C56.2253 54.7215 56.2748 54.521 56.2123 54.3248C56.1498 54.1264 55.9881 53.9906 55.7811 53.9604L51.0723 53.2726C50.6238 53.2122 50.2293 52.9276 50.0223 52.5094L47.918 48.249C47.8274 48.0614 47.6485 47.9515 47.4436 47.9515C47.2366 47.9515 47.0577 48.0636 46.965 48.2511L44.8628 52.5115C44.6494 52.9319 44.2527 53.2165 43.8021 53.2748L39.1062 53.9625C38.9013 53.9927 38.7396 54.1286 38.675 54.3269C38.6103 54.5231 38.662 54.7258 38.8086 54.8702L42.2152 58.1884C42.5429 58.5118 42.6938 58.9732 42.6141 59.4238L41.8099 64.1089C41.7754 64.3138 41.853 64.5078 42.0212 64.6307C42.1893 64.7536 42.4028 64.7708 42.5882 64.6738L46.7925 62.4595C46.9952 62.3517 47.2173 62.2978 47.4393 62.2978H47.4436Z" fill="#DCE6F4"/>
<path d="M79.0273 65.5988C78.8074 65.5988 78.5853 65.5449 78.3805 65.4392L74.1697 63.2249C74.0166 63.143 73.829 63.143 73.6803 63.2249L69.4673 65.4414C68.9887 65.6893 68.4259 65.6462 67.9926 65.3314C67.5614 65.0166 67.3501 64.4949 67.4406 63.9666L68.2448 59.2815C68.275 59.1069 68.219 58.9301 68.0939 58.8093L64.6895 55.4933C64.3079 55.1225 64.1721 54.5749 64.3359 54.0682C64.4998 53.5594 64.931 53.1928 65.4614 53.1152L70.1637 52.4274C70.3405 52.4037 70.4893 52.2959 70.5691 52.1342L72.6712 47.876C72.9106 47.3952 73.3892 47.0977 73.9239 47.0977H73.9282C74.4629 47.0977 74.9394 47.3973 75.1744 47.8781L77.2809 52.1364C77.3563 52.2937 77.5073 52.4037 77.6754 52.4253L82.3886 53.113C82.919 53.1907 83.3502 53.5572 83.514 54.066C83.6779 54.5727 83.5421 55.1203 83.1583 55.4912L79.756 58.8093C79.6288 58.9344 79.5706 59.109 79.5986 59.2815L80.4028 63.9666C80.4934 64.4949 80.2799 65.0188 79.8466 65.3336C79.6029 65.5104 79.3162 65.6009 79.0273 65.6009V65.5988ZM73.9239 47.9558C73.7169 47.9558 73.538 48.0679 73.4431 48.2555L71.3409 52.5158C71.1318 52.9363 70.7351 53.2208 70.2801 53.2791L65.5843 53.9668C65.3794 53.997 65.2177 54.1329 65.1531 54.3312C65.0905 54.5274 65.1401 54.7301 65.2867 54.8745L68.6933 58.1927C69.021 58.514 69.1698 58.9754 69.0922 59.4281L68.288 64.1132C68.2535 64.3181 68.3311 64.5121 68.4993 64.635C68.6674 64.7579 68.8809 64.7752 69.0663 64.6781L73.2728 62.4639C73.6695 62.2504 74.1697 62.2504 74.5707 62.4639L78.7793 64.676C78.9604 64.7708 79.1696 64.7557 79.3377 64.6328C79.5059 64.51 79.5857 64.3138 79.5512 64.1089L78.747 59.4238C78.6694 58.9732 78.8203 58.5097 79.1523 58.1884L82.5546 54.8702C82.7033 54.7258 82.7529 54.5253 82.6904 54.3291C82.6257 54.1307 82.4662 53.9949 82.2592 53.9647L77.5525 53.2769C77.0998 53.2165 76.7052 52.9319 76.5025 52.5115L74.3982 48.2533C74.3077 48.0657 74.1287 47.9558 73.9239 47.9558Z" fill="#DCE6F4"/>
<path d="M105.504 65.5988C105.284 65.5988 105.062 65.5449 104.857 65.4392L100.649 63.2249C100.496 63.143 100.306 63.143 100.155 63.2249L95.9462 65.4414C95.4676 65.6893 94.9006 65.6462 94.4672 65.3293C94.036 65.0145 93.8247 64.4927 93.9152 63.9666L94.7195 59.2815C94.7496 59.1069 94.6936 58.9301 94.5685 58.8094L91.1641 55.4933C90.7825 55.1225 90.6467 54.5749 90.8105 54.0682C90.9744 53.5594 91.4078 53.1928 91.936 53.1152L96.6405 52.4274C96.8151 52.4037 96.9639 52.2938 97.048 52.132L99.1458 47.876C99.3851 47.3952 99.8638 47.0977 100.399 47.0977H100.403C100.938 47.0977 101.414 47.3973 101.649 47.8781L103.755 52.1364C103.833 52.2959 103.982 52.4037 104.15 52.4253L108.863 53.113C109.394 53.1907 109.825 53.555 109.991 54.066C110.155 54.5727 110.019 55.1203 109.635 55.4912L106.233 58.8094C106.108 58.9322 106.047 59.1112 106.078 59.2837L106.882 63.9666C106.972 64.4949 106.759 65.0188 106.325 65.3336C106.082 65.5104 105.795 65.6009 105.506 65.6009L105.504 65.5988ZM100.401 47.9558C100.194 47.9558 100.015 48.0679 99.9199 48.2555L97.8199 52.5158C97.6064 52.9363 97.2119 53.2208 96.7591 53.2791L92.061 53.9668C91.8562 53.997 91.6945 54.1329 91.6298 54.3312C91.5673 54.5274 91.6169 54.7301 91.7635 54.8745L95.1701 58.1927C95.4978 58.514 95.6466 58.9754 95.5689 59.4281L94.7647 64.1132C94.7302 64.3181 94.8078 64.5121 94.976 64.635C95.1463 64.7579 95.3576 64.7752 95.5452 64.6781L99.7495 62.466C100.155 62.2504 100.64 62.2504 101.05 62.466L105.256 64.6803C105.437 64.7752 105.646 64.7601 105.815 64.6372C105.983 64.5143 106.062 64.3181 106.028 64.1132L105.224 59.4281C105.148 58.9754 105.299 58.514 105.627 58.1927L109.031 54.8724C109.18 54.7279 109.23 54.5253 109.167 54.3291C109.105 54.1307 108.943 53.9949 108.736 53.9647L104.029 53.2769C103.581 53.2187 103.186 52.9319 102.979 52.5137L100.873 48.2533C100.782 48.0657 100.603 47.9558 100.399 47.9558H100.401Z" fill="#DCE6F4"/>
<path d="M55.8459 53.5345L51.1392 52.8489C50.8287 52.8058 50.5549 52.6074 50.4148 52.3228L48.3083 48.0603C47.9569 47.3445 46.9349 47.3445 46.5791 48.0603L44.477 52.3228C44.3325 52.6074 44.063 52.8058 43.7482 52.8489L39.0459 53.5345C38.2546 53.6509 37.9398 54.6212 38.509 55.1774L39.4685 56.111L41.9156 58.4934C42.142 58.7155 42.2433 59.0368 42.1916 59.3472L41.3874 64.0323C41.2515 64.8215 42.0794 65.4209 42.7888 65.0522L46.9953 62.8379C47.2734 62.6891 47.6119 62.6891 47.8922 62.8379L52.1008 65.0522C52.8058 65.4209 53.6316 64.8215 53.4979 64.0323L52.6937 59.3472C52.6398 59.0368 52.7476 58.7155 52.974 58.4934L55.419 56.111L56.3763 55.1774C56.9498 54.6212 56.635 53.6509 55.8437 53.5345H55.8459Z" fill="#EEEEEE"/>
<path d="M82.3224 53.5345L77.6157 52.8489C77.3053 52.8058 77.0315 52.6074 76.8913 52.3228L74.7848 48.0603C74.4334 47.3445 73.4114 47.3445 73.0557 48.0603L70.9535 52.3228C70.8091 52.6074 70.5396 52.8058 70.2248 52.8489L65.5224 53.5345C64.7312 53.6509 64.4164 54.6212 64.9856 55.1774L65.945 56.111L68.3921 58.4934C68.6185 58.7155 68.7199 59.0368 68.6681 59.3472L67.8639 64.0323C67.7281 64.8215 68.556 65.4209 69.2653 65.0522L73.4718 62.8379C73.7499 62.6891 74.0884 62.6891 74.3687 62.8379L78.5774 65.0522C79.2824 65.4209 80.1082 64.8215 79.9745 64.0323L79.1703 59.3472C79.1164 59.0368 79.2242 58.7155 79.4505 58.4934L81.8955 56.111L82.8528 55.1774C83.4263 54.6212 83.1115 53.6509 82.3203 53.5345H82.3224Z" fill="#EEEEEE"/>
<path d="M108.801 53.5345L104.094 52.8489C103.784 52.8058 103.51 52.6074 103.37 52.3228L101.263 48.0603C100.912 47.3445 99.89 47.3445 99.5342 48.0603L97.4321 52.3228C97.2876 52.6074 97.0181 52.8058 96.7033 52.8489L92.001 53.5345C91.2097 53.6509 90.8949 54.6212 91.4641 55.1774L92.4236 56.111L94.8707 58.4934C95.0971 58.7155 95.1984 59.0368 95.1467 59.3472L94.3424 64.0323C94.2066 64.8215 95.0345 65.4209 95.7439 65.0522L99.9503 62.8379C100.228 62.6891 100.567 62.6891 100.847 62.8379L105.056 65.0522C105.761 65.4209 106.587 64.8215 106.455 64.0323L105.651 59.3472C105.597 59.0368 105.705 58.7155 105.931 58.4934L108.376 56.111L109.333 55.1774C109.907 54.6212 109.592 53.6509 108.801 53.5345Z" fill="#EEEEEE"/>
<path d="M132.406 58.4972C132.179 58.7193 132.074 59.0384 132.125 59.351L132.932 64.0361C133.065 64.8252 132.237 65.4246 131.532 65.0559L127.324 62.8417C127.044 62.6929 126.705 62.6929 126.427 62.8417L122.22 65.0559C121.511 65.4246 120.681 64.8252 120.817 64.0361L121.623 59.351C121.675 59.0384 121.574 58.7193 121.347 58.4972L118.9 56.1126L117.941 55.1791C117.371 54.6228 117.686 53.6526 118.478 53.5361L123.18 52.8484C123.495 52.8074 123.764 52.6069 123.909 52.3223L126.011 48.0619C126.367 47.3439 127.386 47.3439 127.738 48.0619L129.844 52.3223C129.984 52.6069 130.258 52.8074 130.569 52.8484L134.059 53.3593C134.439 54.1506 134.855 54.9203 135.306 55.6685L134.851 56.1126L132.406 58.4972Z" fill="#EEEEEE"/>
<path opacity="0.5" d="M12.6387 105.795C12.6387 115.071 20.1568 122.589 29.4322 122.589H37.1552L38.3195 131.793C38.5307 133.466 40.579 134.158 41.7605 132.957L51.9716 122.591H123.08C132.356 122.591 139.874 115.073 139.874 105.797C139.874 96.5221 132.356 89.0039 123.08 89.0039H29.4322C20.1568 89.0039 12.6387 96.5221 12.6387 105.797V105.795ZM108.553 102.85L111.966 102.352C112.192 102.322 112.391 102.177 112.492 101.97L114.019 98.8808C114.273 98.3612 115.015 98.3612 115.271 98.8808L116.796 101.97C116.899 102.175 117.095 102.32 117.324 102.352L120.732 102.85C121.306 102.934 121.535 103.637 121.121 104.042L120.424 104.719L118.65 106.446C118.486 106.608 118.413 106.839 118.449 107.065L119.034 110.463C119.133 111.034 118.531 111.47 118.016 111.203L114.965 109.599C114.765 109.491 114.519 109.491 114.316 109.599L111.265 111.203C110.754 111.47 110.155 111.034 110.252 110.463L110.836 107.065C110.875 106.839 110.797 106.608 110.634 106.446L108.861 104.719L108.167 104.042C107.751 103.639 107.979 102.934 108.553 102.85ZM89.3597 102.85L92.7728 102.352C92.9992 102.322 93.1975 102.177 93.2988 101.97L94.8253 98.8808C95.0798 98.3612 95.8214 98.3612 96.078 98.8808L97.6023 101.97C97.7058 102.175 97.902 102.32 98.1306 102.352L101.539 102.85C102.113 102.934 102.341 103.637 101.927 104.042L101.231 104.719L99.4566 106.446C99.2927 106.608 99.2194 106.839 99.256 107.065L99.8403 110.463C99.9395 111.034 99.338 111.47 98.8227 111.203L95.7719 109.599C95.5714 109.491 95.3256 109.491 95.1229 109.599L92.0721 111.203C91.5611 111.47 90.9617 111.034 91.0587 110.463L91.643 107.065C91.6818 106.839 91.6042 106.608 91.4403 106.446L89.6681 104.719L88.9738 104.042C88.5577 103.639 88.7862 102.934 89.3597 102.85ZM70.1665 102.85L73.5796 102.352C73.806 102.322 74.0043 102.177 74.1056 101.97L75.6321 98.8808C75.8866 98.3612 76.6282 98.3612 76.8848 98.8808L78.4091 101.97C78.5126 102.175 78.7088 102.32 78.9374 102.352L82.3461 102.85C82.9196 102.934 83.1481 103.637 82.7342 104.042L82.0378 104.719L80.2633 106.446C80.0995 106.608 80.0262 106.839 80.0628 107.065L80.6471 110.463C80.7463 111.034 80.1448 111.47 79.6295 111.203L76.5787 109.599C76.3781 109.491 76.1324 109.491 75.9297 109.599L72.8789 111.203C72.3679 111.47 71.7685 111.034 71.8655 110.463L72.4498 107.065C72.4886 106.839 72.411 106.608 72.2471 106.446L70.4748 104.719L69.7806 104.042C69.3645 103.639 69.593 102.934 70.1665 102.85ZM50.9733 102.85L54.3864 102.352C54.6128 102.322 54.8111 102.177 54.9124 101.97L56.4389 98.8808C56.6934 98.3612 57.435 98.3612 57.6916 98.8808L59.2159 101.97C59.3194 102.175 59.5156 102.32 59.7442 102.352L63.1529 102.85C63.7264 102.934 63.9549 103.637 63.541 104.042L62.8446 104.719L61.0701 106.446C60.9063 106.608 60.833 106.839 60.8696 107.065L61.4539 110.463C61.5531 111.034 60.9516 111.47 60.4363 111.203L57.3854 109.599C57.1849 109.491 56.9391 109.491 56.7365 109.599L53.6856 111.203C53.1747 111.47 52.5753 111.034 52.6723 110.463L53.2566 107.065C53.2954 106.839 53.2178 106.608 53.0539 106.446L51.2817 104.719L50.5874 104.042C50.1713 103.639 50.3998 102.934 50.9733 102.85ZM31.7801 102.85L35.1932 102.352C35.4196 102.322 35.6179 102.177 35.7193 101.97L37.2457 98.8808C37.5001 98.3612 38.2418 98.3612 38.4984 98.8808L40.0227 101.97C40.1262 102.175 40.3224 102.32 40.551 102.352L43.9597 102.85C44.5332 102.934 44.7617 103.637 44.3478 104.042L43.6514 104.719L41.8769 106.446C41.7131 106.608 41.6398 106.839 41.6764 107.065L42.2607 110.463C42.3599 111.034 41.7584 111.47 41.2431 111.203L38.1922 109.599C37.9917 109.491 37.7459 109.491 37.5433 109.599L34.4925 111.203C33.9815 111.47 33.3821 111.034 33.4791 110.463L34.0634 107.065C34.1022 106.839 34.0246 106.608 33.8607 106.446L32.0884 104.719L31.3942 104.042C30.9781 103.639 31.2066 102.934 31.7801 102.85Z" fill="#DCE6F4"/>
<path d="M40.3308 133.992C40.0678 133.992 39.8004 133.949 39.5396 133.86C38.6426 133.556 38.0131 132.785 37.8923 131.847L36.7755 123.02H29.432C19.9345 123.02 12.2051 115.292 12.2051 105.795C12.2051 96.2976 19.9324 88.5703 29.432 88.5703H123.08C132.578 88.5703 140.305 96.2976 140.305 105.795C140.305 115.292 132.578 123.02 123.08 123.02H52.1525L42.0686 133.259C41.5986 133.738 40.9733 133.992 40.3308 133.992ZM29.4341 89.4306C20.411 89.4306 13.0697 96.7719 13.0697 105.793C13.0697 114.814 20.411 122.155 29.4341 122.155H37.5366L38.7483 131.737C38.8259 132.355 39.2248 132.843 39.8155 133.041C40.4063 133.239 41.0186 133.095 41.4563 132.651L51.7924 122.155H123.082C132.105 122.155 139.445 114.814 139.445 105.793C139.445 96.7719 132.103 89.4306 123.082 89.4306H29.432H29.4341Z" fill="#DCE6F4"/>
<path d="M118.344 111.712C118.165 111.712 117.986 111.669 117.82 111.583L114.767 109.977C114.69 109.936 114.597 109.936 114.521 109.977L111.468 111.583C111.085 111.784 110.63 111.749 110.28 111.495C109.931 111.24 109.757 110.818 109.83 110.391L110.414 106.993C110.429 106.907 110.399 106.818 110.334 106.756L107.87 104.352C107.56 104.052 107.45 103.608 107.583 103.196C107.717 102.784 108.066 102.489 108.495 102.424L111.908 101.926C111.997 101.915 112.07 101.859 112.109 101.782L113.635 98.6921C113.825 98.3061 114.213 98.0625 114.644 98.0625H114.647C115.08 98.0625 115.468 98.304 115.66 98.6921L117.184 101.784C117.223 101.861 117.298 101.918 117.383 101.928L120.798 102.426C121.227 102.489 121.576 102.784 121.71 103.196C121.843 103.608 121.733 104.05 121.425 104.352L118.954 106.758C118.892 106.818 118.864 106.907 118.879 106.995L119.463 110.391C119.536 110.816 119.366 111.238 119.017 111.495C118.818 111.641 118.583 111.715 118.348 111.715L118.344 111.712ZM114.644 109.084C114.825 109.084 115.007 109.127 115.173 109.216L118.221 110.82C118.355 110.889 118.465 110.826 118.506 110.796C118.547 110.766 118.637 110.682 118.611 110.535L118.027 107.137C117.965 106.771 118.085 106.398 118.351 106.137L120.821 103.731C120.927 103.627 120.903 103.507 120.888 103.459C120.873 103.412 120.821 103.297 120.671 103.276L117.262 102.778C116.902 102.73 116.581 102.5 116.412 102.165L114.886 99.0715C114.819 98.9379 114.696 98.9228 114.644 98.9228C114.595 98.9228 114.472 98.9379 114.405 99.0715L112.879 102.161C112.713 102.498 112.393 102.728 112.025 102.778L108.616 103.276C108.467 103.297 108.416 103.412 108.4 103.459C108.385 103.507 108.362 103.627 108.469 103.731L110.936 106.137C111.203 106.398 111.324 106.773 111.264 107.137L110.679 110.535C110.653 110.682 110.746 110.768 110.787 110.798C110.828 110.826 110.936 110.889 111.067 110.82L114.118 109.216C114.282 109.13 114.463 109.084 114.644 109.084Z" fill="#DCE6F4"/>
<path d="M99.151 111.712C98.972 111.712 98.7931 111.669 98.6271 111.583L95.5741 109.977C95.4965 109.936 95.4038 109.936 95.3261 109.977L92.2732 111.583C91.8894 111.784 91.4344 111.749 91.0852 111.495C90.7359 111.24 90.5634 110.818 90.6346 110.391L91.2188 106.993C91.2339 106.907 91.2037 106.818 91.1391 106.756L88.6747 104.352C88.3642 104.052 88.2543 103.608 88.388 103.196C88.5216 102.784 88.8709 102.489 89.3 102.424L92.713 101.926C92.8014 101.915 92.8747 101.859 92.9135 101.782L94.44 98.6921C94.6297 98.3061 95.0178 98.0625 95.449 98.0625H95.4512C95.8845 98.0625 96.2727 98.304 96.4645 98.6921L97.9889 101.784C98.0277 101.861 98.1031 101.918 98.1872 101.928L101.602 102.426C102.031 102.489 102.381 102.784 102.514 103.196C102.648 103.608 102.538 104.05 102.23 104.352L99.759 106.758C99.6965 106.818 99.6684 106.909 99.6835 106.995L100.268 110.391C100.341 110.816 100.169 111.24 99.8215 111.495C99.6231 111.641 99.3881 111.715 99.1531 111.715L99.151 111.712ZM95.4512 109.084C95.6323 109.084 95.8134 109.127 95.9794 109.216L99.0259 110.82C99.1596 110.889 99.2696 110.826 99.3105 110.796C99.3515 110.766 99.442 110.682 99.4162 110.535L98.8319 107.137C98.7694 106.771 98.8901 106.398 99.1553 106.137L101.626 103.731C101.732 103.627 101.708 103.507 101.693 103.459C101.678 103.412 101.626 103.297 101.475 103.276L98.0665 102.778C97.7064 102.73 97.3852 102.5 97.217 102.165L95.6905 99.0715C95.6237 98.9379 95.5008 98.9228 95.449 98.9228C95.3995 98.9228 95.2765 98.9379 95.2119 99.0715L93.6854 102.161C93.5194 102.498 93.2003 102.728 92.8316 102.778L89.425 103.274C89.2762 103.295 89.2245 103.41 89.2094 103.457C89.1943 103.504 89.1706 103.625 89.2784 103.729L91.7449 106.135C92.0123 106.398 92.133 106.771 92.0705 107.135L91.4862 110.533C91.4603 110.68 91.5531 110.766 91.594 110.794C91.635 110.822 91.7428 110.885 91.8764 110.816L94.9273 109.211C95.0911 109.125 95.2722 109.08 95.4533 109.08L95.4512 109.084Z" fill="#DCE6F4"/>
<path d="M79.9576 111.712C79.7787 111.712 79.5997 111.669 79.4337 111.583L76.3807 109.977C76.3031 109.936 76.2104 109.936 76.1328 109.977L73.0798 111.583C72.696 111.784 72.2411 111.749 71.8918 111.495C71.5426 111.24 71.37 110.818 71.4412 110.391L72.0255 106.993C72.0406 106.907 72.0104 106.818 71.9457 106.756L69.4814 104.352C69.1709 104.05 69.0609 103.608 69.1946 103.196C69.3283 102.784 69.6776 102.489 70.1066 102.424L73.5196 101.926C73.608 101.915 73.6814 101.859 73.7202 101.782L75.2466 98.6921C75.4364 98.3061 75.8245 98.0625 76.2557 98.0625H76.2578C76.6912 98.0625 77.0793 98.304 77.2712 98.6921L78.7955 101.784C78.8343 101.861 78.9098 101.918 78.9939 101.928L82.409 102.426C82.8381 102.489 83.1874 102.784 83.3211 103.196C83.4548 103.608 83.3448 104.05 83.0365 104.352L80.5656 106.758C80.5031 106.818 80.4751 106.909 80.4902 106.995L81.0745 110.391C81.1478 110.816 80.9774 111.238 80.6281 111.495C80.4298 111.641 80.1948 111.715 79.9598 111.715L79.9576 111.712ZM76.2578 109.084C76.439 109.084 76.6201 109.127 76.7861 109.216L79.8347 110.82C79.9684 110.889 80.0784 110.826 80.1193 110.796C80.1603 110.766 80.2508 110.682 80.225 110.535L79.6407 107.137C79.5782 106.771 79.6989 106.398 79.9641 106.137L82.4349 103.731C82.5406 103.627 82.5169 103.507 82.5018 103.457C82.4867 103.41 82.4349 103.295 82.284 103.274L78.8753 102.776C78.5152 102.728 78.194 102.497 78.0258 102.163L76.4993 99.0694C76.4325 98.9357 76.3096 98.9206 76.2578 98.9206C76.2083 98.9206 76.0853 98.9357 76.0207 99.0694L74.4942 102.159C74.3282 102.495 74.0091 102.726 73.6404 102.776L70.2338 103.274C70.085 103.295 70.0333 103.41 70.0182 103.457C70.0031 103.504 69.9794 103.625 70.0872 103.729L72.5537 106.135C72.8211 106.398 72.9418 106.771 72.8815 107.135L72.2972 110.533C72.2713 110.68 72.364 110.766 72.405 110.796C72.4459 110.826 72.5537 110.887 72.6852 110.818L75.7361 109.214C75.8999 109.127 76.081 109.082 76.2621 109.082L76.2578 109.084Z" fill="#DCE6F4"/>
<path d="M60.7641 111.712C60.5851 111.712 60.4062 111.669 60.2401 111.583L57.1872 109.977C57.1095 109.936 57.0168 109.936 56.9414 109.977L53.8884 111.583C53.5046 111.784 53.0497 111.749 52.7004 111.495C52.3511 111.24 52.1765 110.818 52.2498 110.391L52.8341 106.993C52.8492 106.907 52.819 106.818 52.7543 106.756L50.2899 104.352C49.9795 104.052 49.8695 103.608 50.0032 103.196C50.1369 102.784 50.4862 102.489 50.9152 102.424L54.3282 101.926C54.4166 101.915 54.4899 101.859 54.5288 101.782L56.0552 98.6921C56.245 98.3061 56.6331 98.0625 57.0643 98.0625H57.0664C57.4998 98.0625 57.8879 98.304 58.0798 98.6921L59.6041 101.784C59.6429 101.861 59.7184 101.918 59.8025 101.928L63.2177 102.426C63.6467 102.489 63.996 102.784 64.1297 103.196C64.2633 103.608 64.1534 104.05 63.8451 104.352L61.3742 106.758C61.3117 106.818 61.2837 106.907 61.2988 106.995L61.8831 110.391C61.9564 110.816 61.786 111.238 61.4368 111.495C61.2384 111.641 61.0034 111.715 60.7684 111.715L60.7641 111.712ZM57.0643 109.084C57.2454 109.084 57.4265 109.127 57.5925 109.216L60.6412 110.82C60.7748 110.889 60.8848 110.826 60.9258 110.796C60.9667 110.766 61.0573 110.682 61.0314 110.535L60.4471 107.137C60.3846 106.771 60.5053 106.398 60.7705 106.137L63.2414 103.731C63.347 103.627 63.3233 103.507 63.3082 103.459C63.2931 103.412 63.2414 103.297 63.0904 103.276L59.6817 102.778C59.3217 102.73 59.0004 102.5 58.8322 102.165L57.3058 99.0715C57.2389 98.9379 57.116 98.9228 57.0643 98.9228C57.0082 98.9228 56.8918 98.9379 56.8249 99.0715L55.2985 102.161C55.1325 102.498 54.8134 102.728 54.4447 102.778L51.0359 103.276C50.8872 103.297 50.8354 103.412 50.8203 103.459C50.8052 103.507 50.7815 103.627 50.8893 103.731L53.3559 106.137C53.6232 106.398 53.7439 106.773 53.6836 107.137L53.0993 110.535C53.0734 110.682 53.1661 110.768 53.2071 110.798C53.2481 110.826 53.3559 110.889 53.4874 110.82L56.5382 109.216C56.7021 109.13 56.8832 109.084 57.0643 109.084Z" fill="#DCE6F4"/>
<path d="M108.552 102.847L111.965 102.349C112.191 102.319 112.39 102.175 112.491 101.968L114.018 98.878C114.272 98.3584 115.014 98.3584 115.27 98.878L116.795 101.968C116.898 102.172 117.094 102.317 117.323 102.349L120.731 102.847C121.305 102.931 121.534 103.634 121.12 104.04L120.423 104.717L118.649 106.444C118.485 106.605 118.412 106.836 118.448 107.062L119.032 110.46C119.132 111.032 118.53 111.467 118.015 111.2L114.964 109.596C114.764 109.488 114.518 109.488 114.315 109.596L111.264 111.2C110.753 111.467 110.154 111.032 110.251 110.46L110.835 107.062C110.874 106.836 110.796 106.605 110.633 106.444L108.86 104.717L108.166 104.04C107.75 103.636 107.978 102.931 108.552 102.847Z" fill="#F7F9FA"/>
<path d="M89.3605 102.847L92.7736 102.349C92.9999 102.319 93.1983 102.175 93.2996 101.968L94.8261 98.878C95.0805 98.3584 95.8222 98.3584 96.0788 98.878L97.6031 101.968C97.7066 102.172 97.9028 102.317 98.1313 102.349L101.54 102.847C102.114 102.931 102.342 103.634 101.928 104.04L101.232 104.717L99.4573 106.444C99.2935 106.605 99.2202 106.836 99.2568 107.062L99.8411 110.46C99.9403 111.032 99.3387 111.467 98.8234 111.2L95.7726 109.596C95.5721 109.488 95.3263 109.488 95.1237 109.596L92.0728 111.2C91.5619 111.467 90.9625 111.032 91.0595 110.46L91.6438 107.062C91.6826 106.836 91.605 106.605 91.4411 106.444L89.6688 104.717L88.9746 104.04C88.5585 103.636 88.787 102.931 89.3605 102.847Z" fill="#F7F9FA"/>
<path d="M70.1672 102.847L73.5802 102.349C73.8066 102.319 74.0049 102.175 74.1063 101.968L75.6328 98.878C75.8872 98.3584 76.6288 98.3584 76.8854 98.878L78.4098 101.968C78.5132 102.172 78.7094 102.317 78.938 102.349L82.3467 102.847C82.9202 102.931 83.1488 103.634 82.7348 104.04L82.0384 104.717L80.264 106.444C80.1001 106.605 80.0268 106.836 80.0634 107.062L80.6477 110.46C80.7469 111.032 80.1454 111.467 79.6301 111.2L76.5793 109.596C76.3788 109.488 76.133 109.488 75.9303 109.596L72.8795 111.2C72.3685 111.467 71.7691 111.032 71.8661 110.46L72.4504 107.062C72.4892 106.836 72.4116 106.605 72.2477 106.444L70.4755 104.717L69.7812 104.04C69.3651 103.636 69.5937 102.931 70.1672 102.847Z" fill="#F7F9FA"/>
<path d="M50.9738 102.847L54.3868 102.349C54.6132 102.319 54.8116 102.175 54.9129 101.968L56.4394 98.878C56.6938 98.3584 57.4355 98.3584 57.6921 98.878L59.2164 101.968C59.3199 102.172 59.5161 102.317 59.7446 102.349L63.1534 102.847C63.7269 102.931 63.9554 103.634 63.5414 104.04L62.845 104.717L61.0706 106.444C60.9067 106.605 60.8334 106.836 60.8701 107.062L61.4544 110.46C61.5536 111.032 60.952 111.467 60.4367 111.2L57.3859 109.596C57.1854 109.488 56.9396 109.488 56.7369 109.596L53.6861 111.2C53.1751 111.467 52.5757 111.032 52.6728 110.46L53.2571 107.062C53.2959 106.836 53.2183 106.605 53.0544 106.444L51.2821 104.717L50.5879 104.04C50.1717 103.636 50.4003 102.931 50.9738 102.847Z" fill="#F7F9FA"/>
<path d="M31.7804 102.847L35.1935 102.349C35.4199 102.319 35.6182 102.175 35.7196 101.968L37.246 98.878C37.5005 98.3584 38.2421 98.3584 38.4987 98.878L40.023 101.968C40.1265 102.172 40.3227 102.317 40.5513 102.349L43.96 102.847C44.5335 102.931 44.762 103.634 44.3481 104.04L43.6517 104.717L41.8773 106.444C41.7134 106.605 41.6401 106.836 41.6767 107.062L42.261 110.46C42.3602 111.032 41.7587 111.467 41.2434 111.2L38.1926 109.596C37.992 109.488 37.7462 109.488 37.5436 109.596L34.4928 111.2C33.9818 111.467 33.3824 111.032 33.4794 110.46L34.0637 107.062C34.1025 106.836 34.0249 106.605 33.861 106.444L32.0888 104.717L31.3945 104.04C30.9784 103.636 31.2069 102.931 31.7804 102.847Z" fill="#F7F9FA"/>
<g opacity="0.5">
<path d="M96.6444 174.86C96.6444 179.116 93.1925 182.568 88.9365 182.568H56.3046L51.6173 187.324C51.0762 187.876 50.1361 187.559 50.0391 186.792L49.5044 182.568H45.9599C41.7038 182.568 38.252 179.116 38.252 174.86C38.252 170.604 41.7038 167.152 45.9599 167.152H88.9365C91.0645 167.152 92.992 168.015 94.387 169.41C95.782 170.805 96.6444 172.732 96.6444 174.86Z" fill="#DCE6F4"/>
</g>
<path d="M50.9595 188.031C50.8129 188.031 50.6663 188.008 50.5218 187.96C50.0238 187.792 49.6745 187.365 49.6098 186.843L49.1226 182.997H45.9575C41.4686 182.997 37.8184 179.347 37.8184 174.858C37.8184 170.369 41.4686 166.719 45.9575 166.719H88.9341C91.1074 166.719 93.1514 167.566 94.6886 169.103C96.2259 170.641 97.0732 172.685 97.0732 174.858C97.0732 179.347 93.423 182.997 88.9341 182.997H56.4833L51.9233 187.624C51.6624 187.889 51.3174 188.031 50.9617 188.031H50.9595ZM45.9575 167.581C41.945 167.581 38.6808 170.845 38.6808 174.858C38.6808 178.87 41.945 182.135 45.9575 182.135H49.8815L50.4636 186.736C50.4873 186.927 50.6124 187.081 50.7957 187.143C50.9789 187.206 51.1687 187.16 51.3045 187.02L56.119 182.135H88.9319C92.9444 182.135 96.2086 178.87 96.2086 174.858C96.2086 172.913 95.4519 171.087 94.0785 169.711C92.705 168.336 90.8767 167.581 88.9319 167.581H45.9553H45.9575Z" fill="#DCE6F4"/>
<path d="M171.368 128.338H77.7193C68.4439 128.338 60.9258 135.856 60.9258 145.132C60.9258 154.407 68.4439 161.925 77.7193 161.925H148.828L159.039 172.291C160.223 173.492 162.269 172.8 162.48 171.127L163.645 161.923H171.368C180.643 161.923 188.161 154.405 188.161 145.129C188.161 135.854 180.643 128.336 171.368 128.336V128.338ZM92.6327 143.379L91.9385 144.056L90.1662 145.783C90.0024 145.944 89.9247 146.175 89.9635 146.402L90.5478 149.799C90.6448 150.371 90.0455 150.806 89.5345 150.539L86.4837 148.935C86.281 148.827 86.0352 148.827 85.8347 148.935L82.7839 150.539C82.2686 150.806 81.6692 150.371 81.7662 149.799L82.3505 146.402C82.3893 146.175 82.316 145.944 82.15 145.783L80.3756 144.056L79.6792 143.379C79.2652 142.976 79.4959 142.271 80.0672 142.186L83.476 141.688C83.7045 141.658 83.9007 141.514 84.0042 141.307L85.5285 138.217C85.7873 137.698 86.5268 137.698 86.7812 138.217L88.3077 141.307C88.409 141.512 88.6074 141.656 88.8338 141.688L92.2468 142.186C92.8203 142.271 93.0488 142.973 92.6327 143.379ZM111.826 143.379L111.132 144.056L109.359 145.783C109.196 145.944 109.118 146.175 109.157 146.402L109.741 149.799C109.838 150.371 109.239 150.806 108.728 150.539L105.677 148.935C105.474 148.827 105.228 148.827 105.028 148.935L101.977 150.539C101.462 150.806 100.862 150.371 100.959 149.799L101.544 146.402C101.583 146.175 101.509 145.944 101.343 145.783L99.5688 144.056L98.8723 143.379C98.4584 142.976 98.6891 142.271 99.2604 142.186L102.669 141.688C102.898 141.658 103.094 141.514 103.197 141.307L104.722 138.217C104.98 137.698 105.72 137.698 105.974 138.217L107.501 141.307C107.602 141.512 107.801 141.656 108.027 141.688L111.44 142.186C112.014 142.271 112.242 142.973 111.826 143.379ZM131.019 143.379L130.325 144.056L128.553 145.783C128.389 145.944 128.311 146.175 128.35 146.402L128.934 149.799C129.031 150.371 128.432 150.806 127.921 150.539L124.87 148.935C124.667 148.827 124.422 148.827 124.221 148.935L121.17 150.539C120.655 150.806 120.056 150.371 120.153 149.799L120.737 146.402C120.776 146.175 120.702 145.944 120.536 145.783L118.762 144.056L118.066 143.379C117.652 142.976 117.882 142.271 118.454 142.186L121.862 141.688C122.091 141.658 122.287 141.514 122.391 141.307L123.915 138.217C124.174 137.698 124.913 137.698 125.168 138.217L126.694 141.307C126.795 141.512 126.994 141.656 127.22 141.688L130.633 142.186C131.207 142.271 131.435 142.973 131.019 143.379ZM150.212 143.379L149.518 144.056L147.746 145.783C147.582 145.944 147.504 146.175 147.543 146.402L148.127 149.799C148.224 150.371 147.625 150.806 147.114 150.539L144.063 148.935C143.861 148.827 143.615 148.827 143.414 148.935L140.363 150.539C139.848 150.806 139.249 150.371 139.346 149.799L139.93 146.402C139.969 146.175 139.896 145.944 139.73 145.783L137.955 144.056L137.259 143.379C136.845 142.976 137.076 142.271 137.647 142.186L141.056 141.688C141.284 141.658 141.48 141.514 141.584 141.307L143.108 138.217C143.367 137.698 144.106 137.698 144.361 138.217L145.887 141.307C145.989 141.512 146.187 141.656 146.413 141.688L149.826 142.186C150.4 142.271 150.628 142.973 150.212 143.379ZM169.406 143.379L168.711 144.056L166.939 145.783C166.775 145.944 166.698 146.175 166.736 146.402L167.321 149.799C167.418 150.371 166.818 150.806 166.307 150.539L163.256 148.935C163.054 148.827 162.808 148.827 162.608 148.935L159.557 150.539C159.041 150.806 158.442 150.371 158.539 149.799L159.123 146.402C159.162 146.175 159.089 145.944 158.923 145.783L157.148 144.056L156.452 143.379C156.038 142.976 156.269 142.271 156.84 142.186L160.249 141.688C160.477 141.658 160.674 141.514 160.777 141.307L162.301 138.217C162.56 137.698 163.3 137.698 163.554 138.217L165.08 141.307C165.182 141.512 165.38 141.656 165.607 141.688L169.02 142.186C169.593 142.271 169.822 142.973 169.406 143.379Z" fill="#3563AD"/>
<path d="M160.468 173.334C159.826 173.334 159.2 173.08 158.73 172.601L148.647 162.362H77.7189C68.2214 162.362 60.4941 154.634 60.4941 145.137C60.4941 135.64 68.2214 127.91 77.7189 127.91H171.367C180.865 127.91 188.592 135.637 188.592 145.135C188.592 154.632 180.865 162.362 171.367 162.362H164.024L162.907 171.189C162.788 172.129 162.156 172.901 161.26 173.202C160.999 173.291 160.731 173.334 160.468 173.334ZM77.7189 128.773C68.6958 128.773 61.3566 136.114 61.3566 145.135C61.3566 154.156 68.6979 161.499 77.7189 161.499H149.009L159.345 171.995C159.783 172.439 160.395 172.584 160.986 172.385C161.576 172.187 161.975 171.697 162.053 171.081L163.265 161.499H171.367C180.39 161.499 187.729 154.158 187.729 145.137C187.729 136.116 180.388 128.773 171.367 128.773H77.7189Z" fill="#DCE6F4"/>
<path d="M89.8584 151.054C89.6795 151.054 89.5005 151.011 89.3345 150.925L86.2816 149.321C86.2039 149.28 86.1112 149.28 86.0358 149.321L82.9828 150.927C82.5947 151.13 82.1376 151.093 81.7883 150.836C81.439 150.582 81.2687 150.159 81.342 149.732L81.9263 146.337C81.9414 146.25 81.9134 146.16 81.8487 146.099L79.38 143.695C79.0696 143.391 78.9617 142.949 79.0954 142.538C79.2291 142.126 79.5784 141.83 80.0074 141.768L83.4162 141.27C83.5046 141.257 83.58 141.203 83.6231 141.121L85.1453 138.036C85.3394 137.648 85.7274 137.406 86.1608 137.406H86.163C86.5963 137.406 86.9823 137.65 87.172 138.036L88.6985 141.125C88.7373 141.203 88.8128 141.259 88.8947 141.27L92.312 141.768C92.7411 141.83 93.0904 142.128 93.224 142.54C93.3577 142.952 93.2456 143.394 92.9351 143.695L90.4686 146.099C90.4061 146.162 90.3759 146.25 90.3888 146.337L90.9731 149.732C91.0464 150.161 90.8739 150.584 90.5225 150.838C90.3241 150.983 90.0913 151.056 89.8584 151.056V151.054ZM86.1565 148.426C86.3376 148.426 86.5187 148.469 86.6847 148.557L89.7356 150.161C89.8671 150.23 89.9749 150.17 90.0158 150.14C90.0568 150.11 90.1495 150.026 90.1236 149.877L89.5394 146.481C89.4768 146.117 89.5997 145.742 89.8649 145.481L92.3336 143.075C92.4414 142.971 92.4177 142.848 92.4026 142.801C92.3875 142.753 92.3358 142.639 92.187 142.617L88.7761 142.119C88.4117 142.07 88.0926 141.839 87.9266 141.503L86.4001 138.413C86.3333 138.279 86.2126 138.264 86.163 138.264C86.1112 138.264 85.9883 138.279 85.9215 138.415L84.3993 141.505C84.2268 141.843 83.9077 142.074 83.5412 142.122L80.1368 142.617C79.988 142.639 79.9363 142.753 79.9212 142.801C79.9061 142.848 79.8824 142.969 79.988 143.075L82.4567 145.479C82.7219 145.739 82.8427 146.112 82.7801 146.479L82.1958 149.877C82.1699 150.023 82.2605 150.11 82.3015 150.138C82.3424 150.168 82.4524 150.23 82.5882 150.159L85.6369 148.555C85.8008 148.467 85.9797 148.424 86.1608 148.424L86.1565 148.426Z" fill="#DCE6F4"/>
<path d="M109.052 151.054C108.873 151.054 108.694 151.011 108.528 150.925L105.475 149.321C105.397 149.28 105.305 149.28 105.229 149.321L102.176 150.927C101.788 151.13 101.331 151.093 100.982 150.836C100.632 150.582 100.462 150.159 100.535 149.732L101.12 146.337C101.135 146.25 101.107 146.16 101.042 146.099L98.5734 143.695C98.2629 143.391 98.1551 142.949 98.2888 142.538C98.4224 142.126 98.7717 141.83 99.2008 141.768L102.612 141.27C102.7 141.257 102.776 141.203 102.819 141.121L104.339 138.036C104.533 137.648 104.921 137.406 105.354 137.406H105.356C105.788 137.406 106.176 137.648 106.365 138.036L107.892 141.125C107.931 141.203 108.006 141.259 108.088 141.27L111.503 141.768C111.932 141.83 112.282 142.128 112.415 142.54C112.549 142.952 112.437 143.394 112.126 143.695L109.66 146.099C109.597 146.162 109.567 146.25 109.58 146.337L110.164 149.732C110.238 150.159 110.065 150.584 109.714 150.838C109.515 150.983 109.283 151.056 109.05 151.056L109.052 151.054ZM105.35 148.426C105.531 148.426 105.712 148.469 105.878 148.557L108.929 150.161C109.06 150.23 109.168 150.17 109.209 150.14C109.25 150.11 109.343 150.026 109.317 149.877L108.733 146.481C108.67 146.115 108.793 145.742 109.058 145.481L111.527 143.075C111.635 142.971 111.611 142.848 111.596 142.801C111.581 142.753 111.529 142.639 111.38 142.617L107.969 142.119C107.605 142.07 107.286 141.839 107.12 141.503L105.593 138.413C105.527 138.279 105.406 138.264 105.356 138.264C105.305 138.264 105.182 138.279 105.115 138.415L103.593 141.505C103.42 141.843 103.101 142.074 102.735 142.122L99.3302 142.617C99.1814 142.639 99.1296 142.753 99.1146 142.801C99.0995 142.848 99.0757 142.971 99.1814 143.075L101.65 145.479C101.915 145.739 102.036 146.112 101.973 146.479L101.389 149.877C101.363 150.023 101.454 150.11 101.495 150.138C101.536 150.168 101.646 150.23 101.782 150.159L104.83 148.555C104.994 148.467 105.173 148.424 105.354 148.424L105.35 148.426Z" fill="#DCE6F4"/>
<path d="M128.245 151.052C128.066 151.052 127.887 151.009 127.721 150.923L124.668 149.319C124.591 149.278 124.498 149.278 124.423 149.319L121.37 150.925C120.982 151.128 120.525 151.091 120.175 150.835C119.826 150.58 119.653 150.158 119.727 149.731L120.311 146.335C120.326 146.249 120.298 146.158 120.233 146.096L117.765 143.692C117.454 143.388 117.347 142.946 117.48 142.534C117.614 142.122 117.963 141.827 118.392 141.764L121.803 141.266C121.891 141.253 121.967 141.199 122.01 141.117L123.53 138.032C123.724 137.644 124.112 137.402 124.546 137.402H124.548C124.981 137.402 125.367 137.646 125.557 138.032L127.083 141.122C127.122 141.199 127.198 141.255 127.279 141.266L130.695 141.764C131.124 141.827 131.473 142.122 131.607 142.536C131.74 142.948 131.628 143.39 131.318 143.692L128.851 146.096C128.789 146.158 128.759 146.246 128.774 146.333L129.358 149.729C129.431 150.155 129.259 150.58 128.907 150.835C128.709 150.979 128.476 151.052 128.243 151.052H128.245ZM124.543 148.424C124.725 148.424 124.906 148.467 125.072 148.556L128.122 150.16C128.254 150.229 128.362 150.168 128.403 150.138C128.444 150.108 128.536 150.024 128.511 149.875L127.926 146.479C127.864 146.115 127.987 145.742 128.252 145.479L130.721 143.073C130.828 142.969 130.805 142.846 130.79 142.799C130.774 142.752 130.723 142.637 130.574 142.616L127.163 142.118C126.799 142.068 126.48 141.837 126.314 141.501L124.787 138.411C124.72 138.278 124.604 138.267 124.548 138.263C124.496 138.263 124.373 138.278 124.306 138.414L122.784 141.503C122.612 141.842 122.292 142.072 121.926 142.12L118.522 142.616C118.373 142.637 118.321 142.752 118.306 142.799C118.291 142.846 118.267 142.969 118.373 143.073L120.841 145.477C121.107 145.738 121.227 146.111 121.165 146.477L120.581 149.875C120.555 150.022 120.647 150.108 120.686 150.136C120.727 150.166 120.837 150.229 120.973 150.158L124.022 148.553C124.186 148.465 124.364 148.422 124.546 148.422L124.543 148.424Z" fill="#DCE6F4"/>
<path d="M147.437 151.054C147.258 151.054 147.079 151.011 146.913 150.925L143.86 149.321C143.782 149.28 143.689 149.28 143.614 149.321L140.561 150.927C140.173 151.13 139.716 151.093 139.366 150.836C139.017 150.582 138.847 150.159 138.92 149.732L139.504 146.337C139.52 146.25 139.492 146.16 139.427 146.099L136.958 143.695C136.648 143.391 136.54 142.949 136.674 142.538C136.807 142.126 137.156 141.83 137.586 141.768L140.996 141.27C141.085 141.257 141.16 141.203 141.203 141.121L142.726 138.036C142.92 137.648 143.308 137.406 143.741 137.406H143.743C144.177 137.406 144.563 137.648 144.752 138.036L146.279 141.125C146.318 141.203 146.393 141.259 146.475 141.27L149.892 141.768C150.321 141.83 150.671 142.128 150.804 142.54C150.938 142.952 150.826 143.394 150.518 143.695L148.051 146.099C147.989 146.162 147.958 146.25 147.971 146.337L148.556 149.732C148.629 150.161 148.456 150.584 148.105 150.838C147.907 150.983 147.674 151.056 147.441 151.056L147.437 151.054ZM143.735 148.426C143.916 148.426 144.097 148.469 144.263 148.557L147.314 150.161C147.445 150.23 147.553 150.17 147.594 150.14C147.635 150.11 147.728 150.026 147.702 149.877L147.117 146.481C147.055 146.115 147.178 145.742 147.443 145.481L149.912 143.075C150.02 142.971 149.996 142.848 149.981 142.801C149.966 142.753 149.914 142.639 149.765 142.617L146.354 142.119C145.99 142.07 145.671 141.839 145.505 141.503L143.978 138.413C143.911 138.279 143.791 138.264 143.741 138.264C143.689 138.264 143.566 138.279 143.5 138.415L141.977 141.505C141.805 141.843 141.486 142.074 141.119 142.122L137.715 142.617C137.566 142.639 137.514 142.753 137.499 142.801C137.484 142.848 137.461 142.971 137.566 143.075L140.035 145.479C140.3 145.739 140.421 146.112 140.358 146.479L139.774 149.877C139.748 150.023 139.839 150.11 139.88 150.138C139.921 150.168 140.031 150.23 140.166 150.159L143.215 148.555C143.379 148.467 143.558 148.424 143.739 148.424L143.735 148.426Z" fill="#DCE6F4"/>
<path d="M166.628 151.054C166.449 151.054 166.27 151.011 166.104 150.925L163.051 149.321C162.973 149.28 162.881 149.28 162.805 149.321L159.752 150.927C159.364 151.13 158.907 151.093 158.558 150.836C158.209 150.582 158.038 150.159 158.112 149.732L158.696 146.337C158.711 146.25 158.683 146.16 158.618 146.099L156.15 143.695C155.839 143.391 155.731 142.949 155.865 142.538C155.999 142.126 156.348 141.83 156.777 141.768L160.188 141.27C160.276 141.257 160.352 141.203 160.395 141.121L161.915 138.036C162.109 137.648 162.497 137.406 162.93 137.406H162.933C163.364 137.406 163.752 137.648 163.942 138.036L165.468 141.125C165.507 141.203 165.582 141.259 165.664 141.27L169.079 141.768C169.508 141.83 169.858 142.128 169.991 142.54C170.125 142.952 170.013 143.394 169.705 143.695L167.238 146.099C167.173 146.162 167.145 146.25 167.158 146.337L167.743 149.732C167.816 150.159 167.643 150.584 167.292 150.838C167.094 150.983 166.861 151.056 166.628 151.056V151.054ZM162.926 148.426C163.107 148.426 163.288 148.469 163.454 148.557L166.505 150.161C166.637 150.23 166.744 150.17 166.785 150.14C166.826 150.11 166.919 150.026 166.893 149.877L166.309 146.481C166.246 146.117 166.369 145.742 166.634 145.481L169.103 143.075C169.211 142.971 169.187 142.848 169.172 142.801C169.157 142.753 169.105 142.639 168.957 142.617L165.546 142.119C165.181 142.07 164.862 141.839 164.696 141.503L163.17 138.413C163.103 138.279 162.973 138.269 162.93 138.264C162.879 138.264 162.756 138.279 162.689 138.415L161.167 141.505C160.994 141.843 160.675 142.074 160.309 142.122L156.904 142.617C156.755 142.639 156.704 142.753 156.689 142.801C156.673 142.848 156.65 142.971 156.755 143.075L159.224 145.479C159.489 145.739 159.61 146.112 159.547 146.479L158.963 149.877C158.937 150.023 159.028 150.11 159.069 150.138C159.11 150.168 159.22 150.23 159.356 150.159L162.404 148.555C162.568 148.467 162.747 148.424 162.928 148.424L162.926 148.426Z" fill="#DCE6F4"/>
<path opacity="0.5" d="M92.2477 142.191L88.8347 141.693C88.6083 141.663 88.4099 141.518 88.3086 141.311L86.7821 138.222C86.5277 137.702 85.786 137.702 85.5294 138.222L84.0051 141.311C83.9016 141.516 83.7054 141.661 83.4769 141.693L80.0681 142.191C79.4946 142.275 79.2661 142.978 79.6801 143.383L80.3765 144.06L82.1509 145.787C82.3147 145.949 82.3881 146.18 82.3514 146.406L81.7671 149.804C81.6679 150.375 82.2695 150.811 82.7848 150.544L85.8356 148.939C86.0361 148.832 86.2819 148.832 86.4845 148.939L89.5354 150.544C90.0464 150.811 90.6457 150.375 90.5487 149.804L89.9644 146.406C89.9256 146.18 90.0032 145.949 90.1671 145.787L91.9394 144.06L92.6336 143.383C93.0497 142.98 92.8212 142.275 92.2477 142.191Z" fill="#F7F9FA"/>
<path opacity="0.5" d="M111.441 142.191L108.028 141.693C107.802 141.663 107.603 141.518 107.502 141.311L105.975 138.222C105.721 137.702 104.979 137.702 104.723 138.222L103.198 141.311C103.095 141.516 102.899 141.661 102.67 141.693L99.2615 142.191C98.688 142.275 98.4594 142.978 98.8734 143.383L99.5698 144.06L101.344 145.787C101.508 145.949 101.581 146.18 101.545 146.406L100.96 149.804C100.861 150.375 101.463 150.811 101.978 150.544L105.029 148.939C105.229 148.832 105.475 148.832 105.678 148.939L108.729 150.544C109.24 150.811 109.839 150.375 109.742 149.804L109.158 146.406C109.119 146.18 109.197 145.949 109.36 145.787L111.133 144.06L111.827 143.383C112.243 142.98 112.015 142.275 111.441 142.191Z" fill="#F7F9FA"/>
<path opacity="0.5" d="M130.632 142.191L127.219 141.693C126.993 141.663 126.795 141.518 126.693 141.311L125.167 138.222C124.912 137.702 124.171 137.702 123.914 138.222L122.39 141.311C122.286 141.516 122.09 141.661 121.862 141.693L118.453 142.191C117.879 142.275 117.651 142.978 118.065 143.383L118.761 144.06L120.536 145.787C120.7 145.949 120.773 146.18 120.736 146.406L120.152 149.804C120.053 150.375 120.654 150.811 121.17 150.544L124.22 148.939C124.421 148.832 124.667 148.832 124.869 148.939L127.92 150.544C128.431 150.811 129.031 150.375 128.933 149.804L128.349 146.406C128.31 146.18 128.388 145.949 128.552 145.787L130.324 144.06L131.018 143.383C131.435 142.98 131.206 142.275 130.632 142.191Z" fill="#F7F9FA"/>
<path opacity="0.5" d="M149.826 142.191L146.413 141.693C146.186 141.663 145.988 141.518 145.887 141.311L144.36 138.222C144.106 137.702 143.364 137.702 143.108 138.222L141.583 141.311C141.48 141.516 141.284 141.661 141.055 141.693L137.646 142.191C137.073 142.275 136.844 142.978 137.258 143.383L137.955 144.06L139.729 145.787C139.893 145.949 139.966 146.18 139.93 146.406L139.345 149.804C139.246 150.375 139.848 150.811 140.363 150.544L143.414 148.939C143.614 148.832 143.86 148.832 144.063 148.939L147.113 150.544C147.624 150.811 148.224 150.375 148.127 149.804L147.543 146.406C147.504 146.18 147.581 145.949 147.745 145.787L149.517 144.06L150.212 143.383C150.628 142.98 150.399 142.275 149.826 142.191Z" fill="#F7F9FA"/>
<path opacity="0.5" d="M169.019 142.191L165.606 141.693C165.38 141.663 165.181 141.518 165.08 141.311L163.554 138.222C163.299 137.702 162.557 137.702 162.301 138.222L160.777 141.311C160.673 141.516 160.477 141.661 160.248 141.693L156.84 142.191C156.266 142.275 156.038 142.978 156.452 143.383L157.148 144.06L158.922 145.787C159.086 145.949 159.16 146.18 159.123 146.406L158.539 149.804C158.439 150.375 159.041 150.811 159.556 150.544L162.607 148.939C162.808 148.832 163.053 148.832 163.256 148.939L166.307 150.544C166.818 150.811 167.417 150.375 167.32 149.804L166.736 146.406C166.697 146.18 166.775 145.949 166.939 145.787L168.711 144.06L169.405 143.383C169.821 142.98 169.593 142.275 169.019 142.191Z" fill="#F7F9FA"/>
<path d="M160.328 16.4062C161.381 16.4329 162.418 16.5264 163.435 16.6816C164.044 16.7748 164.647 16.8902 165.241 17.0273C169.401 17.9875 173.156 20.0041 176.209 22.7793C176.5 23.0436 176.784 23.315 177.062 23.5928C177.2 23.7316 177.338 23.8716 177.474 24.0137C177.745 24.2982 178.009 24.5895 178.267 24.8867C179.682 26.5206 180.886 28.3431 181.834 30.3115C182.006 30.6693 182.17 31.0322 182.325 31.3994C182.558 31.9503 182.772 32.5115 182.965 33.082C183.094 33.4627 183.214 33.8475 183.324 34.2363C183.766 35.7904 184.057 37.4072 184.184 39.0703C184.215 39.4861 184.236 39.9048 184.247 40.3262L184.256 40.96C184.256 41.1719 184.252 41.3831 184.247 41.5938C184.236 42.0151 184.215 42.4338 184.184 42.8496C184.057 44.5127 183.766 46.1296 183.324 47.6836C183.214 48.0721 183.094 48.4565 182.965 48.8369C182.772 49.4078 182.558 49.9693 182.325 50.5205C182.17 50.8877 182.006 51.2506 181.834 51.6084C180.885 53.5768 179.682 55.3993 178.267 57.0332C178.009 57.3303 177.745 57.6209 177.474 57.9053C177.202 58.1899 176.924 58.4679 176.64 58.7393C176.355 59.0103 176.065 59.2749 175.768 59.5322C174.134 60.9475 172.311 62.1511 170.343 63.0996C169.985 63.272 169.622 63.4355 169.255 63.5908C168.704 63.824 168.142 64.0373 167.571 64.2305C167.191 64.3592 166.806 64.4795 166.418 64.5898C165.835 64.7553 165.244 64.8998 164.645 65.0225C164.245 65.1043 163.841 65.1761 163.435 65.2383C162.825 65.3314 162.208 65.4018 161.584 65.4492C161.168 65.4809 160.749 65.502 160.328 65.5127C160.118 65.518 159.906 65.5215 159.694 65.5215C159.482 65.5215 159.271 65.518 159.061 65.5127C158.639 65.502 158.221 65.4809 157.805 65.4492C156.142 65.3227 154.525 65.0312 152.971 64.5898C152.582 64.4794 152.197 64.3593 151.816 64.2305C151.246 64.0374 150.685 63.8238 150.134 63.5908C149.767 63.4355 149.404 63.272 149.046 63.0996C147.077 62.1511 145.255 60.9475 143.621 59.5322C143.324 59.2747 143.033 59.0105 142.748 58.7393C142.606 58.6038 142.466 58.466 142.327 58.3271C142.049 58.0494 141.778 57.7653 141.514 57.4746C138.739 54.4213 136.722 50.6662 135.762 46.5068C135.67 46.1107 135.589 45.7108 135.517 45.3076C135.265 43.8965 135.133 42.4436 135.133 40.96C135.133 39.4764 135.265 38.0234 135.517 36.6123C135.589 36.2091 135.67 35.8092 135.762 35.4131C136.722 31.2537 138.739 27.4986 141.514 24.4453C142.174 23.7183 142.878 23.0311 143.621 22.3877C146.592 19.8143 150.186 17.9417 154.147 17.0273C154.544 16.9359 154.943 16.8542 155.347 16.7822C156.556 16.5662 157.797 16.4383 159.061 16.4062C159.271 16.4009 159.482 16.3984 159.694 16.3984C159.906 16.3984 160.118 16.4009 160.328 16.4062Z" fill="#FEFEFE" stroke="#FEFEFE" stroke-width="0.000167098"/>
<path d="M153.555 40.9495C153.555 38.7709 154.053 37.0582 155.049 35.8115C156.059 34.5648 157.607 33.9414 159.695 33.9414C161.769 33.9414 163.311 34.5711 164.321 35.8304C165.331 37.0771 165.835 38.7835 165.835 40.9495C165.835 43.1281 165.331 44.8471 164.321 46.1064C163.311 47.3531 161.769 47.9765 159.695 47.9765C157.607 47.9765 156.059 47.3531 155.049 46.1064C154.053 44.8471 153.555 43.1281 153.555 40.9495ZM161.353 40.9495C161.353 39.9421 161.244 39.1865 161.025 38.6827C160.807 38.1664 160.364 37.9083 159.695 37.9083C159.013 37.9083 158.562 38.1664 158.344 38.6827C158.126 39.1865 158.017 39.9421 158.017 40.9495C158.017 41.9696 158.126 42.7377 158.344 43.2541C158.562 43.7578 159.013 44.0096 159.695 44.0096C160.364 44.0096 160.807 43.7578 161.025 43.2541C161.244 42.7377 161.353 41.9696 161.353 40.9495Z" fill="#1D3963"/>
<path d="M159.695 69.8955C157.746 69.8955 155.816 69.7036 153.957 69.3241C150.303 68.5889 146.866 67.1702 143.744 65.1047C141.373 63.5351 139.244 61.6291 137.423 59.4386C133.132 54.2748 130.763 47.7247 130.754 40.9957C130.745 34.2171 133.132 27.6217 137.474 22.4256C138.044 21.7421 138.662 21.0673 139.316 20.4205C142.655 17.1023 146.799 14.6293 151.299 13.2667C151.342 13.2537 151.377 13.243 151.413 13.2322C151.465 13.2171 151.517 13.1998 151.568 13.1869C154.184 12.4237 156.907 12.0356 159.656 12.0312C160.055 12.0312 160.477 12.0399 160.904 12.0593C166.038 12.2663 171.025 13.8423 175.328 16.6172C180.695 20.0776 184.821 25.2673 186.945 31.2309C187.005 31.3991 187.066 31.5694 187.12 31.7376C187.674 33.374 188.081 35.0903 188.329 36.8323C188.525 38.182 188.625 39.5598 188.627 40.9245C188.627 42.2936 188.532 43.6778 188.34 45.034C187.633 50.0511 185.602 54.8139 182.463 58.809C181.557 59.9668 180.542 61.0772 179.442 62.1078C178.25 63.2225 176.947 64.2444 175.574 65.1478C173.185 66.7239 170.585 67.9313 167.847 68.7312C165.848 69.3133 163.783 69.682 161.704 69.8243C161.454 69.8416 161.217 69.8566 160.98 69.8674C160.518 69.8868 160.111 69.8955 159.731 69.8955H159.695ZM159.688 12.8915H159.658C156.991 12.8958 154.348 13.2731 151.803 14.0148C151.754 14.0278 151.713 14.0407 151.67 14.0536C151.627 14.0666 151.584 14.0795 151.543 14.0924C147.185 15.4098 143.164 17.8116 139.924 21.0306C139.29 21.658 138.688 22.3135 138.138 22.9754C133.925 28.0184 131.61 34.4154 131.618 40.9914C131.627 47.5199 133.923 53.8738 138.087 58.8845C139.855 61.0103 141.918 62.8602 144.221 64.3824C147.25 66.3876 150.583 67.7631 154.13 68.4768C155.932 68.8433 157.804 69.0309 159.695 69.0309H159.731C160.1 69.0309 160.497 69.0223 160.943 69.0028C161.174 68.9921 161.404 68.977 161.637 68.9597C163.664 68.8196 165.669 68.4638 167.607 67.8989C170.264 67.1228 172.784 65.952 175.104 64.4212C176.439 63.5437 177.7 62.5519 178.858 61.4717C179.925 60.4713 180.912 59.3933 181.79 58.27C184.834 54.3934 186.805 49.773 187.491 44.9068C187.676 43.5894 187.771 42.2484 187.769 40.9181C187.769 39.5921 187.669 38.2575 187.482 36.9466C187.24 35.2563 186.846 33.5918 186.307 32.0006C186.253 31.8346 186.195 31.6729 186.139 31.5134C184.077 25.7287 180.076 20.6943 174.867 17.3351C170.693 14.6444 165.854 13.1157 160.872 12.9131C160.467 12.8958 160.07 12.885 159.69 12.885L159.688 12.8915Z" fill="#DCE6F4"/>
<path opacity="0.25" d="M105.93 58.4961C105.721 58.7009 105.615 58.9898 105.643 59.2787C105.617 58.9898 105.721 58.7009 105.93 58.4961Z" fill="#DCE6F4"/>
<path opacity="0.25" d="M94.8711 58.4961C94.8991 58.5241 94.925 58.5522 94.9509 58.5845C94.9272 58.5543 94.8991 58.5241 94.8711 58.4961Z" fill="#DCE6F4"/>
<path opacity="0.25" d="M104.093 52.8454C104.062 52.8411 104.032 52.8346 104.002 52.8281C104.032 52.8346 104.062 52.8432 104.093 52.8475V52.8454Z" fill="#DCE6F4"/>
<path opacity="0.25" d="M100.825 47.6237C100.379 47.4037 99.7862 47.5504 99.5317 48.0613L98.0117 51.1423L99.5317 48.0592C99.7862 47.5482 100.377 47.4037 100.823 47.6215L100.825 47.6237Z" fill="#DCE6F4"/>
<path opacity="0.25" d="M106.156 64.9102C105.876 65.1667 105.449 65.2594 105.059 65.0568C105.449 65.2616 105.876 65.1667 106.156 64.9102Z" fill="#DCE6F4"/>
<path opacity="0.25" d="M143.258 64.2422C143.482 64.4017 143.706 64.5548 143.935 64.7079C143.706 64.5548 143.482 64.3996 143.258 64.2422Z" fill="#DCE6F4"/>
<path opacity="0.25" d="M144.852 65.2983C144.852 65.2983 144.852 65.2961 144.852 65.294C144.615 65.1495 144.38 65.0007 144.145 64.8477C144.377 65.0007 144.615 65.1517 144.852 65.2983Z" fill="#DCE6F4"/>
<path d="M20.4604 40.1242H20.5919C24.6625 36.5775 29.9836 34.4301 35.805 34.4301H131.939C132.968 30.0425 135.009 26.0473 137.806 22.699C138.377 22.0112 138.985 21.3515 139.619 20.7241C142.875 17.4878 146.913 15.0428 151.423 13.6781C151.508 13.6543 151.594 13.6242 151.682 13.6004C154.211 12.8631 156.889 12.4642 159.657 12.4599C160.067 12.4599 160.481 12.4685 160.886 12.4879C166.108 12.6992 170.97 14.3184 175.097 16.9768C180.34 20.3575 184.413 25.4005 186.541 31.3728C186.6 31.5367 186.658 31.7027 186.712 31.8665C187.257 33.4771 187.658 35.1588 187.904 36.888C187.988 37.4658 188.051 38.0523 188.098 38.6409C190.569 37.6275 192.794 36.1355 194.652 34.277C198.264 30.6656 200.497 25.6787 200.497 20.1656C200.497 9.14172 191.561 0.207031 180.539 0.207031H20.4604C14.9495 0.207031 9.96036 2.44286 6.34897 6.0521C2.73542 9.66349 0.503906 14.6504 0.503906 20.1635C0.503906 31.1874 9.4386 40.1221 20.4625 40.1221L20.4604 40.1242Z" fill="#EEEEEE"/>
<path opacity="0.25" d="M108.469 56.0197L109.331 55.1788C109.581 54.9352 109.663 54.6118 109.607 54.3164C109.661 54.6118 109.581 54.9352 109.329 55.1788L108.467 56.0197H108.469Z" fill="#DCE6F4"/>
<path opacity="0.25" d="M82.8574 55.18C83.0946 54.9493 83.1787 54.6496 83.1399 54.3672C83.1765 54.6496 83.0946 54.9493 82.8574 55.18Z" fill="#DCE6F4"/>
<path opacity="0.25" d="M103.367 52.3225C103.43 52.4475 103.518 52.5553 103.622 52.6394C103.516 52.5532 103.428 52.4454 103.367 52.3203V52.3225Z" fill="#DCE6F4"/>
<path opacity="0.25" d="M95.7463 65.0539L99.9527 62.8396C99.9872 62.8202 100.024 62.8051 100.061 62.79C100.024 62.803 99.9894 62.8202 99.9527 62.8396L95.7463 65.0539C95.0369 65.4226 94.209 64.8232 94.3448 64.0341L95.1491 59.349C95.1793 59.1678 95.1577 58.9824 95.0887 58.8164C95.1577 58.9824 95.1793 59.1657 95.1491 59.349L94.3448 64.0341C94.209 64.8232 95.0369 65.4226 95.7484 65.0539H95.7463Z" fill="#DCE6F4"/>
<path opacity="0.25" d="M79.4533 58.4969L80.6931 57.2852L79.4512 58.4947L79.4533 58.4969Z" fill="#DCE6F4"/>
<path d="M180.544 159.874H179.427C177.033 161.185 174.287 161.933 171.365 161.933H163.642L162.478 171.137C162.267 172.81 160.218 173.502 159.037 172.301L148.826 161.935H77.7169C68.4416 161.935 60.9234 154.417 60.9234 145.141C60.9234 135.866 68.4416 128.348 77.7169 128.348H107.08C107.725 127.442 108.445 126.593 109.23 125.81C110.476 124.564 111.888 123.482 113.428 122.598H51.9672L41.7561 132.964C41.1395 133.589 40.29 133.699 39.5871 133.425C40.2878 135.463 40.6695 137.647 40.6695 139.922C40.6695 145.435 38.4336 150.422 34.8244 154.033C31.2152 157.644 26.226 159.878 20.713 159.878H20.4564C14.9456 159.878 9.95645 162.114 6.34506 165.723C2.73151 169.334 0.5 174.324 0.5 179.834C0.5 190.858 9.43469 199.793 20.4586 199.793H180.544C186.054 199.793 191.044 197.557 194.655 193.948C198.266 190.337 200.5 185.35 200.5 179.837C200.5 168.817 191.563 159.878 180.541 159.878L180.544 159.874ZM88.9349 182.568H56.303L51.6158 187.325C51.0746 187.877 50.1345 187.56 50.0375 186.792L49.5028 182.568H45.9583C41.7022 182.568 38.2504 179.116 38.2504 174.86C38.2504 170.604 41.7022 167.153 45.9583 167.153H88.9349C91.0629 167.153 92.9905 168.015 94.3854 169.41C95.7804 170.805 96.6428 172.732 96.6428 174.86C96.6428 179.116 93.191 182.568 88.9349 182.568Z" fill="#EEEEEE"/>
<path opacity="0.25" d="M79.175 59.3486C79.1686 59.3098 79.1643 59.2732 79.1621 59.2344C79.1621 59.2732 79.1686 59.3098 79.175 59.3486L79.4726 61.0821L79.175 59.3508V59.3486Z" fill="#DCE6F4"/>
<path d="M180.543 80.0412H170.766C168.92 80.5155 166.984 80.7657 164.992 80.7657H154.339L152.732 93.4627C152.441 95.7696 149.617 96.7248 147.985 95.0668L133.899 80.7657H35.8052C33.813 80.7657 31.8769 80.5134 30.0313 80.0412H20.4584C14.9475 80.0412 9.95841 82.277 6.34702 85.8863C2.73347 89.4977 0.501953 94.4846 0.501953 99.9977C0.501953 111.004 9.40862 119.926 20.4067 119.954C15.7366 116.972 12.6362 111.746 12.6362 105.793C12.6362 96.5178 20.1544 88.9996 29.4297 88.9996H123.078C132.353 88.9996 139.872 96.5178 139.872 105.793C139.872 111.746 136.771 116.972 132.101 119.954H180.541C186.052 119.954 191.041 117.718 194.653 114.109C198.264 110.498 200.498 105.511 200.498 99.9977C200.498 88.9738 191.561 80.0391 180.539 80.0391L180.543 80.0412Z" fill="#EEEEEE"/>
<path opacity="0.25" d="M77.6152 52.8477L79.0663 53.059L77.6174 52.8477H77.6152Z" fill="#DCE6F4"/>
<path opacity="0.25" d="M38.1081 130.121L37.1551 122.59H30.6309C33.7507 124.379 36.3401 126.988 38.1081 130.121Z" fill="#DCE6F4"/>
<path opacity="0.25" d="M67.926 64.5803C68.1351 65.0655 68.7345 65.3328 69.2649 65.0568L73.4735 62.8426C73.508 62.8232 73.5425 62.8081 73.5792 62.793C73.5425 62.8059 73.508 62.8232 73.4714 62.8426L69.2649 65.0568C68.7323 65.3328 68.133 65.0655 67.9238 64.5825L67.926 64.5803Z" fill="#DCE6F4"/>
<path opacity="0.25" d="M70.373 52.8164C70.3256 52.8315 70.276 52.8423 70.2264 52.8487L68.7344 53.0665L70.2285 52.8487C70.2781 52.8423 70.3277 52.8293 70.3751 52.8164H70.373Z" fill="#DCE6F4"/>
<path opacity="0.25" d="M68.6682 59.3525C68.6789 59.2878 68.6811 59.2209 68.679 59.1562C68.679 59.2209 68.679 59.2878 68.666 59.3525H68.6682Z" fill="#DCE6F4"/>
<path opacity="0.25" d="M74.5578 47.7626C74.1848 47.4306 73.5962 47.4435 73.2383 47.8058C73.5962 47.4457 74.1848 47.4306 74.5578 47.7626Z" fill="#DCE6F4"/>
<path opacity="0.25" d="M78.5822 65.0568C79.0673 65.3112 79.6085 65.1064 79.8565 64.6968C79.6085 65.1043 79.0673 65.3091 78.5822 65.0568L74.3736 62.8426C74.3391 62.8232 74.3025 62.8081 74.2637 62.793C74.3003 62.8081 74.337 62.8232 74.3715 62.8426L78.5822 65.0568Z" fill="#DCE6F4"/>
<path opacity="0.25" d="M76.8926 52.3225C76.9379 52.413 76.9961 52.4928 77.0651 52.5639C76.9961 52.4928 76.9379 52.4109 76.8926 52.3203V52.3225Z" fill="#DCE6F4"/>
</svg>
