<svg width="42" height="42" viewBox="0 0 42 42" fill="none" xmlns="http://www.w3.org/2000/svg">
<g clip-path="url(#clip0_499_45944)">
<path d="M33.4422 3.12061H14.1748V11.1106H37.5572V7.23402C37.5572 4.96567 35.7112 3.12061 33.4422 3.12061Z" fill="#B9E2F4"/>
<path d="M22.5352 12.3403H0V4.92636C0 2.20972 2.21068 0 4.92828 0H12.1336C12.8497 0 13.5396 0.150925 14.1664 0.434509C15.0418 0.828964 15.7939 1.47913 16.3213 2.3286L22.5352 12.3403Z" fill="#0077B6"/>
<path d="M42 14.0001V37.8815C42 40.1527 40.1511 42 37.8789 42H4.12111C1.84891 42 0 40.1527 0 37.8815V9.88062H37.8789C40.1511 9.88062 42 11.7286 42 14.0001Z" fill="#0077B6"/>
<path d="M32.048 25.9398C32.048 32.0322 27.0919 36.9887 21.0001 36.9887C14.9083 36.9887 9.95215 32.0322 9.95215 25.9398C9.95215 19.8483 14.9083 14.8918 21.0001 14.8918C27.0919 14.8918 32.048 19.8483 32.048 25.9398Z" fill="#B9E2F4"/>
<path d="M24.5612 26.0753C24.3308 26.2704 24.0485 26.3656 23.7688 26.3656C23.4185 26.3656 23.0705 26.2173 22.827 25.9282L22.2307 25.2213V29.8494C22.2307 30.5287 21.6795 31.0799 21.0002 31.0799C20.3209 31.0799 19.7698 30.5287 19.7698 29.8494V25.2213L19.1734 25.9282C18.7344 26.4476 17.9587 26.514 17.4392 26.0753C16.9201 25.6373 16.8535 24.8612 17.2915 24.3418L19.7271 21.4543C20.0447 21.0788 20.508 20.8628 21.0002 20.8628C21.4924 20.8628 21.9558 21.0788 22.2733 21.4543L24.7089 24.3418C25.147 24.8612 25.0803 25.6373 24.5612 26.0753Z" fill="#0077B6"/>
</g>
<defs>
<clipPath id="clip0_499_45944">
<rect width="42" height="42" fill="white"/>
</clipPath>
</defs>
</svg>
