<svg width="24" height="24" viewBox="0 0 24 24" fill="none" xmlns="http://www.w3.org/2000/svg">
<path d="M20.4697 2.46973C20.7626 2.17683 21.2374 2.17683 21.5303 2.46973C21.8232 2.76262 21.8232 3.23738 21.5303 3.53027L12.5303 12.5303L10.8037 14.2559C11.1606 14.5331 11.5718 14.7942 12.0664 15.0586C12.6278 15.3586 12.7712 15.425 12.9619 15.4531C13.1446 15.48 13.4027 15.4539 13.5762 15.3906C13.7537 15.3258 13.9107 15.2072 14.4863 14.7275C14.5138 14.7047 14.5416 14.6825 14.5684 14.6602C15.0273 14.2771 15.387 13.9768 15.8086 13.8125C16.2096 13.6563 16.6419 13.596 17.0703 13.6367C17.5208 13.6796 17.949 13.8701 18.4951 14.1133C18.5268 14.1274 18.5593 14.1418 18.5918 14.1562L19.498 14.5596C19.5283 14.573 19.5584 14.5856 19.5879 14.5986C20.0925 14.8224 20.4874 14.9983 20.8008 15.2705C21.1908 15.6094 21.4777 16.0509 21.6289 16.5449C21.7503 16.9418 21.7504 17.3738 21.75 17.9258V18.0518C21.75 18.5019 21.7498 18.8835 21.7246 19.2002C21.698 19.5348 21.6401 19.8481 21.499 20.1562C21.199 20.8113 20.5754 21.3786 19.8945 21.6143C19.3231 21.812 18.7405 21.7549 18.0098 21.6836C17.9697 21.6797 17.9287 21.6758 17.8877 21.6719C13.553 21.2535 10.0552 19.9134 7.46484 17.5947L3.53027 21.5303C3.23738 21.8232 2.76262 21.8232 2.46973 21.5303C2.17683 21.2374 2.17683 20.7626 2.46973 20.4697L20.4697 2.46973ZM16.9287 15.1299C16.7334 15.1113 16.5363 15.1388 16.3535 15.21C16.1897 15.2738 16.027 15.3967 15.4473 15.8799C15.4209 15.9018 15.3948 15.9239 15.3691 15.9453C14.9088 16.3296 14.544 16.6333 14.0908 16.7988C13.683 16.9478 13.1728 17.0007 12.7432 16.9375C12.2665 16.8673 11.8927 16.6673 11.4287 16.4189C11.4059 16.4067 11.3827 16.3943 11.3594 16.3818C10.7437 16.0528 10.2113 15.7108 9.73633 15.3232L8.52832 16.5312C10.8175 18.5516 13.9623 19.786 18.0322 20.1787C18.9441 20.2667 19.1798 20.274 19.4043 20.1963C19.6979 20.0945 20.0063 19.8147 20.1357 19.5322C20.1768 19.4425 20.2105 19.3199 20.2295 19.0811C20.2494 18.8307 20.25 18.5093 20.25 18.0234C20.25 17.3267 20.2425 17.1375 20.1953 16.9834C20.1263 16.7582 19.9952 16.5568 19.8174 16.4023C19.6957 16.2967 19.5257 16.2128 18.8887 15.9297L17.9834 15.5273C17.294 15.2209 17.1037 15.1466 16.9287 15.1299ZM6.07422 2.25C6.62617 2.24959 7.05822 2.24966 7.45508 2.37109C7.94913 2.5223 8.39064 2.80918 8.72949 3.19922C9.00165 3.51257 9.17755 3.90753 9.40137 4.41211C9.41444 4.44157 9.427 4.47174 9.44043 4.50195L9.84375 5.4082C9.85819 5.44068 9.87262 5.47322 9.88672 5.50488C10.1299 6.05095 10.3204 6.47923 10.3633 6.92969C10.404 7.35812 10.3437 7.79037 10.1875 8.19141C10.0232 8.613 9.72291 8.97271 9.33984 9.43164C9.31752 9.45839 9.29534 9.48622 9.27246 9.51367C8.79277 10.0893 8.67422 10.2463 8.60938 10.4238C8.54606 10.5973 8.52003 10.8554 8.54688 11.0381C8.56632 11.1701 8.60838 11.2937 8.75195 11.5742C8.9406 11.9429 8.7945 12.3953 8.42578 12.584C8.05707 12.7726 7.6047 12.6265 7.41602 12.2578C7.24859 11.9306 7.11792 11.6329 7.0625 11.2568C6.99925 10.8272 7.05217 10.317 7.20117 9.90918C7.36672 9.45602 7.6704 9.09123 8.05469 8.63086C8.07613 8.60517 8.09819 8.57905 8.12012 8.55273C8.60326 7.97295 8.72623 7.81034 8.79004 7.64648C8.86117 7.46369 8.88869 7.26656 8.87012 7.07129C8.85341 6.8963 8.7791 6.7061 8.47266 6.0166L8.07031 5.11133C7.7872 4.47433 7.70333 4.30428 7.59766 4.18262C7.44312 4.00472 7.24096 3.87364 7.01562 3.80469C6.86166 3.7577 6.67241 3.75 5.97656 3.75C5.49073 3.75 5.16925 3.75063 4.91895 3.77051C4.68008 3.78948 4.5575 3.82316 4.46777 3.86426C4.18529 3.99367 3.90553 4.30208 3.80371 4.5957C3.72599 4.8202 3.73329 5.05586 3.82129 5.96777C4.13219 9.18961 4.97037 11.8316 6.30469 13.9248C6.52719 14.2741 6.42442 14.7373 6.0752 14.96C5.72592 15.1825 5.26267 15.0797 5.04004 14.7305C3.54935 12.3919 2.65591 9.50865 2.32812 6.1123C2.32417 6.07132 2.32031 6.0303 2.31641 5.99023C2.24514 5.25948 2.18796 4.67691 2.38574 4.10547C2.62145 3.42461 3.18868 2.80099 3.84375 2.50098C4.15189 2.35989 4.46519 2.30199 4.7998 2.27539C5.11654 2.25023 5.49816 2.24999 5.94824 2.25H6.07422Z" fill="#EEEEEE"/>
</svg>
