<svg width="24" height="24" viewBox="0 0 24 24" fill="none" xmlns="http://www.w3.org/2000/svg">
<path d="M17.5502 18.1135C16.4191 17.2553 15.1258 16.6353 13.7484 16.2909C13.3375 16.1725 12.9811 15.9137 12.7412 15.5597C12.5013 15.2057 12.393 14.7788 12.4351 14.3532C12.6691 14.2839 12.8744 14.1406 13.0203 13.9449C13.1661 13.7492 13.2447 13.5115 13.2442 13.2674V12.7876C13.7815 12.7278 14.313 12.6242 14.8334 12.4779C14.9852 12.4336 15.126 12.3582 15.2469 12.2565C15.3679 12.1548 15.4663 12.029 15.5358 11.8871C15.6054 11.7452 15.6446 11.5903 15.6509 11.4324C15.6573 11.2745 15.6306 11.117 15.5726 10.97L16.9043 9.68774C16.9785 9.61728 17.0376 9.5325 17.0781 9.43852C17.1185 9.34455 17.1394 9.24333 17.1396 9.14102V4.11321C17.1509 3.70642 16.8183 3.47057 16.5008 3.28966C16.6052 3.1066 16.6351 2.89043 16.5845 2.6859C16.5338 2.48137 16.4065 2.30415 16.2288 2.19093L15.4171 1.67733C15.2264 1.56068 15.0057 1.5024 14.7823 1.50968C14.5589 1.51696 14.3424 1.58947 14.1597 1.71829C13.977 1.8471 13.836 2.02657 13.7541 2.23457C13.6722 2.44258 13.6529 2.67001 13.6987 2.88882C13.778 3.45202 14.467 3.75645 14.8851 4.03343C15.0591 4.14099 15.2663 4.18139 15.468 4.14706C15.6697 4.11273 15.8519 4.00602 15.9805 3.84693L16.3902 4.11321L16.3869 9.14579L15.0788 10.4054C14.7405 10.1752 13.5778 10.1735 13.6796 10.7967C13.7388 11.0979 14.0681 11.141 14.3135 11.0391C14.8606 10.8407 15.167 11.5443 14.6304 11.7564C14.0457 11.9207 13.4461 12.0268 12.8406 12.0731C12.7465 12.0804 12.6586 12.123 12.5945 12.1922C12.5304 12.2615 12.4948 12.3524 12.4947 12.4467V13.2674C12.4933 13.3693 12.4518 13.4665 12.3793 13.5381C12.3067 13.6096 12.2089 13.6497 12.107 13.6497C12.0051 13.6497 11.9073 13.6096 11.8348 13.5381C11.7622 13.4665 11.7207 13.3693 11.7193 13.2674V12.4467C11.7193 12.3524 11.6837 12.2615 11.6196 12.1922C11.5555 12.1229 11.4676 12.0804 11.3735 12.0731C10.7678 12.0265 10.1682 11.9204 9.58332 11.7562C9.53292 11.74 9.48634 11.7138 9.44642 11.679C9.4065 11.6442 9.37408 11.6017 9.35114 11.554C9.3282 11.5063 9.31522 11.4544 9.31299 11.4015C9.31075 11.3486 9.31932 11.2958 9.33815 11.2463C9.35699 11.1968 9.38571 11.1517 9.42255 11.1137C9.4594 11.0757 9.5036 11.0456 9.55246 11.0252C9.60132 11.0048 9.65383 10.9946 9.70676 10.9952C9.7597 10.9958 9.81196 11.0071 9.86037 11.0286C10.7416 11.2675 11.655 11.3653 12.5668 11.3184C12.616 11.3159 12.6642 11.3037 12.7087 11.2826C12.7531 11.2614 12.793 11.2317 12.826 11.1952C12.859 11.1586 12.8844 11.1159 12.9009 11.0695C12.9174 11.0231 12.9245 10.974 12.922 10.9248C12.9194 10.8756 12.9072 10.8274 12.886 10.783C12.8649 10.7385 12.8351 10.6987 12.7985 10.6658C12.7619 10.6328 12.7192 10.6074 12.6728 10.591C12.6264 10.5746 12.5772 10.5674 12.528 10.57C11.6963 10.6122 10.8631 10.5231 10.059 10.306C9.75004 10.2172 9.41862 10.2522 9.13495 10.4035L7.82828 9.14103L7.83194 4.10772L8.23646 3.84669C8.36495 4.00584 8.5471 4.11263 8.74872 4.14701C8.95035 4.1814 9.1576 4.14101 9.33156 4.03344C9.74839 3.76119 10.4393 3.4486 10.5183 2.88878C10.5648 2.6699 10.546 2.44219 10.4643 2.23387C10.3826 2.02555 10.2416 1.84577 10.0588 1.71682C9.87591 1.58786 9.65923 1.51538 9.43558 1.50837C9.21193 1.50137 8.99114 1.56013 8.80056 1.67739L7.98856 2.19093C7.81058 2.30409 7.68301 2.48145 7.63234 2.68618C7.58167 2.89092 7.61179 3.1073 7.71645 3.29041C7.40001 3.47585 7.0638 3.69819 7.07886 4.11325L7.07884 9.14105C7.07889 9.24279 7.09954 9.34347 7.13954 9.43702C7.17953 9.53057 7.23805 9.61505 7.31157 9.68538L8.64162 10.9692C8.5836 11.1162 8.55687 11.2737 8.56315 11.4317C8.56942 11.5896 8.60856 11.7445 8.67807 11.8864C8.74758 12.0284 8.84592 12.1543 8.96683 12.2561C9.08773 12.3579 9.22854 12.4333 9.38025 12.4777C9.9008 12.6241 10.4324 12.7277 10.9699 12.7874V13.2674C10.9703 13.4942 11.0387 13.7156 11.1663 13.9032C11.2939 14.0907 11.4748 14.2356 11.6856 14.3192V14.5527C11.6827 15.1093 11.8628 15.6513 12.1981 16.0956C12.5333 16.5398 13.0053 16.8615 13.5413 17.0113C14.8173 17.3311 16.017 17.9015 17.0705 18.6893C17.2694 18.8549 17.423 19.0685 17.5168 19.3098C17.6105 19.5511 17.6414 19.8123 17.6064 20.0689C17.5714 20.3254 17.4717 20.5688 17.3168 20.7762C17.1618 20.9836 16.9567 21.1482 16.7206 21.2545C15.666 21.7196 13.586 22.0827 9.66311 21.1684C7.9133 20.8323 5.82732 19.001 6.52683 17.2385C6.72221 17.2967 6.93048 17.2956 7.12519 17.2352C7.31991 17.1748 7.49228 17.0579 7.62042 16.8993C7.97486 16.9508 8.33653 16.8897 8.65438 16.7246C8.97223 16.5595 9.23021 16.2988 9.39193 15.9792C9.55365 15.6597 9.61094 15.2974 9.55571 14.9435C9.50049 14.5896 9.33553 14.262 9.08412 14.0069C8.83668 13.7561 8.3384 13.4038 8.10528 13.8459C8.06293 13.9358 8.05799 14.0388 8.09155 14.1323C8.1251 14.2258 8.19441 14.3021 8.28424 14.3445C8.5041 14.4465 8.67713 14.628 8.76846 14.8524C8.85978 15.0769 8.86261 15.3277 8.77638 15.5542C8.69014 15.7806 8.52124 15.966 8.30374 16.0729C8.08624 16.1798 7.83631 16.2002 7.60433 16.1301C7.53994 16.1113 7.47168 16.1102 7.40672 16.1269C7.34175 16.1436 7.28247 16.1774 7.23509 16.2249L6.99833 16.4613C6.94893 16.5083 6.88311 16.5341 6.81494 16.5332C6.74677 16.5323 6.68165 16.5048 6.63349 16.4565C6.58534 16.4083 6.55796 16.3431 6.55721 16.2749C6.55646 16.2067 6.5824 16.141 6.62948 16.0917C6.78518 15.9305 7.04988 15.7437 6.9606 15.4866C6.90949 15.3174 6.90637 15.1373 6.9516 14.9664C6.99684 14.7955 7.08864 14.6405 7.21678 14.5187C7.28092 14.4456 7.31416 14.3504 7.30948 14.2533C7.30479 14.1561 7.26255 14.0646 7.19167 13.998C7.12079 13.9314 7.02681 13.8949 6.92956 13.8963C6.83231 13.8976 6.73939 13.9367 6.67041 14.0053C6.48069 14.1944 6.33839 14.4257 6.25514 14.6802C6.17189 14.9348 6.15005 15.2055 6.19141 15.4701L6.09956 15.5618C5.94706 15.7165 5.84856 15.9163 5.8187 16.1315C5.78885 16.3467 5.82923 16.5657 5.93385 16.7561C5.40591 17.7909 5.57107 18.9116 6.43622 20.0144C7.2096 20.9745 8.28938 21.6398 9.49474 21.8988C12.2216 22.4957 14.7406 22.858 17.0251 21.9395C17.3766 21.7805 17.6821 21.5349 17.9129 21.2257C18.1437 20.9165 18.2923 20.5538 18.3447 20.1716C18.3972 19.7893 18.3518 19.4 18.2129 19.0401C18.0739 18.6801 17.8459 18.3613 17.5502 18.1135ZM15.2858 3.39999L14.6011 2.96709C14.5157 2.91129 14.4556 2.8241 14.434 2.72439C14.4123 2.62468 14.4307 2.52044 14.4853 2.43422C14.5399 2.348 14.6262 2.28671 14.7256 2.26361C14.825 2.24052 14.9294 2.25746 15.0164 2.31078L15.8281 2.82437C15.8377 2.82992 15.8458 2.83766 15.8518 2.84695C15.8578 2.85624 15.8615 2.86682 15.8627 2.87783C15.8638 2.88884 15.8624 2.89996 15.8584 2.91029C15.8544 2.92062 15.848 2.92986 15.8398 2.93726L15.375 3.39066C15.3634 3.40213 15.3483 3.40931 15.332 3.41101C15.3158 3.4127 15.2995 3.40882 15.2858 3.39999ZM8.38889 2.82437C8.54492 2.74787 9.25322 2.21547 9.40766 2.25056C9.49105 2.25201 9.57179 2.2801 9.63807 2.33073C9.70434 2.38137 9.75267 2.45189 9.77598 2.53197C9.79929 2.61205 9.79636 2.69749 9.76762 2.77578C9.73887 2.85408 9.68582 2.92112 9.61623 2.96709L8.93085 3.39999C8.91718 3.40858 8.90102 3.41233 8.88496 3.41063C8.86891 3.40894 8.85388 3.40191 8.8423 3.39066L8.37719 2.93726C8.36896 2.92987 8.36259 2.92063 8.35861 2.9103C8.35463 2.89997 8.35315 2.88884 8.3543 2.87784C8.35544 2.86683 8.35917 2.85624 8.36518 2.84695C8.3712 2.83766 8.37931 2.82992 8.38889 2.82437Z" fill="#121212"/>
<path d="M8.14601 15.4897C8.21522 15.4177 8.25343 15.3214 8.25243 15.2215C8.25144 15.1216 8.21132 15.0261 8.14069 14.9555C8.07006 14.8849 7.97455 14.8448 7.87467 14.8438C7.77479 14.8428 7.67851 14.881 7.60651 14.9502C7.5373 15.0222 7.49909 15.1185 7.50008 15.2184C7.50107 15.3183 7.5412 15.4138 7.61183 15.4844C7.68246 15.555 7.77796 15.5951 7.87784 15.5961C7.97772 15.5971 8.074 15.5589 8.14601 15.4897Z" fill="#121212"/>
</svg>
