<svg width="22" height="22" viewBox="0 0 22 22" fill="none" xmlns="http://www.w3.org/2000/svg">
<path d="M11 0.25C16.9047 0.25 21.7498 4.83822 21.75 10.5664C21.75 16.2947 16.9048 20.8838 11 20.8838C10.3041 20.8847 9.61013 20.8197 8.92676 20.6914C8.68971 20.6468 8.53885 20.6188 8.42676 20.6035C8.37851 20.5969 8.34848 20.5948 8.33203 20.5938C8.31506 20.6003 8.28172 20.6129 8.22754 20.6387C8.11307 20.693 7.96086 20.7744 7.72754 20.8984C6.29582 21.6598 4.62475 21.9296 3.01367 21.6299C2.75368 21.5814 2.53849 21.3996 2.44727 21.1514C2.35612 20.903 2.40246 20.6252 2.56934 20.4199C3.03709 19.8445 3.35873 19.1513 3.50098 18.4053C3.53946 18.2001 3.4523 17.9213 3.18457 17.6494C1.36978 15.8065 0.25 13.3141 0.25 10.5664C0.250166 4.83822 5.09533 0.25 11 0.25ZM8.33008 20.5908C8.32678 20.5913 8.3235 20.5916 8.32129 20.5918C8.31773 20.5923 8.31543 20.5928 8.31543 20.5928C8.31543 20.5928 8.32081 20.5931 8.33203 20.5938L8.34668 20.5879C8.34668 20.5879 8.34027 20.5892 8.33008 20.5908ZM11 1.75C5.86043 1.75 1.75017 5.72859 1.75 10.5664C1.75 12.8954 2.69678 15.0163 4.25293 16.5967C4.72713 17.0781 5.13579 17.8291 4.97461 18.6836V18.6855C4.87072 19.2308 4.69345 19.7564 4.4502 20.248C5.34393 20.2269 6.229 19.9961 7.02246 19.5742L7.03809 19.5664C7.25196 19.4527 7.43497 19.355 7.58398 19.2842C7.72817 19.2157 7.90863 19.1382 8.10352 19.1084C8.29319 19.0794 8.47748 19.0961 8.63086 19.1172C8.78417 19.1382 8.97197 19.1736 9.18652 19.2139L9.2041 19.2178C9.79597 19.3289 10.3967 19.3846 10.999 19.3838C16.1387 19.3838 20.25 15.4044 20.25 10.5664C20.2498 5.72859 16.1396 1.75 11 1.75ZM7.00879 10C7.56108 10 8.00879 10.4477 8.00879 11C8.00879 11.5523 7.56108 12 7.00879 12H7C6.44772 12 6 11.5523 6 11C6 10.4477 6.44772 10 7 10H7.00879ZM11.0049 10C11.5572 10 12.0049 10.4477 12.0049 11C12.0049 11.5523 11.5572 12 11.0049 12H10.9961C10.4438 12 9.99609 11.5523 9.99609 11C9.99609 10.4477 10.4438 10 10.9961 10H11.0049ZM14.999 10C15.5513 10 15.999 10.4477 15.999 11C15.999 11.5523 15.5513 12 14.999 12H14.9902C14.4379 12 13.9902 11.5523 13.9902 11C13.9902 10.4477 14.4379 10 14.9902 10H14.999Z" fill="#121212"/>
</svg>
