<svg width="24" height="25" viewBox="0 0 24 25" fill="none" xmlns="http://www.w3.org/2000/svg">
<path fill-rule="evenodd" clip-rule="evenodd" d="M18.51 17.6033C18.51 17.5353 18.4852 17.4842 18.4317 17.442L16.8731 16.213C16.8347 16.183 16.792 16.1675 16.748 16.1675C16.7175 16.1675 16.6866 16.175 16.6561 16.1895C16.5816 16.2256 16.5403 16.2912 16.5403 16.3742V18.8319C16.5403 18.9148 16.5816 18.9805 16.6561 19.0166C16.7311 19.0527 16.808 19.0447 16.8731 18.9931L18.4317 17.7641C18.4852 17.7223 18.51 17.6712 18.51 17.6033ZM15.9778 18.297V16.9095L15.0947 16.213C15.0295 16.1619 14.9522 16.1534 14.8777 16.1895C14.8031 16.2256 14.7619 16.2912 14.7619 16.3742V18.8319C14.7619 18.9148 14.8031 18.9805 14.8777 19.0166C14.9527 19.0527 15.0295 19.0447 15.0947 18.9931L15.9778 18.297ZM18.78 18.2061L17.2214 19.4352C17.0822 19.5448 16.9158 19.6006 16.747 19.6006C16.6331 19.6006 16.5183 19.5748 16.4109 19.5228C16.1953 19.4183 16.0458 19.2256 15.9961 18.9988L15.443 19.4352C15.3038 19.5448 15.1373 19.6006 14.9686 19.6006C14.8547 19.6006 14.7398 19.5748 14.6325 19.5228C14.3653 19.3934 14.1994 19.1286 14.1994 18.8319V16.3742C14.1994 16.0775 14.3653 15.8131 14.6325 15.6833C14.8992 15.5539 15.21 15.5877 15.443 15.7714L15.9961 16.2073C16.0458 15.9805 16.1953 15.7878 16.4109 15.6833C16.6777 15.5539 16.9884 15.5877 17.2214 15.7714L18.78 17.0005C18.9689 17.1495 19.0725 17.3633 19.0725 17.6038C19.0725 17.8433 18.9689 18.0575 18.78 18.2061ZM13.7442 14.6047C13.6345 14.495 13.4564 14.495 13.3463 14.6047C13.2366 14.7144 13.2366 14.8925 13.3463 15.0022L13.5539 15.2098C13.6088 15.2647 13.6809 15.2923 13.7527 15.2923C13.8248 15.2923 13.8966 15.2647 13.9514 15.2098C14.0616 15.1002 14.0616 14.922 13.9514 14.8123L13.7442 14.6047ZM12.6928 17.2883H12.3998C12.2442 17.2883 12.1186 17.4144 12.1186 17.5695C12.1186 17.7247 12.2442 17.8508 12.3998 17.8508H12.6928C12.8484 17.8508 12.9741 17.7247 12.9741 17.5695C12.9741 17.4139 12.8489 17.2883 12.6928 17.2883ZM13.5539 19.9288L13.3463 20.1359C13.2366 20.2456 13.2366 20.4237 13.3463 20.5334C13.4011 20.5883 13.4733 20.6159 13.5455 20.6159C13.6172 20.6159 13.6894 20.5888 13.7442 20.5334L13.9514 20.3263C14.0616 20.2166 14.0616 20.0384 13.9514 19.9288C13.8417 19.8191 13.6636 19.8191 13.5539 19.9288ZM16.3111 20.9061C16.1555 20.9061 16.0298 21.0322 16.0298 21.1873V21.4808C16.0298 21.6359 16.1555 21.762 16.3111 21.762C16.4663 21.762 16.5923 21.6359 16.5923 21.4808V21.1873C16.5923 21.0317 16.4663 20.9061 16.3111 20.9061ZM19.0683 19.9288C18.9581 19.8191 18.7805 19.8191 18.6703 19.9288C18.5606 20.0384 18.5606 20.2166 18.6703 20.3263L18.878 20.5334C18.9328 20.5883 19.0045 20.6159 19.0767 20.6159C19.1489 20.6159 19.2206 20.5888 19.2755 20.5334C19.3856 20.4237 19.3856 20.2456 19.2755 20.1359L19.0683 19.9288ZM20.2223 17.2883H19.9289C19.7738 17.2883 19.6477 17.4144 19.6477 17.5695C19.6477 17.7247 19.7738 17.8508 19.9289 17.8508H20.2223C20.3775 17.8508 20.5036 17.7247 20.5036 17.5695C20.5041 17.4139 20.3775 17.2883 20.2223 17.2883ZM18.8784 14.6047L18.6708 14.8123C18.5611 14.922 18.5611 15.1002 18.6708 15.2098C18.7256 15.2647 18.7978 15.2923 18.8695 15.2923C18.9417 15.2923 19.0139 15.2647 19.0688 15.2098L19.2759 15.0027C19.3861 14.893 19.3861 14.7148 19.2759 14.6047C19.1658 14.495 18.9877 14.495 18.8784 14.6047ZM16.3111 14.2325C16.4663 14.2325 16.5923 14.1064 16.5923 13.9513V13.6578C16.5923 13.5027 16.4663 13.3766 16.3111 13.3766C16.1559 13.3766 16.0298 13.5027 16.0298 13.6578V13.9513C16.0298 14.1064 16.1559 14.2325 16.3111 14.2325ZM20.7347 17.5695C20.7347 20.0089 18.7505 21.9931 16.3111 21.9931C13.8717 21.9931 11.8875 20.0084 11.8875 17.5695C11.8875 15.1302 13.8717 13.1459 16.3111 13.1459C18.7505 13.1459 20.7347 15.1302 20.7347 17.5695ZM21.2972 17.5695C21.2972 20.3188 19.0603 22.5556 16.3111 22.5556C13.5614 22.5556 11.325 20.3188 11.325 17.5695C11.325 14.8198 13.5614 12.5834 16.3111 12.5834C19.0603 12.583 21.2972 14.8198 21.2972 17.5695ZM21.8822 17.5695C21.8822 20.6413 19.3828 23.1406 16.3111 23.1406C13.2389 23.1406 10.7395 20.6413 10.7395 17.5695C10.7395 14.4973 13.2389 11.9984 16.3111 11.9984C19.3828 11.998 21.8822 14.4973 21.8822 17.5695ZM11.3883 21.2244H4.74422V16.4295C4.74422 16.2744 4.61813 16.1483 4.46297 16.1483C4.30734 16.1483 4.18172 16.2744 4.18172 16.4295V21.2244H2.80172C2.64281 21.2244 2.5125 21.1686 2.40328 21.0533C2.29359 20.938 2.24438 20.8048 2.25281 20.6464L2.58328 14.203C2.59969 13.8819 2.75063 13.6198 3.02016 13.4441C3.41438 13.1872 4.01625 13.0386 4.65375 12.8811C4.89328 12.822 5.13422 12.7625 5.37141 12.6959L6.02719 14.307C6.09422 14.472 6.23953 14.5855 6.41625 14.6098C6.43969 14.6131 6.46406 14.615 6.48703 14.615C6.6375 14.615 6.77813 14.547 6.87328 14.4261L7.60547 13.4947H9.03L9.76219 14.4261C9.85734 14.547 9.99797 14.615 10.1484 14.615C10.1719 14.615 10.1953 14.6131 10.2192 14.6098C10.3955 14.585 10.5408 14.472 10.6078 14.307L11.2641 12.6959C11.5013 12.7625 11.7422 12.822 11.9817 12.8811C12.0816 12.9059 12.1791 12.9298 12.2752 12.9542C10.9903 14.0792 10.177 15.7311 10.177 17.5691C10.177 18.9378 10.628 20.2025 11.3883 21.2244ZM5.90953 12.5258L6.50391 13.9855L7.19859 13.1014C7.23141 13.0602 7.2375 13.0161 7.21734 12.9669L6.84188 12.0608C6.56484 12.2567 6.2475 12.4048 5.90953 12.5258ZM7.23797 11.0225V11.547L7.73672 12.7522C7.76156 12.8113 7.7775 12.8717 7.78547 12.9322H8.85C8.85797 12.8717 8.87391 12.8108 8.89828 12.7522L9.3975 11.547V11.0225C9.05906 11.1406 8.69578 11.2053 8.3175 11.2053C7.93922 11.2053 7.57641 11.1406 7.23797 11.0225ZM8.3175 10.6428C9.82125 10.6428 11.0442 9.41984 11.0442 7.91609V5.31359H10.9973C10.2206 5.31359 9.47156 4.99672 8.92453 4.44969C8.39578 5.22312 7.50703 5.70453 6.56156 5.70453H6.02813C5.88141 5.70453 5.73516 5.69328 5.59125 5.67078V7.91563C5.59125 9.41984 6.81422 10.6428 8.3175 10.6428ZM5.38875 5.05109C5.30344 5.02625 5.21203 5.04266 5.14125 5.09609C5.07 5.14906 5.02875 5.2325 5.02875 5.32109V5.33469C4.87781 5.34359 4.73297 5.37359 4.59703 5.42281V4.50547C4.59703 2.94312 5.86781 1.67188 7.43063 1.67188H8.32922C8.84672 1.67188 9.32672 1.97562 9.55219 2.44531C9.58828 2.52031 9.65531 2.57563 9.73547 2.59625C9.81563 2.61688 9.90141 2.60141 9.96891 2.55312C10.1916 2.39469 10.4536 2.31078 10.7259 2.31078C11.4497 2.31078 12.0384 2.89953 12.0384 3.62328V5.42281C11.9025 5.37406 11.7577 5.34359 11.6067 5.33469V5.03234C11.6067 4.87719 11.4811 4.75109 11.3255 4.75109H10.9973C10.2595 4.75109 9.55172 4.39578 9.10406 3.80094C9.045 3.72266 8.94984 3.68047 8.85234 3.68984C8.75484 3.69922 8.66953 3.75828 8.62641 3.84641C8.24203 4.63344 7.43156 5.14203 6.56156 5.14203H6.02813C5.81109 5.1425 5.59594 5.11203 5.38875 5.05109ZM5.02875 7.87297V5.89906C4.52438 5.94547 4.12828 6.37016 4.12828 6.88578C4.12828 7.40188 4.52438 7.82656 5.02875 7.87297ZM12.5072 6.88578C12.5072 6.37016 12.1111 5.945 11.6067 5.89906V7.87297C12.1111 7.82656 12.5072 7.40188 12.5072 6.88578ZM9.79359 12.0613L9.41813 12.9673C9.39797 13.0161 9.40406 13.0602 9.43641 13.1019L10.1316 13.9859L10.7259 12.5262C10.388 12.4048 10.0702 12.2567 9.79359 12.0613ZM15.862 11.4519C16.0102 11.4411 16.1602 11.4355 16.3111 11.4355C16.462 11.4355 16.6116 11.4411 16.7602 11.4519V11.2386H15.862V11.4519ZM15.2278 10.6766H17.3944C17.3986 10.6766 17.4028 10.6719 17.4028 10.6677V10.0367C17.4028 10.0325 17.3986 10.0278 17.3944 10.0278H15.2278C15.2236 10.0278 15.2189 10.0325 15.2189 10.0367V10.6677C15.2189 10.6719 15.2236 10.6766 15.2278 10.6766ZM22.4447 17.5695C22.4447 20.9516 19.6931 23.7031 16.3111 23.7031C14.5608 23.7031 12.9797 22.9662 11.8612 21.7869H2.80172C2.48906 21.7869 2.21016 21.6673 1.995 21.4409C1.78031 21.2145 1.67484 20.93 1.69078 20.6178L2.02172 14.1744C2.0475 13.6737 2.29266 13.2472 2.71266 12.9734C3.18703 12.6641 3.83391 12.5047 4.51922 12.3355C5.32313 12.1367 6.15328 11.9319 6.67547 11.4805V10.7642C5.83594 10.2781 5.22984 9.4325 5.07047 8.43875C4.23656 8.4125 3.56578 7.72625 3.56578 6.88578C3.56578 6.45078 3.74531 6.0575 4.03453 5.77531V4.50547C4.03453 2.63281 5.55797 1.10938 7.43063 1.10938H8.32922C8.95969 1.10938 9.54984 1.42672 9.90563 1.93813C10.1597 1.81344 10.4386 1.74828 10.7259 1.74828C11.76 1.74828 12.6009 2.58969 12.6009 3.62328V5.77531C12.8897 6.0575 13.0697 6.45125 13.0697 6.88578C13.0697 7.72625 12.3989 8.4125 11.565 8.43875C11.4056 9.4325 10.7995 10.2781 9.96 10.7642V11.48C10.4817 11.9314 11.3123 12.1363 12.1163 12.335C12.3544 12.3941 12.5991 12.4545 12.8311 12.5211C13.5567 12.0195 14.3948 11.6703 15.2995 11.5194V11.2386H15.2278C14.9128 11.2386 14.6564 10.9822 14.6564 10.6672V10.0363C14.6564 9.72125 14.9128 9.46484 15.2278 9.46484H17.3944C17.7094 9.46484 17.9653 9.72125 17.9653 10.0363V10.6672C17.9653 10.9822 17.7094 11.2386 17.3944 11.2386H17.3227V11.5194C20.2252 12.0031 22.4447 14.5316 22.4447 17.5695ZM8.3175 9.53047C7.80609 9.53047 7.32562 9.26703 7.03172 8.82641C6.94547 8.69703 6.98063 8.52266 7.10953 8.43641C7.23891 8.35016 7.41328 8.38531 7.49953 8.51469C7.68891 8.79828 7.99453 8.96797 8.3175 8.96797C8.64047 8.96797 8.94656 8.79828 9.13547 8.51469C9.22172 8.38531 9.39656 8.35016 9.52594 8.43641C9.65484 8.52266 9.69 8.6975 9.60375 8.82641C9.31031 9.26703 8.82938 9.53047 8.3175 9.53047Z" fill="#121212"/>
</svg>
