<svg width="18" height="22" viewBox="0 0 18 22" fill="none" xmlns="http://www.w3.org/2000/svg">
<path d="M0.999756 12.25C0.585766 12.2503 0.249756 12.5859 0.249756 13C0.249756 13.4141 0.585766 13.7497 0.999756 13.75H3.39526C3.57696 13.75 3.75526 13.7915 3.91577 13.8691L5.95776 14.8564C6.32333 15.0333 6.72511 15.125 7.13159 15.125H8.17456C8.601 15.1251 8.95164 15.3534 9.12769 15.6719L7.19312 16.207C6.91214 16.2847 6.61157 16.2563 6.35229 16.1309L4.1687 15.0752C3.79588 14.895 3.34712 15.051 3.16675 15.4238C2.98664 15.7966 3.14271 16.2454 3.51538 16.4258L5.69897 17.4814C6.2874 17.7661 6.96223 17.8265 7.59253 17.6523L10.1335 16.9502C10.4836 16.8534 10.7498 16.5327 10.7498 16.1416C10.7498 16.1125 10.7468 16.0836 10.7458 16.0547L14.8132 14.8057L14.8162 14.8047C15.3135 14.6499 15.8624 14.8288 16.1892 15.2812C16.3052 15.4419 16.2446 15.6626 16.1033 15.7441L8.58765 20.0811C8.28669 20.2546 7.93514 20.2953 7.60815 20.1982L1.21362 18.3008C0.816523 18.1829 0.398838 18.4095 0.281006 18.8066C0.163206 19.2037 0.389782 19.6214 0.786865 19.7393L7.1814 21.6367C7.90585 21.8517 8.68266 21.7578 9.33765 21.3799L16.8533 17.0439C17.7864 16.5055 18.0265 15.2639 17.405 14.4033C16.7121 13.4438 15.5013 13.0206 14.3708 13.3721L14.3699 13.373L10.241 14.6416C9.76753 14.0215 9.01166 13.6251 8.17456 13.625H7.13159C6.94995 13.625 6.77156 13.5844 6.61108 13.5068L4.56909 12.5186C4.20354 12.3417 3.80173 12.25 3.39526 12.25H0.999756ZM10.9998 0.25C8.92891 0.250264 7.24976 1.9291 7.24976 4L7.25073 8C7.25073 10.0711 8.92966 11.75 11.0007 11.75C13.0716 11.7497 14.7507 10.0709 14.7507 8L14.7507 4C14.7507 1.92893 13.0708 0.25 10.9998 0.25ZM13.2507 8C13.2507 9.24248 12.2431 10.2497 11.0007 10.25C9.75809 10.25 8.74976 9.24264 8.74976 8L8.74976 6.75L13.2507 6.75V8ZM10.9998 1.75C12.2424 1.75 13.2507 2.75736 13.2507 4V5.25L8.74976 5.25V4C8.74976 2.75752 9.75734 1.75026 10.9998 1.75Z" fill="#3563AD"/>
</svg>
