<svg width="24" height="24" viewBox="0 0 24 24" fill="none" xmlns="http://www.w3.org/2000/svg">
<path d="M16.9998 19.25C17.414 19.25 17.7498 19.5858 17.7498 20C17.7496 20.4141 17.4139 20.75 16.9998 20.75H10.9998C10.5858 20.7499 10.25 20.414 10.2498 20C10.2498 19.5858 10.5857 19.2501 10.9998 19.25H16.9998ZM16.0858 4.0498C17.1528 2.98293 18.883 2.9828 19.95 4.0498C21.0169 5.11681 21.0169 6.84701 19.95 7.91406L10.3143 17.5498C10.2872 17.5769 10.2597 17.6033 10.2332 17.6299C9.26506 18.5983 8.67358 19.1905 7.94513 19.5977C7.53869 19.8248 6.92169 20.0237 6.29084 20.1992C5.64187 20.3798 4.89521 20.5578 4.18244 20.7275L4.17365 20.7295C3.92036 20.7898 3.65368 20.7143 3.46955 20.5303C3.28544 20.3462 3.21011 20.0795 3.27033 19.8262L3.27228 19.8174C3.44197 19.1047 3.62003 18.3579 3.8006 17.709C3.97615 17.0781 4.17408 16.4611 4.40119 16.0547C4.80835 15.326 5.40037 14.734 6.36896 13.7656C6.3955 13.7391 6.42291 13.7127 6.45002 13.6855L16.0858 4.0498ZM7.51056 14.7461C6.43662 15.82 6.00422 16.2611 5.71076 16.7861C5.58201 17.0165 5.42391 17.4708 5.24591 18.1104C5.16983 18.3838 5.09335 18.6779 5.0174 18.9824C5.32179 18.9065 5.61517 18.83 5.88849 18.7539C6.52829 18.5759 6.98224 18.4169 7.21271 18.2881C7.73788 17.9946 8.17962 17.5634 9.25373 16.4893L16.9569 8.78516L15.2137 7.04297L7.51056 14.7461ZM18.8895 5.11035C18.4083 4.62914 17.6276 4.62926 17.1463 5.11035L16.2752 5.98242L18.0174 7.72461L18.8895 6.85352C19.3705 6.37225 19.3706 5.59157 18.8895 5.11035Z" fill="#3C3C3C"/>
</svg>
