<svg width="24" height="24" viewBox="0 0 24 24" fill="none" xmlns="http://www.w3.org/2000/svg">
<path d="M11.5605 1.25C12.1637 1.2495 12.6401 1.24954 13.0869 1.40723C13.1792 1.43981 13.2701 1.4773 13.3584 1.51953C13.7858 1.72402 14.1227 2.06148 14.5488 2.48828L19.4443 7.38379C19.9387 7.87724 20.3304 8.26796 20.541 8.77637C20.7515 9.28473 20.7507 9.83766 20.75 10.5361V14.0566C20.75 15.8943 20.7498 17.3501 20.5967 18.4893C20.439 19.6616 20.1067 20.6101 19.3584 21.3584C18.6101 22.1067 17.6616 22.439 16.4893 22.5967C15.3501 22.7498 13.8943 22.75 12.0566 22.75H11.9434C10.1057 22.75 8.64991 22.7498 7.51074 22.5967C6.33844 22.439 5.38991 22.1067 4.6416 21.3584C3.89331 20.6101 3.56095 19.6616 3.40332 18.4893C3.25016 17.3501 3.24998 15.8943 3.25 14.0566V9.40723C3.24999 7.82589 3.25039 6.5731 3.36621 5.58105C3.48511 4.56273 3.7339 3.72293 4.30176 3.01855C4.51427 2.75498 4.755 2.51526 5.01855 2.30273C5.72296 1.7348 6.56267 1.48512 7.58105 1.36621C8.57311 1.2504 9.8259 1.24999 11.4072 1.25H11.5605ZM11.4561 2.75C9.81549 2.75 8.6499 2.75098 7.75488 2.85547C6.87608 2.95808 6.35453 3.15163 5.95996 3.46973C5.77959 3.61516 5.61516 3.77959 5.46973 3.95996C5.15159 4.35454 4.95808 4.87601 4.85547 5.75488C4.75097 6.64992 4.75 7.81542 4.75 9.45605V14C4.75 15.9067 4.75151 17.2614 4.88965 18.2891C5.02491 19.2951 5.27897 19.8746 5.70215 20.2979C6.12536 20.7211 6.70485 20.9751 7.71094 21.1104C8.73859 21.2485 10.0932 21.25 12 21.25C13.9068 21.25 15.2614 21.2485 16.2891 21.1104C17.2952 20.9751 17.8746 20.7211 18.2979 20.2979C18.721 19.8746 18.9751 19.2951 19.1104 18.2891C19.2485 17.2614 19.25 15.9067 19.25 14V10.6572C19.25 10.2193 19.2468 9.94208 19.2334 9.75H18.9453C17.5778 9.75002 16.4753 9.75033 15.6084 9.63379C14.7083 9.51277 13.9505 9.25328 13.3486 8.65137C12.7468 8.04946 12.4872 7.29168 12.3662 6.3916C12.2497 5.52468 12.25 4.42212 12.25 3.05469V2.76367C12.0832 2.75304 11.8419 2.75 11.4561 2.75ZM16 16.25C16.4142 16.25 16.75 16.5858 16.75 17C16.75 17.4142 16.4142 17.75 16 17.75H8C7.58579 17.75 7.25 17.4142 7.25 17C7.25 16.5858 7.58579 16.25 8 16.25H16ZM12 12.25C12.4142 12.25 12.75 12.5858 12.75 13C12.75 13.4142 12.4142 13.75 12 13.75H8C7.58579 13.75 7.25 13.4142 7.25 13C7.25 12.5858 7.58579 12.25 8 12.25H12ZM13.751 3.81152C13.7546 4.82641 13.7723 5.5883 13.8535 6.19238C13.9522 6.92583 14.1325 7.31412 14.4092 7.59082C14.6859 7.86758 15.0748 8.04783 15.8086 8.14648C16.4126 8.22765 17.1738 8.24536 18.1885 8.24902L13.751 3.81152Z" fill="#121212"/>
</svg>
