<svg width="24" height="24" viewBox="0 0 24 24" fill="none" xmlns="http://www.w3.org/2000/svg">
<g clip-path="url(#clip0_855_11911)">
<path d="M23.7071 15.2246C23.7069 15.2222 23.7068 15.2199 23.7066 15.2175C23.5968 13.7897 23.2497 13.1485 22.278 12.5789C21.7473 12.2677 20.7076 12.0302 19.7022 11.8006C19.5594 11.7679 19.4203 11.7361 19.2861 11.7048C19.0338 11.2874 18.678 10.931 18.2424 10.6784C18.0856 10.5876 17.8849 10.641 17.7939 10.7977C17.7031 10.9545 17.7564 11.1552 17.9132 11.2461C18.0117 11.3032 18.1043 11.3677 18.1918 11.4376L17.3466 11.2297V10.4972C17.9874 9.8522 18.402 8.98266 18.4616 8.01849H18.6213C19.3164 8.01849 19.8819 7.45304 19.8819 6.75798C19.8819 6.41495 19.7439 6.10365 19.5209 5.87612V3.33512C19.5404 2.8389 19.3119 2.36991 18.9088 2.07934C18.6192 1.87055 18.2706 1.77629 17.9253 1.80493C17.8311 1.31546 17.5575 0.917445 17.1204 0.64018C15.9332 -0.113008 13.7418 0.193555 12.681 0.693195C10.1208 1.89915 9.73374 3.70913 9.6969 5.48541C9.6969 5.48771 9.69681 5.48996 9.69681 5.49226V5.87738C9.47443 6.10477 9.33699 6.41555 9.33699 6.75798C9.33699 7.45299 9.90244 8.01849 10.5975 8.01849H10.7564C10.8105 8.95032 11.2004 9.82257 11.8707 10.496C11.8711 10.4965 11.8717 10.4969 11.8722 10.4974V11.2298L10.4225 11.5863C10.1555 11.6546 9.84573 11.7254 9.51774 11.8003L9.4427 11.8174C9.06976 11.5282 8.62759 11.4308 8.09781 11.5206C7.70326 11.5873 7.34499 11.4387 7.11357 11.1129C6.75235 10.6043 6.29668 10.357 5.72059 10.357C5.14449 10.357 4.68882 10.6043 4.3276 11.1129C4.09613 11.4387 3.73726 11.5874 3.34337 11.5206C2.72837 11.4164 2.23112 11.5638 1.82396 11.9711C1.41657 12.3785 1.2692 12.8755 1.37349 13.4905C1.44024 13.8845 1.29165 14.2433 0.965867 14.4747C0.457227 14.8359 0.209961 15.2916 0.209961 15.8677C0.209961 16.4439 0.45718 16.8994 0.96582 17.2607C1.2917 17.4921 1.44024 17.8509 1.37349 18.2449C1.26938 18.8601 1.41676 19.3571 1.82396 19.7643C2.03063 19.971 2.26051 20.1105 2.51705 20.1844L1.46921 22.4042C1.41891 22.5108 1.4296 22.6362 1.49734 22.7327C1.56498 22.8293 1.67879 22.8825 1.79668 22.871L3.00455 22.7574L3.77973 23.6908C3.84268 23.7666 3.93554 23.8093 4.0321 23.8093C4.05109 23.8093 4.07021 23.8077 4.08929 23.8043C4.2054 23.7838 4.30149 23.7026 4.34115 23.5916L5.16399 21.2878C5.33588 21.3479 5.52085 21.3783 5.72063 21.3783C5.9267 21.3783 6.11705 21.3461 6.29345 21.2822L7.11568 23.5843C7.15534 23.6953 7.25143 23.7765 7.36754 23.797C7.38662 23.8004 7.4057 23.802 7.42473 23.802C7.52129 23.802 7.61415 23.7593 7.6771 23.6835L8.45223 22.7502L9.6601 22.8637C9.77799 22.8751 9.89176 22.8219 9.95944 22.7255C10.0271 22.6289 10.0379 22.5036 9.98757 22.3969L8.94099 20.1796C9.08485 20.1363 9.21999 20.0716 9.34754 19.9864H23.4508C23.6297 19.9864 23.7757 19.843 23.7789 19.6642C23.8074 18.0715 23.7839 16.6194 23.7071 15.2246H23.7071ZM19.3804 15.9001C19.3804 15.9001 19.3807 15.9001 19.3809 15.9001C19.381 15.9001 19.3811 15.9001 19.3813 15.9001C19.7748 15.9004 20.0948 16.2205 20.0948 16.6141C20.0948 17.0076 19.7746 17.3279 19.3809 17.3279C18.9872 17.3279 18.667 17.0077 18.667 16.6141C18.667 16.2204 18.987 15.9004 19.3805 15.9001H19.3804ZM18.6214 7.36224H18.4699V6.15376H18.6214C18.9546 6.15376 19.2256 6.42479 19.2256 6.75802C19.2256 7.09126 18.9546 7.36224 18.6214 7.36224ZM9.99329 6.75798C9.99329 6.42479 10.2643 6.15371 10.5976 6.15371H10.7568C10.7568 6.15751 10.7566 6.16107 10.7566 6.16487L10.7511 7.3622H10.5976C10.2644 7.3622 9.99334 7.09116 9.99334 6.75793L9.99329 6.75798ZM10.7963 5.49746H10.5975C10.5139 5.49746 10.4322 5.50585 10.3531 5.52146V5.49568C10.3921 3.63709 10.8426 2.28451 12.9606 1.28687C13.8858 0.851023 15.8294 0.598367 16.7689 1.19429C17.1303 1.42355 17.306 1.75402 17.306 2.20463C17.306 2.31268 17.3592 2.41379 17.4481 2.47501C17.5371 2.53623 17.6505 2.54963 17.7515 2.51105C18.0107 2.41173 18.2999 2.44937 18.5251 2.6117C18.7502 2.77398 18.8773 3.03643 18.8649 3.31374C18.8647 3.31862 18.8646 3.32349 18.8646 3.32837V5.52132C18.7859 5.50585 18.7046 5.49755 18.6214 5.49755H18.4451C18.3649 4.57159 18.0853 3.92096 17.6094 3.56138C17.1684 3.22838 16.5876 3.16088 15.8828 3.36118C15.8787 3.3623 15.8746 3.36357 15.8706 3.36488C15.0052 3.6474 14.0497 3.76857 13.0299 3.72465C12.3185 3.65612 11.787 3.79079 11.4056 4.13645C11.0776 4.43363 10.8762 4.88223 10.7963 5.49751L10.7963 5.49746ZM11.4054 7.77948L11.4129 6.16641C11.4129 5.39195 11.5546 4.88696 11.8463 4.62263C12.0378 4.4491 12.3142 4.36351 12.6866 4.36351C12.777 4.36351 12.873 4.36852 12.9747 4.37855C12.9806 4.37916 12.9866 4.37954 12.9925 4.37982C14.0917 4.42791 15.1267 4.29709 16.0681 3.99066C16.5615 3.85168 16.9469 3.88332 17.2138 4.08493C17.6062 4.38137 17.8136 5.07263 17.8136 6.08396V7.77793C17.8136 9.5447 16.3763 10.9821 14.6095 10.9821C13.7525 10.9821 12.945 10.645 12.3358 10.0329C11.7318 9.42615 11.4014 8.6258 11.4054 7.77943V7.77948ZM14.6094 11.6384C15.3754 11.6384 16.0894 11.4132 16.6904 11.0269V11.4161C15.7598 13.4857 15.0328 13.926 14.5837 13.926C14.5819 13.926 14.5801 13.926 14.5783 13.926C14.1332 13.9226 13.4178 13.4819 12.5285 11.4189V11.0272C13.1454 11.4245 13.8614 11.6384 14.6095 11.6384L14.6094 11.6384ZM15.982 13.8422L14.6094 18.498L13.2556 13.9059C13.6808 14.3552 14.1181 14.5786 14.5732 14.5822H14.5841C15.0629 14.5821 15.5267 14.3374 15.9821 13.8421L15.982 13.8422ZM10.5821 12.2228L11.9742 11.8804L14.1706 19.3302H9.9354C10.0939 19.0156 10.1375 18.6568 10.0677 18.2448C10.0009 17.8509 10.1495 17.4921 10.4754 17.2606C10.984 16.8994 11.2312 16.4437 11.2312 15.8677C11.2312 15.2917 10.984 14.836 10.4754 14.4747C10.1496 14.2433 10.0009 13.8846 10.0677 13.4905C10.1393 13.0678 10.0921 12.7009 9.9234 12.3806C10.1593 12.3263 10.382 12.274 10.5821 12.2228ZM3.91679 22.8287L3.39873 22.205C3.32945 22.1215 3.22379 22.0778 3.1156 22.0879L2.30841 22.1638L3.22013 20.2323C3.26073 20.2276 3.3017 20.2218 3.34337 20.2148C3.73773 20.1481 4.09623 20.2966 4.3276 20.6224C4.41113 20.74 4.49996 20.843 4.5939 20.9328L3.91674 22.8286L3.91679 22.8287ZM8.34118 22.0806C8.23276 22.0701 8.12724 22.1142 8.05805 22.1977L7.54004 22.8214L6.86077 20.9198C6.9497 20.833 7.03407 20.7345 7.11357 20.6225C7.34499 20.2967 7.70373 20.1481 8.09785 20.2149C8.14641 20.2231 8.19394 20.2292 8.24101 20.2343L9.14832 22.1565L8.34113 22.0807L8.34118 22.0806ZM8.2074 19.5678C7.56455 19.4589 6.95588 19.7112 6.57854 20.2426C6.33976 20.5787 6.08321 20.7221 5.72059 20.7221C5.35796 20.7221 5.10141 20.5787 4.86263 20.2425C4.54313 19.7927 4.05779 19.5429 3.52641 19.5429C3.43013 19.5429 3.33226 19.5511 3.23373 19.5678C2.82718 19.6366 2.54438 19.5568 2.28798 19.3003C2.03166 19.044 1.95165 18.7611 2.02046 18.3545C2.12935 17.712 1.87712 17.1031 1.34579 16.7257C1.00955 16.4869 0.866164 16.2303 0.866164 15.8677C0.866164 15.5051 1.0096 15.2485 1.34579 15.0098C1.87712 14.6323 2.1293 14.0234 2.02046 13.3809C1.95151 12.9744 2.03152 12.6916 2.28798 12.4351C2.54429 12.1787 2.82704 12.0988 3.23377 12.1676C3.8762 12.2764 4.48529 12.0241 4.86263 11.4928C5.10141 11.1566 5.35796 11.0132 5.72059 11.0132C6.08321 11.0132 6.33976 11.1567 6.57854 11.4928C6.95593 12.0241 7.5647 12.2763 8.20745 12.1676C8.6139 12.0987 8.8967 12.1786 9.1532 12.4351C9.40955 12.6914 9.48957 12.9743 9.42071 13.3809C9.31191 14.0235 9.56415 14.6324 10.0954 15.0098C10.4316 15.2485 10.575 15.5051 10.575 15.8677C10.575 16.2303 10.4316 16.4868 10.0955 16.7257C9.5641 17.1031 9.31182 17.712 9.42071 18.3545C9.48966 18.761 9.40965 19.0439 9.15324 19.3003C8.89688 19.5566 8.61404 19.6365 8.2074 19.5678ZM23.1278 19.3302H15.0482L17.2446 11.8805L18.6338 12.2221C18.7021 12.2396 18.7729 12.2572 18.8458 12.2749C18.9792 12.5659 19.0527 12.885 19.0527 13.2132V15.284C18.4552 15.4314 18.0107 15.9718 18.0107 16.6141C18.0107 17.3696 18.6254 17.9843 19.3809 17.9843C20.1363 17.9843 20.751 17.3696 20.751 16.6141C20.751 15.9717 20.3065 15.4314 19.709 15.284V13.2132C19.709 12.9533 19.6738 12.6975 19.6068 12.4519C20.465 12.6481 21.5111 12.89 21.946 13.145C22.6741 13.5719 22.951 13.9567 23.052 15.2644C23.1226 16.5475 23.1474 17.8807 23.1278 19.3303V19.3302ZM15.2937 6.58791C15.4016 6.16341 15.783 5.86698 16.2213 5.86698C16.6597 5.86698 17.0411 6.16341 17.1489 6.58791C17.1936 6.76356 17.0874 6.9421 16.9117 6.98673C16.8846 6.99362 16.8574 6.99695 16.8307 6.99695C16.6841 6.99695 16.5506 6.89809 16.5129 6.74954C16.479 6.61632 16.3591 6.52327 16.2213 6.52327C16.0834 6.52327 15.9636 6.61632 15.9297 6.74954C15.8851 6.92513 15.7066 7.03163 15.5309 6.98677C15.3552 6.94215 15.249 6.7636 15.2936 6.58796L15.2937 6.58791ZM12.307 6.98673C12.1314 6.9421 12.0252 6.76356 12.0698 6.58791C12.1777 6.16341 12.5591 5.86698 12.9974 5.86698C13.4357 5.86698 13.8171 6.16341 13.9251 6.58787C13.9697 6.76346 13.8636 6.94205 13.6879 6.98673C13.6608 6.99357 13.6336 6.99695 13.6068 6.99695C13.4603 6.99695 13.3268 6.89809 13.2891 6.74959C13.2552 6.61632 13.1353 6.52327 12.9974 6.52327C12.8596 6.52327 12.7397 6.61632 12.7058 6.74954C12.6612 6.92513 12.4826 7.03163 12.307 6.98677L12.307 6.98673ZM14.6094 9.20963C14.9487 9.20963 15.2768 9.06798 15.5095 8.82085C15.6337 8.68885 15.8414 8.68266 15.9733 8.80693C16.1052 8.93115 16.1115 9.1388 15.9872 9.27076C15.6311 9.64895 15.1289 9.86588 14.6094 9.86588C14.0898 9.86588 13.5877 9.64895 13.2315 9.27076C13.1073 9.13885 13.1135 8.9312 13.2454 8.80693C13.3773 8.68271 13.585 8.68885 13.7093 8.82085C13.9419 9.06793 14.27 9.20963 14.6094 9.20963ZM5.72059 12.2849C3.74499 12.2849 2.1377 13.8921 2.1377 15.8678C2.1377 17.8434 3.74495 19.4506 5.72059 19.4506C7.69623 19.4506 9.30348 17.8434 9.30348 15.8678C9.30348 13.8921 7.69623 12.2849 5.72059 12.2849ZM5.72059 18.7944C4.10682 18.7944 2.79395 17.4815 2.79395 15.8677C2.79395 14.2539 4.10682 12.9411 5.72059 12.9411C7.33435 12.9411 8.64723 14.2539 8.64723 15.8677C8.64723 17.4815 7.33435 18.7944 5.72059 18.7944ZM6.73923 14.8491V13.9908C6.73923 13.8096 6.59232 13.6627 6.4111 13.6627H5.03002C4.8488 13.6627 4.7019 13.8096 4.7019 13.9908V14.8491H3.84366C3.66245 14.8491 3.51554 14.996 3.51554 15.1772V16.5583C3.51554 16.7395 3.66245 16.8864 3.84366 16.8864H4.7019V17.7446C4.7019 17.9258 4.8488 18.0727 5.03002 18.0727H6.4111C6.59232 18.0727 6.73923 17.9258 6.73923 17.7446V16.8864H7.59741C7.77863 16.8864 7.92554 16.7395 7.92554 16.5583V15.1772C7.92554 14.996 7.77863 14.8491 7.59741 14.8491H6.73923ZM7.26929 16.2301H6.4111C6.22988 16.2301 6.08298 16.3771 6.08298 16.5583V17.4165H5.35815V16.5583C5.35815 16.3771 5.21124 16.2301 5.03002 16.2301H4.17179V15.5053H5.03002C5.21124 15.5053 5.35815 15.3584 5.35815 15.1772V14.319H6.08298V15.1772C6.08298 15.3584 6.22988 15.5053 6.4111 15.5053H7.26929V16.2301Z" fill="#3563AD"/>
</g>
<defs>
<clipPath id="clip0_855_11911">
<rect width="24" height="24" fill="white"/>
</clipPath>
</defs>
</svg>
