<svg width="24" height="24" viewBox="0 0 24 24" fill="none" xmlns="http://www.w3.org/2000/svg">
<g clip-path="url(#clip0_1375_14833)">
<mask id="mask0_1375_14833" style="mask-type:luminance" maskUnits="userSpaceOnUse" x="0" y="0" width="24" height="24">
<path d="M0 0H24V24H0V0Z" fill="white"/>
</mask>
<g mask="url(#mask0_1375_14833)">
<path d="M15.0101 11.4285L12.6804 16.0879C12.3991 16.6551 11.5835 16.6363 11.3257 16.0598L8.6585 10.1395L7.25226 13.5004H2.84132L11.396 22.2426C11.7288 22.5848 12.2678 22.5848 12.6007 22.2426L21.1601 13.5004H16.046L15.0101 11.4285ZM22.2054 3.46445L22.0928 3.34727C19.6788 0.881639 15.7272 0.881639 13.3085 3.34727L12.0007 4.68789L10.6929 3.35195C8.27882 0.881639 4.32257 0.881639 1.9085 3.35195L1.796 3.46445C-0.486803 5.79882 -0.585241 9.51601 1.45382 12.0004H6.25382L7.93663 7.95977C8.18976 7.35508 9.04289 7.34101 9.31476 7.94101L12.0428 14.0019L14.3398 9.41289C14.6164 8.85977 15.4038 8.85977 15.6804 9.41289L16.9741 12.0004H22.5475C24.5867 9.51601 24.4882 5.79883 22.2054 3.46445Z" fill="#DC2626"/>
</g>
</g>
<defs>
<clipPath id="clip0_1375_14833">
<rect width="24" height="24" fill="white"/>
</clipPath>
</defs>
</svg>
