<svg width="24" height="25" viewBox="0 0 24 25" fill="none" xmlns="http://www.w3.org/2000/svg">
<path d="M8.36385 9.7037C8.5973 9.68047 8.76772 9.47239 8.74449 9.23894C8.72126 9.00549 8.51318 8.83507 8.27973 8.85829C8.04628 8.88152 7.87586 9.0896 7.89908 9.32306C7.92231 9.55651 8.13039 9.72693 8.36385 9.7037Z" fill="black"/>
<path d="M11.2557 9.70237C11.4891 9.67915 11.6596 9.47107 11.6363 9.23761C11.6131 9.00416 11.405 8.83374 11.1716 8.85697C10.9381 8.88019 10.7677 9.08828 10.7909 9.32173C10.8141 9.55518 11.0222 9.7256 11.2557 9.70237Z" fill="black"/>
<path d="M10.3482 10.7903H9.07186C8.87606 10.7903 8.71734 10.949 8.71734 11.1448C8.71734 11.3407 8.87606 11.4993 9.07186 11.4993H10.3482C10.544 11.4993 10.7027 11.3406 10.7027 11.1448C10.7027 10.949 10.544 10.7903 10.3482 10.7903Z" fill="black"/>
<path d="M23.3326 4.29025H22.2617V3.39653H23.6451C23.8409 3.39653 23.9996 3.23781 23.9996 3.04202C23.9996 2.84622 23.8409 2.6875 23.6451 2.6875H5.42316C5.22736 2.6875 5.06864 2.84622 5.06864 3.04202C5.06864 3.23781 5.22736 3.39653 5.42316 3.39653H21.5527V4.29025H20.4818C20.114 4.29025 19.8148 4.5895 19.8148 4.95723V8.04203C19.8228 8.38633 19.8889 8.74408 20.1181 9.1262C20.3094 9.44064 20.5813 9.7008 20.9047 9.87812L20.6731 10.2504C20.3278 10.8056 20.2957 11.5134 20.5893 12.0975L21.5522 14.0131C21.7852 14.4765 21.6842 15.0477 21.3069 15.4031L19.5446 16.9976V10.1615C19.5446 9.61553 19.1004 9.17134 18.5544 9.17134H17.5296C17.503 8.99795 17.4633 8.82695 17.4107 8.65947C17.3649 8.51392 17.3578 8.35783 17.3901 8.20811L17.6514 6.99564C17.7011 6.76511 17.6313 6.52797 17.4645 6.36119C17.2978 6.19445 17.0606 6.12437 16.83 6.17425C16.4625 6.22267 15.563 6.54156 15.1884 6.40408C15.0486 6.35767 14.9045 6.31994 14.7603 6.29181C14.5682 6.25469 14.382 6.37994 14.3446 6.57212C14.3072 6.76431 14.4327 6.95045 14.6249 6.98786C14.7394 7.01017 14.8539 7.04017 14.9651 7.07706C15.2335 7.16612 15.5224 7.18155 15.8007 7.1215L16.9525 6.8732L16.6969 8.05872C16.564 8.56703 16.871 9.11476 16.861 9.70211V13.3689C16.861 13.6544 16.8175 13.936 16.7319 14.2058C16.7046 14.2918 16.6856 14.3799 16.6733 14.4689C15.8745 13.7617 14.8249 13.3317 13.6766 13.3317H12.1554V12.9833C12.6485 12.507 13.0013 11.8833 13.1398 11.1767C13.6522 11.0047 14.0874 10.4803 14.2489 9.98383C14.4928 9.23373 14.1485 8.44694 13.4813 8.22995C13.4086 8.20637 13.3127 8.18542 13.2053 8.18697V6.49787C13.2053 5.46831 12.3677 4.63066 11.3381 4.63066H8.19187C7.254 4.63066 6.47564 5.32586 6.34444 6.22792H5.43408C4.93261 6.17697 4.42594 6.48067 3.87867 6.42841L2.69981 6.1742C2.46928 6.12447 2.23205 6.19445 2.06536 6.36119C1.89863 6.52797 1.82878 6.76511 1.87847 6.99564L2.13984 8.20816C2.17214 8.35787 2.16502 8.51392 2.11922 8.65951C2.06658 8.82695 2.02692 8.99795 2.0003 9.17134H1.10072V4.1605C1.10072 3.73928 1.44342 3.39653 1.86464 3.39653H5.42316C5.61895 3.39653 5.77767 3.23781 5.77767 3.04202C5.77767 2.84622 5.61895 2.6875 5.42316 2.6875H1.86464C1.05244 2.6875 0.391641 3.3483 0.391641 4.1605V9.37459C0.154172 9.55562 0 9.84053 0 10.1615L0.0088125 21.6889C0.0088125 22.0307 0.286969 22.309 0.628828 22.309H18.9191C19.261 22.309 19.5391 22.0308 19.5391 21.6889L19.5445 17.9537L21.7851 15.9266C21.7866 15.9252 21.7882 15.9238 21.7897 15.9224C22.3963 15.3537 22.5591 14.4376 22.1857 13.6946L21.2228 11.779C21.0393 11.414 21.0594 10.9718 21.2752 10.6249L21.5948 10.111C21.6968 10.1264 21.801 10.1344 21.9072 10.1344C22.6643 10.1344 23.3288 9.73019 23.6962 9.1262C23.8313 8.92689 24.0087 8.44516 23.9996 8.04203V4.95728C23.9997 4.5895 23.7004 4.29025 23.3326 4.29025ZM18.8355 10.1615V17.639L18.448 17.9896C18.3672 17.9166 18.2852 17.8451 18.2017 17.7759C18.1866 16.9258 17.9359 16.1323 17.5123 15.4578C17.4601 15.1491 17.3023 14.7639 17.4077 14.4203C17.5154 14.081 17.57 13.7273 17.57 13.3689V9.88037H18.5544C18.7094 9.88037 18.8355 10.0065 18.8355 10.1615ZM8.08364 13.5107C8.58286 13.7908 9.15717 13.9501 9.76495 13.9501C10.3728 13.9501 10.947 13.7908 11.4463 13.5107V14.1544C11.4463 14.3148 11.3157 14.4454 11.1553 14.4454H8.37459C8.21414 14.4454 8.08364 14.3148 8.08364 14.1544V13.5107ZM13.262 8.90415C13.5573 9.0002 13.6975 9.38617 13.5745 9.7645C13.454 10.1351 13.0753 10.5121 12.8101 10.5255C12.6375 10.5341 12.4964 10.666 12.4759 10.8375C12.3121 12.2077 11.1467 13.241 9.765 13.241C8.38327 13.241 7.21781 12.2077 7.05413 10.8375C7.03364 10.6659 6.89245 10.5341 6.71991 10.5255C6.45464 10.5121 6.07598 10.1352 5.95547 9.7645C5.83242 9.38617 5.97267 9.0002 6.26798 8.9042C6.28284 8.89937 6.29452 8.89558 6.30558 8.89558C6.32869 8.89558 6.34912 8.91212 6.39052 8.97016C6.48 9.09583 6.64031 9.14936 6.78722 9.10225C6.97022 9.05017 7.0687 8.79208 7.03383 8.5457C7.03383 7.79458 7.64489 7.18351 8.39606 7.18351H11.134C11.8852 7.18351 12.4963 7.79458 12.4963 8.5457C12.4882 8.73442 12.4742 8.98642 12.7429 9.10225C12.8898 9.14936 13.0501 9.09583 13.1396 8.97016C13.2007 8.88433 13.2161 8.88934 13.262 8.90415ZM7.03373 6.49783C7.03373 5.8592 7.5533 5.33969 8.19187 5.33969H11.338C11.9766 5.33969 12.4962 5.8592 12.4962 6.49783V6.98725C12.1317 6.66831 11.6551 6.47448 11.1339 6.47448H8.39597C7.87477 6.47448 7.39819 6.66831 7.03373 6.98725V6.49783ZM3.72923 7.1215C4.00748 7.18141 4.29642 7.16603 4.56492 7.07701C4.84486 6.98411 5.13731 6.93695 5.43412 6.93695H6.3247V8.18687C6.21736 8.18528 6.12141 8.20619 6.04866 8.22991C5.38153 8.44689 5.03719 9.23364 5.28113 9.98378C5.44256 10.4803 5.87775 11.0047 6.39019 11.1766C6.5287 11.8833 6.88148 12.507 7.37461 12.9832V13.3316H5.85337C4.70512 13.3316 3.65555 13.7617 2.8567 14.4689C2.84442 14.3799 2.82539 14.2917 2.79811 14.2058C2.71247 13.936 2.66902 13.6544 2.66902 13.3689V9.70211C2.63897 9.19501 2.96442 8.64217 2.83308 8.05872L2.57752 6.8732L3.72923 7.1215ZM0.709078 10.1615C0.709078 10.0065 0.835172 9.88042 0.990234 9.88042H1.95989V13.3689C1.95989 13.7273 2.0145 14.0811 2.12222 14.4203C2.22937 14.6365 2.06648 15.2237 2.01755 15.4578C1.59342 16.1332 1.34269 16.9278 1.32811 17.7791C1.18645 17.8969 1.0485 18.0199 0.914578 18.1481C0.842109 18.2176 0.773578 18.2905 0.709031 18.3666L0.709078 10.1615ZM18.8301 21.5999H0.717891V20.2722C0.717891 19.666 0.968391 19.0785 1.40508 18.6602C2.38519 17.7213 5.26622 16.7072 6.5 16.7072C6.6958 16.7072 6.8172 16.483 6.77938 16.2909C6.74155 16.0987 6.5 15.9982 6.5 15.9982C5.53452 16.1882 2.91084 16.6925 2.09025 17.2212C2.39428 15.4186 3.96548 14.0407 5.85328 14.0407H7.37452V14.1544C7.37452 14.7059 7.82311 15.1545 8.37455 15.1545H11.1553C11.7067 15.1545 12.1553 14.7059 12.1553 14.1544V14.0407H13.6765C15.5627 14.0407 17.1327 15.4162 17.4387 17.2166C16.1931 16.4148 14.7417 15.9842 13.2305 15.9842L6.5 15.9982C6.5 15.9982 6.14548 16.1569 6.14548 16.3527C6.14548 16.5486 6.3042 16.7072 6.5 16.7072L13.2306 16.6932C14.8398 16.6932 16.3744 17.2301 17.6209 18.2176C17.6242 18.2203 17.6276 18.2228 17.631 18.2254C17.8091 18.367 17.9812 18.5178 18.1469 18.6776C18.5811 19.0964 18.8301 19.6826 18.8301 20.2859L18.8301 21.5999ZM23.2906 4.99933V5.97728H20.5238V4.99933H23.2906ZM23.1817 8.58001C23.0445 8.98445 22.4461 9.45494 21.9072 9.42541C21.1444 9.42541 20.5238 8.80483 20.5238 8.04203V6.68631H23.2906V8.04203C23.2705 8.23183 23.3 8.26117 23.1817 8.58001Z" fill="black"/>
</svg>
