<svg width="33" height="32" viewBox="0 0 33 32" fill="none" xmlns="http://www.w3.org/2000/svg">
<path d="M16.5012 0C12.1558 0 11.6104 0.0190003 9.90376 0.096667C8.20041 0.174667 7.03774 0.444334 6.02039 0.84C4.96805 1.24867 4.07537 1.79533 3.18603 2.685C2.29602 3.57433 1.74935 4.467 1.33934 5.519C0.942671 6.53667 0.672669 7.69967 0.596001 9.40233C0.52 11.109 0.5 11.6547 0.5 16C0.5 20.3453 0.519334 20.889 0.596668 22.5957C0.675002 24.299 0.944672 25.4617 1.34001 26.479C1.74901 27.5313 2.29569 28.424 3.18536 29.3133C4.07437 30.2033 4.96705 30.7513 6.01872 31.16C7.03674 31.5557 8.19975 31.8253 9.90277 31.9033C11.6095 31.981 12.1545 32 16.4995 32C20.8452 32 21.3889 31.981 23.0956 31.9033C24.7989 31.8253 25.9629 31.5557 26.9809 31.16C28.033 30.7513 28.9243 30.2033 29.8133 29.3133C30.7033 28.424 31.25 27.5313 31.66 26.4793C32.0533 25.4617 32.3233 24.2987 32.4033 22.596C32.48 20.8893 32.5 20.3453 32.5 16C32.5 11.6547 32.48 11.1093 32.4033 9.40267C32.3233 7.69933 32.0533 6.53667 31.66 5.51933C31.25 4.467 30.7033 3.57433 29.8133 2.685C28.9233 1.795 28.0333 1.24833 26.9799 0.84C25.9599 0.444334 24.7966 0.174667 23.0932 0.096667C21.3866 0.0190003 20.8432 0 16.4965 0H16.5012ZM15.0658 2.88333C15.4918 2.88267 15.9672 2.88333 16.5012 2.88333C20.7732 2.88333 21.2796 2.89867 22.9666 2.97533C24.5266 3.04667 25.3733 3.30733 25.9373 3.52633C26.6839 3.81633 27.2163 4.163 27.776 4.723C28.336 5.283 28.6826 5.81633 28.9733 6.563C29.1923 7.12633 29.4533 7.973 29.5243 9.533C29.601 11.2197 29.6176 11.7263 29.6176 15.9963C29.6176 20.2663 29.601 20.773 29.5243 22.4597C29.453 24.0197 29.1923 24.8663 28.9733 25.4297C28.6833 26.1763 28.336 26.708 27.776 27.2677C27.2159 27.8277 26.6843 28.1743 25.9373 28.4643C25.3739 28.6843 24.5266 28.9443 22.9666 29.0157C21.2799 29.0923 20.7732 29.109 16.5012 29.109C12.2288 29.109 11.7225 29.0923 10.0358 29.0157C8.47575 28.9437 7.62907 28.683 7.06474 28.464C6.31806 28.174 5.78472 27.8273 5.22472 27.2673C4.66471 26.7073 4.31804 26.1753 4.02737 25.4283C3.80837 24.865 3.54737 24.0183 3.47636 22.4583C3.3997 20.7717 3.38436 20.265 3.38436 15.9923C3.38436 11.7197 3.3997 11.2157 3.47636 9.529C3.5477 7.969 3.80837 7.12233 4.02737 6.55833C4.31737 5.81167 4.66471 5.27833 5.22472 4.71833C5.78472 4.15833 6.31806 3.81167 7.06474 3.521C7.62874 3.301 8.47575 3.041 10.0358 2.96933C11.5118 2.90267 12.0838 2.88267 15.0658 2.87933V2.88333Z" fill="url(#paint0_radial_1877_28333)"/>
<path d="M25.0075 5.5007C24.6277 5.5007 24.2565 5.61332 23.9407 5.82432C23.625 6.03532 23.3789 6.33523 23.2336 6.6861C23.0883 7.03697 23.0503 7.42305 23.1244 7.79552C23.1986 8.16798 23.3815 8.51009 23.6501 8.77858C23.9187 9.04707 24.2609 9.22988 24.6333 9.30389C25.0058 9.37789 25.3919 9.33978 25.7427 9.19436C26.0936 9.04893 26.3934 8.80274 26.6043 8.48691C26.8152 8.17108 26.9277 7.7998 26.9275 7.42003C26.9275 6.36003 26.0675 5.50003 25.0075 5.50003V5.5007Z" fill="url(#paint1_radial_1877_28333)"/>
<path fill-rule="evenodd" clip-rule="evenodd" d="M16.4668 7.74403C11.929 7.74403 8.25001 11.423 8.25001 15.9607C8.25001 20.4984 11.929 24.1757 16.4668 24.1757C21.0045 24.1757 24.6825 20.4984 24.6825 15.9607C24.6825 11.423 21.0045 7.74403 16.4668 7.74403ZM16.5 21.25C19.3995 21.25 21.75 18.8995 21.75 16C21.75 13.1005 19.3995 10.75 16.5 10.75C13.6005 10.75 11.25 13.1005 11.25 16C11.25 18.8995 13.6005 21.25 16.5 21.25Z" fill="url(#paint2_radial_1877_28333)"/>
<path d="M16.5012 0C12.1558 0 11.6104 0.0190003 9.90376 0.096667C8.20041 0.174667 7.03774 0.444334 6.02039 0.84C4.96805 1.24867 4.07537 1.79533 3.18603 2.685C2.29602 3.57433 1.74935 4.467 1.33934 5.519C0.942671 6.53667 0.672669 7.69967 0.596001 9.40233C0.52 11.109 0.5 11.6547 0.5 16C0.5 20.3453 0.519334 20.889 0.596668 22.5957C0.675002 24.299 0.944672 25.4617 1.34001 26.479C1.74901 27.5313 2.29569 28.424 3.18536 29.3133C4.07437 30.2033 4.96705 30.7513 6.01872 31.16C7.03674 31.5557 8.19975 31.8253 9.90277 31.9033C11.6095 31.981 12.1545 32 16.4995 32C20.8452 32 21.3889 31.981 23.0956 31.9033C24.7989 31.8253 25.9629 31.5557 26.9809 31.16C28.033 30.7513 28.9243 30.2033 29.8133 29.3133C30.7033 28.424 31.25 27.5313 31.66 26.4793C32.0533 25.4617 32.3233 24.2987 32.4033 22.596C32.48 20.8893 32.5 20.3453 32.5 16C32.5 11.6547 32.48 11.1093 32.4033 9.40267C32.3233 7.69933 32.0533 6.53667 31.66 5.51933C31.25 4.467 30.7033 3.57433 29.8133 2.685C28.9233 1.795 28.0333 1.24833 26.9799 0.84C25.9599 0.444334 24.7966 0.174667 23.0932 0.096667C21.3866 0.0190003 20.8432 0 16.4965 0H16.5012ZM15.0658 2.88333C15.4918 2.88267 15.9672 2.88333 16.5012 2.88333C20.7732 2.88333 21.2796 2.89867 22.9666 2.97533C24.5266 3.04667 25.3733 3.30733 25.9373 3.52633C26.6839 3.81633 27.2163 4.163 27.776 4.723C28.336 5.283 28.6826 5.81633 28.9733 6.563C29.1923 7.12633 29.4533 7.973 29.5243 9.533C29.601 11.2197 29.6176 11.7263 29.6176 15.9963C29.6176 20.2663 29.601 20.773 29.5243 22.4597C29.453 24.0197 29.1923 24.8663 28.9733 25.4297C28.6833 26.1763 28.336 26.708 27.776 27.2677C27.2159 27.8277 26.6843 28.1743 25.9373 28.4643C25.3739 28.6843 24.5266 28.9443 22.9666 29.0157C21.2799 29.0923 20.7732 29.109 16.5012 29.109C12.2288 29.109 11.7225 29.0923 10.0358 29.0157C8.47575 28.9437 7.62907 28.683 7.06474 28.464C6.31806 28.174 5.78472 27.8273 5.22472 27.2673C4.66471 26.7073 4.31804 26.1753 4.02737 25.4283C3.80837 24.865 3.54737 24.0183 3.47636 22.4583C3.3997 20.7717 3.38436 20.265 3.38436 15.9923C3.38436 11.7197 3.3997 11.2157 3.47636 9.529C3.5477 7.969 3.80837 7.12233 4.02737 6.55833C4.31737 5.81167 4.66471 5.27833 5.22472 4.71833C5.78472 4.15833 6.31806 3.81167 7.06474 3.521C7.62874 3.301 8.47575 3.041 10.0358 2.96933C11.5118 2.90267 12.0838 2.88267 15.0658 2.87933V2.88333Z" fill="url(#paint3_radial_1877_28333)"/>
<path d="M25.0075 5.5007C24.6277 5.5007 24.2565 5.61332 23.9407 5.82432C23.625 6.03532 23.3789 6.33523 23.2336 6.6861C23.0883 7.03697 23.0503 7.42305 23.1244 7.79552C23.1986 8.16798 23.3815 8.51009 23.6501 8.77858C23.9187 9.04707 24.2609 9.22988 24.6333 9.30389C25.0058 9.37789 25.3919 9.33978 25.7427 9.19436C26.0936 9.04893 26.3934 8.80274 26.6043 8.48691C26.8152 8.17108 26.9277 7.7998 26.9275 7.42003C26.9275 6.36003 26.0675 5.50003 25.0075 5.50003V5.5007Z" fill="url(#paint4_radial_1877_28333)"/>
<path fill-rule="evenodd" clip-rule="evenodd" d="M16.4668 7.74403C11.929 7.74403 8.25001 11.423 8.25001 15.9607C8.25001 20.4984 11.929 24.1757 16.4668 24.1757C21.0045 24.1757 24.6825 20.4984 24.6825 15.9607C24.6825 11.423 21.0045 7.74403 16.4668 7.74403ZM16.5 21.25C19.3995 21.25 21.75 18.8995 21.75 16C21.75 13.1005 19.3995 10.75 16.5 10.75C13.6005 10.75 11.25 13.1005 11.25 16C11.25 18.8995 13.6005 21.25 16.5 21.25Z" fill="url(#paint5_radial_1877_28333)"/>
<defs>
<radialGradient id="paint0_radial_1877_28333" cx="0" cy="0" r="1" gradientUnits="userSpaceOnUse" gradientTransform="translate(9.00004 34.4647) rotate(-90) scale(31.7144 29.4969)">
<stop stop-color="#FFDD55"/>
<stop offset="0.1" stop-color="#FFDD55"/>
<stop offset="0.5" stop-color="#FF543E"/>
<stop offset="1" stop-color="#C837AB"/>
</radialGradient>
<radialGradient id="paint1_radial_1877_28333" cx="0" cy="0" r="1" gradientUnits="userSpaceOnUse" gradientTransform="translate(9.00004 34.4647) rotate(-90) scale(31.7144 29.4969)">
<stop stop-color="#FFDD55"/>
<stop offset="0.1" stop-color="#FFDD55"/>
<stop offset="0.5" stop-color="#FF543E"/>
<stop offset="1" stop-color="#C837AB"/>
</radialGradient>
<radialGradient id="paint2_radial_1877_28333" cx="0" cy="0" r="1" gradientUnits="userSpaceOnUse" gradientTransform="translate(9.00004 34.4647) rotate(-90) scale(31.7144 29.4969)">
<stop stop-color="#FFDD55"/>
<stop offset="0.1" stop-color="#FFDD55"/>
<stop offset="0.5" stop-color="#FF543E"/>
<stop offset="1" stop-color="#C837AB"/>
</radialGradient>
<radialGradient id="paint3_radial_1877_28333" cx="0" cy="0" r="1" gradientTransform="matrix(2.78252 13.9007 -57.298 11.4759 -4.86017 2.30523)" gradientUnits="userSpaceOnUse">
<stop stop-color="#3771C8"/>
<stop offset="0.128" stop-color="#3771C8"/>
<stop offset="1" stop-color="#6600FF" stop-opacity="0"/>
</radialGradient>
<radialGradient id="paint4_radial_1877_28333" cx="0" cy="0" r="1" gradientTransform="matrix(2.78252 13.9007 -57.298 11.4759 -4.86017 2.30523)" gradientUnits="userSpaceOnUse">
<stop stop-color="#3771C8"/>
<stop offset="0.128" stop-color="#3771C8"/>
<stop offset="1" stop-color="#6600FF" stop-opacity="0"/>
</radialGradient>
<radialGradient id="paint5_radial_1877_28333" cx="0" cy="0" r="1" gradientTransform="matrix(2.78252 13.9007 -57.298 11.4759 -4.86017 2.30523)" gradientUnits="userSpaceOnUse">
<stop stop-color="#3771C8"/>
<stop offset="0.128" stop-color="#3771C8"/>
<stop offset="1" stop-color="#6600FF" stop-opacity="0"/>
</radialGradient>
</defs>
</svg>
