<svg width="33" height="32" viewBox="0 0 33 32" fill="none" xmlns="http://www.w3.org/2000/svg">
<path d="M0.5 5.33333C0.5 2.38782 2.93463 0 5.93791 0H27.0621C30.0654 0 32.5 2.38781 32.5 5.33333V26.6667C32.5 29.6122 30.0654 32 27.0621 32H5.93791C2.93464 32 0.5 29.6122 0.5 26.6667V5.33333Z" fill="#0077B5"/>
<path d="M23.024 27.5041H27.8426V17.9726C27.8426 13.2652 24.937 11.6596 22.2483 11.6596C19.7621 11.6596 18.0731 13.2793 17.6068 14.2281V12.0928H12.9727V27.5041H17.7913V19.1486C17.7913 16.9207 19.1929 15.8373 20.6228 15.8373C21.9752 15.8373 23.024 16.6032 23.024 19.0867V27.5041Z" fill="white"/>
<path d="M4.89062 7.16085C4.89062 8.76979 6.1344 9.94557 7.66864 9.94557C9.2031 9.94557 10.4469 8.76979 10.4469 7.16085C10.4469 5.55213 9.2031 4.375 7.66864 4.375C6.1344 4.375 4.89062 5.55213 4.89062 7.16085Z" fill="white"/>
<path d="M5.25944 27.4922H10.0778V12.0809H5.25944V27.4922Z" fill="white"/>
</svg>
