<svg width="24" height="24" viewBox="0 0 24 24" fill="none" xmlns="http://www.w3.org/2000/svg">
<path d="M9.07812 2.78711C11.043 2.73711 12.9531 2.73712 14.918 2.78711C18.156 2.86911 19.9402 2.91584 21.2832 4.25684C22.628 5.61175 22.6654 7.34838 22.7324 10.501C22.7534 11.5079 22.7534 12.4863 22.7324 13.4932C22.6654 16.6462 22.6281 18.3824 21.2861 19.7354C19.9411 21.0793 18.1569 21.1241 14.9189 21.2061C13.9371 21.231 12.9679 21.2441 11.999 21.2441C11.0301 21.2441 10.061 21.2311 9.0791 21.2061C5.84137 21.1241 4.05779 21.0781 2.71484 19.7373C1.36984 18.3823 1.33263 16.6452 1.26562 13.4922C1.24463 12.4853 1.24463 11.5069 1.26562 10.5C1.33261 7.34759 1.36937 5.61167 2.71094 4.25879C4.05591 2.91482 5.84027 2.86911 9.07812 2.78711ZM14.8809 4.28516C12.9419 4.23516 11.0562 4.23516 9.11621 4.28516C6.07838 4.36215 4.69242 4.39748 3.77344 5.31641C2.85546 6.24239 2.82665 7.58638 2.76465 10.5312C2.74365 11.5161 2.74366 12.4741 2.76465 13.46C2.82665 16.405 2.85537 17.7507 3.77637 18.6777C4.69334 19.5936 6.07951 19.6291 9.11719 19.7061C11.0562 19.7561 12.9418 19.7561 14.8818 19.7061C17.9195 19.6291 19.3057 19.5947 20.2246 18.6758C21.1426 17.7498 21.1714 16.405 21.2334 13.46C21.2544 12.4751 21.2544 11.5171 21.2334 10.5312C21.1714 7.58651 21.1425 6.24143 20.2217 5.31445C19.3047 4.3985 17.9186 4.36215 14.8809 4.28516ZM6.35449 8.11035C6.56556 7.75469 7.025 7.63589 7.38086 7.84668L10.3232 9.58691C11.7949 10.4537 12.2031 10.4537 13.6768 9.58691L16.6182 7.84766C16.9751 7.63667 17.4355 7.75438 17.6455 8.11133C17.8565 8.46833 17.7379 8.92867 17.3809 9.13867L14.4395 10.8789C13.4585 11.4569 12.729 11.7451 11.999 11.7451C11.2701 11.7451 10.5413 11.4557 9.56152 10.8789L6.61816 9.1377C6.26216 8.9267 6.14349 8.46635 6.35449 8.11035Z" fill="#3563AD"/>
</svg>
