<svg width="24" height="24" viewBox="0 0 24 24" fill="none" xmlns="http://www.w3.org/2000/svg">
<g clip-path="url(#clip0_1375_15947)">
<path fill-rule="evenodd" clip-rule="evenodd" d="M8.7168 8.35058C9.02611 7.47888 9.74316 6.77589 10.643 6.52282V5.3418H21.9048V6.52282C23.128 6.86025 23.9857 7.98503 23.9857 9.26447V9.47536H16.5481C15.7186 9.47536 15.0577 10.1502 15.0577 10.9657V19.3594C15.0577 20.1748 15.7186 20.8356 16.5481 20.8356H23.9857V21.0044C23.9857 22.5791 22.7063 23.8585 21.1316 23.8585H13.1737C13.6658 23.4367 13.9751 22.804 13.9751 22.1151V10.6704C13.9751 9.39101 12.9347 8.35058 11.6553 8.35058H8.7168ZM19.5287 17.8409C18.9804 17.8409 18.5446 17.4051 18.5446 16.8708V16.1397H17.8135C16.534 16.1397 16.534 14.1854 17.8135 14.1854H18.5446V13.4543C18.5446 12.1608 20.4989 12.1608 20.4989 13.4543V14.1854H21.23C22.5235 14.1854 22.5235 16.1397 21.23 16.1397H20.4989V16.8708C20.4989 17.4051 20.063 17.8409 19.5287 17.8409ZM17.8135 14.7478C17.2651 14.7478 17.2651 15.5773 17.8135 15.5773C19.3038 15.5773 19.107 15.3805 19.107 16.8708C19.107 17.4191 19.9365 17.4191 19.9365 16.8708C19.9365 15.3805 19.7396 15.5773 21.23 15.5773C21.7783 15.5773 21.7783 14.7478 21.23 14.7478C19.7396 14.7478 19.9365 14.9446 19.9365 13.4543C19.9365 12.9059 19.107 12.9059 19.107 13.4543C19.107 14.9446 19.3038 14.7478 17.8135 14.7478ZM23.9857 10.0378V20.2733H16.5481C16.0279 20.2733 15.6201 19.8655 15.6201 19.3594V10.9657C15.6201 10.4595 16.0279 10.0378 16.5481 10.0378H23.9857Z" fill="#3563AD"/>
<path fill-rule="evenodd" clip-rule="evenodd" d="M22.0747 4.78034H21.9482V0.140625H22.0747C23.1151 0.140625 23.9587 0.98421 23.9587 2.02463V2.88228C23.9587 3.9227 23.1151 4.78034 22.0747 4.78034ZM21.3858 4.78034H19.797V0.140625H21.3858V4.78034ZM19.2346 4.78034H17.6318V0.140625H19.2346V4.78034ZM17.0694 4.78034H15.4807V0.140625H17.0694V4.78034ZM14.9183 4.78034H13.3295V0.140625H14.9183V4.78034ZM12.7672 4.78034H11.1784V0.140625H12.7672V4.78034ZM10.616 4.78034H10.4895C9.44905 4.78034 8.60547 3.9227 8.60547 2.88228V2.02463C8.60547 0.98421 9.44905 0.140625 10.4895 0.140625H10.616V4.78034Z" fill="#3563AD"/>
<path fill-rule="evenodd" clip-rule="evenodd" d="M11.6555 23.8596H6.9877V8.91406H11.6555C12.6257 8.91406 13.413 9.70141 13.413 10.6715V22.1162C13.413 23.0722 12.6257 23.8596 11.6555 23.8596ZM3.50088 15.5503C2.36204 15.5503 1.44815 14.6364 1.44815 13.5116C1.44815 12.3868 2.36204 11.4589 3.50088 11.4589C4.62566 11.4589 5.53954 12.3868 5.53954 13.5116C5.53954 14.6364 4.62566 15.5503 3.50088 15.5503ZM2.26362 14.3411L4.3304 12.2743C2.98067 11.3745 1.3638 13.0055 2.26362 14.3411ZM4.72408 12.6821L2.67135 14.7348C4.00703 15.6487 5.63796 14.0178 4.72408 12.6821ZM8.49209 14.9738C8.12654 14.6786 7.87346 14.0459 7.87346 13.5116C7.87346 12.3868 8.78735 11.4589 9.91213 11.4589C11.051 11.4589 11.9649 12.3868 11.9649 13.5116C11.9649 15.3113 9.78559 16.2251 8.49209 14.9738ZM8.68893 14.3411L10.7557 12.2743C9.40598 11.3745 7.77504 13.0055 8.68893 14.3411ZM11.1494 12.6821L9.0826 14.7348C10.4323 15.6487 12.0633 14.0178 11.1494 12.6821ZM3.50088 21.3148C2.36204 21.3148 1.44815 20.4009 1.44815 19.2761C1.44815 18.1373 2.36204 17.2234 3.50088 17.2234C4.62566 17.2234 5.53954 18.1373 5.53954 19.2761C5.53954 20.4009 4.62566 21.3148 3.50088 21.3148ZM2.26362 20.1056L4.3304 18.0388C2.98067 17.125 1.3638 18.7559 2.26362 20.1056ZM4.72408 18.4325L2.67135 20.4993C4.00703 21.4132 5.63796 19.7823 4.72408 18.4325ZM8.49209 20.7383C8.12654 20.429 7.87346 19.8104 7.87346 19.2761C7.87346 18.1373 8.78735 17.2234 9.91213 17.2234C11.051 17.2234 11.9649 18.1373 11.9649 19.2761C11.9649 21.0758 9.78559 21.9896 8.49209 20.7383ZM8.68893 20.1056L10.7557 18.0388C9.40598 17.125 7.77504 18.7559 8.68893 20.1056ZM11.1494 18.4325L9.0826 20.4993C10.4323 21.4132 12.0633 19.7823 11.1494 18.4325ZM6.42531 23.8596H1.75747C0.787346 23.8596 0 23.0722 0 22.1162V10.6715C0 9.70141 0.787346 8.91406 1.75747 8.91406H6.42531V23.8596Z" fill="#3563AD"/>
</g>
<defs>
<clipPath id="clip0_1375_15947">
<rect width="24" height="24" fill="white"/>
</clipPath>
</defs>
</svg>
