<svg width="24" height="24" viewBox="0 0 24 24" fill="none" xmlns="http://www.w3.org/2000/svg">
<g clip-path="url(#clip0_955_1929)">
<path fill-rule="evenodd" clip-rule="evenodd" d="M21.1318 23.8598H11.6555C11.29 23.8598 11.29 23.2974 11.6555 23.2974H21.1318C22.3972 23.2974 23.4235 22.2711 23.4235 21.0057V9.26581C23.4235 8.16915 22.6503 7.22715 21.5677 7.01625C21.4411 6.98813 21.3427 6.87565 21.3427 6.74911V4.49955C21.3427 4.11994 21.9051 4.11994 21.9051 4.49955V6.52416C23.1283 6.86159 23.9859 7.98637 23.9859 9.26581V21.0057C23.9859 22.5804 22.7065 23.8598 21.1318 23.8598ZM8.84357 9.47671C8.68892 9.47671 8.56238 9.35017 8.56238 9.19551C8.60456 7.94419 9.4622 6.86159 10.6432 6.52416V4.49955C10.6432 4.11994 11.2056 4.11994 11.2056 4.49955V6.74911C11.2056 6.87565 11.1213 6.98813 10.9807 7.01625C9.94023 7.22715 9.15289 8.14103 9.12477 9.20957C9.12477 9.36423 8.99823 9.47671 8.84357 9.47671Z" fill="#121212"/>
<path fill-rule="evenodd" clip-rule="evenodd" d="M22.0739 4.78034H10.4886C9.4482 4.78034 8.60461 3.9227 8.60461 2.88228V2.02463C8.60461 0.98421 9.4482 0.140625 10.4886 0.140625H22.0739C23.1143 0.140625 23.9579 0.98421 23.9579 2.02463V2.88228C23.9579 3.9227 23.1143 4.78034 22.0739 4.78034ZM10.4886 0.703015C9.75751 0.703015 9.167 1.29352 9.167 2.02463V2.88228C9.167 3.61338 9.75751 4.21795 10.4886 4.21795H22.0739C22.805 4.21795 23.3955 3.61338 23.3955 2.88228V2.02463C23.3955 1.29352 22.805 0.703015 22.0739 0.703015H10.4886Z" fill="#121212"/>
<path fill-rule="evenodd" clip-rule="evenodd" d="M23.7047 20.8368H16.5483C15.7188 20.8368 15.058 20.176 15.058 19.3606V10.9669C15.058 10.1514 15.7188 9.47656 16.5483 9.47656H23.7047C24.0843 9.47656 24.0843 10.039 23.7047 10.039H16.5483C16.0281 10.039 15.6204 10.4607 15.6204 10.9669V19.3606C15.6204 19.8667 16.0281 20.2745 16.5483 20.2745H23.7047C24.0843 20.2745 24.0843 20.8368 23.7047 20.8368Z" fill="#121212"/>
<path fill-rule="evenodd" clip-rule="evenodd" d="M19.529 17.8411C18.9807 17.8411 18.5448 17.4053 18.5448 16.871V16.1399H17.8137C16.5343 16.1399 16.5343 14.1856 17.8137 14.1856H18.5448V13.4545C18.5448 12.161 20.4991 12.161 20.4991 13.4545V14.1856H21.2302C22.5237 14.1856 22.5237 16.1399 21.2302 16.1399H20.4991V16.871C20.4991 17.4053 20.0633 17.8411 19.529 17.8411ZM17.8137 14.748C17.2654 14.748 17.2654 15.5775 17.8137 15.5775C19.304 15.5775 19.1072 15.3807 19.1072 16.871C19.1072 17.4193 19.9367 17.4193 19.9367 16.871C19.9367 15.3807 19.7399 15.5775 21.2302 15.5775C21.7786 15.5775 21.7786 14.748 21.2302 14.748C19.7399 14.748 19.9367 14.9448 19.9367 13.4545C19.9367 12.9062 19.1072 12.9062 19.1072 13.4545C19.1072 14.9448 19.304 14.748 17.8137 14.748Z" fill="#121212"/>
<path fill-rule="evenodd" clip-rule="evenodd" d="M11.6555 23.8596H1.75747C0.787346 23.8596 0 23.0722 0 22.1162V10.6715C0 9.70141 0.787346 8.91406 1.75747 8.91406H11.6555C12.6257 8.91406 13.413 9.70141 13.413 10.6715V22.1162C13.413 23.0722 12.6257 23.8596 11.6555 23.8596ZM1.75747 9.47645C1.09666 9.47645 0.56239 10.0107 0.56239 10.6715V22.1162C0.56239 22.7629 1.09666 23.2972 1.75747 23.2972H11.6555C12.3163 23.2972 12.8506 22.7629 12.8506 22.1162V10.6715C12.8506 10.0107 12.3163 9.47645 11.6555 9.47645H1.75747Z" fill="#121212"/>
<path fill-rule="evenodd" clip-rule="evenodd" d="M6.70649 23.8604C6.55183 23.8604 6.42529 23.7338 6.42529 23.5792V9.19604C6.42529 8.83049 6.98768 8.83049 6.98768 9.19604V23.5792C6.98768 23.7338 6.86115 23.8604 6.70649 23.8604Z" fill="#121212"/>
<path fill-rule="evenodd" clip-rule="evenodd" d="M3.50084 15.5484C2.362 15.5484 1.44812 14.6345 1.44812 13.5098C1.44812 12.385 2.362 11.457 3.50084 11.457C4.62562 11.457 5.53951 12.385 5.53951 13.5098C5.53951 14.6345 4.62562 15.5484 3.50084 15.5484ZM3.50084 12.0194C2.67132 12.0194 2.01051 12.6943 2.01051 13.5098C2.01051 14.3252 2.67132 14.986 3.50084 14.986C4.31631 14.986 4.97712 14.3252 4.97712 13.5098C4.97712 12.6943 4.31631 12.0194 3.50084 12.0194Z" fill="#121212"/>
<path fill-rule="evenodd" clip-rule="evenodd" d="M2.44639 14.8462C2.19332 14.8462 2.06678 14.5369 2.24956 14.3541L4.34446 12.2592C4.6116 11.9921 5.00527 12.3998 4.73813 12.6529L2.64323 14.7618C2.58699 14.8181 2.51669 14.8462 2.44639 14.8462Z" fill="#121212"/>
<path fill-rule="evenodd" clip-rule="evenodd" d="M9.91208 15.5484C8.7873 15.5484 7.87341 14.6345 7.87341 13.5098C7.87341 12.385 8.7873 11.457 9.91208 11.457C11.0509 11.457 11.9648 12.385 11.9648 13.5098C11.9648 14.6345 11.0509 15.5484 9.91208 15.5484ZM9.91208 12.0194C9.09661 12.0194 8.4358 12.6943 8.4358 13.5098C8.4358 14.3252 9.09661 14.986 9.91208 14.986C10.7416 14.986 11.4024 14.3252 11.4024 13.5098C11.4024 12.6943 10.7416 12.0194 9.91208 12.0194Z" fill="#121212"/>
<path fill-rule="evenodd" clip-rule="evenodd" d="M8.67491 15.0445C8.42183 15.0445 8.2953 14.7352 8.47807 14.5525L10.9666 12.0639C11.2338 11.7967 11.6275 12.2045 11.3603 12.4576L8.87175 14.9602C8.81551 15.0164 8.74521 15.0445 8.67491 15.0445Z" fill="#121212"/>
<path fill-rule="evenodd" clip-rule="evenodd" d="M3.50084 21.314C2.362 21.314 1.44812 20.4002 1.44812 19.2754C1.44812 18.1365 2.362 17.2227 3.50084 17.2227C4.62562 17.2227 5.53951 18.1365 5.53951 19.2754C5.53951 20.4002 4.62562 21.314 3.50084 21.314ZM3.50084 17.785C2.67132 17.785 2.01051 18.4459 2.01051 19.2754C2.01051 20.0908 2.67132 20.7517 3.50084 20.7517C4.31631 20.7517 4.97712 20.0908 4.97712 19.2754C4.97712 18.4459 4.31631 17.785 3.50084 17.785Z" fill="#121212"/>
<path fill-rule="evenodd" clip-rule="evenodd" d="M2.44639 20.5956C2.19332 20.5956 2.06678 20.3003 2.24956 20.1176L4.34446 18.0227C4.6116 17.7555 5.00527 18.1492 4.73813 18.4163L2.64323 20.5112C2.58699 20.5675 2.51669 20.5956 2.44639 20.5956Z" fill="#121212"/>
<path fill-rule="evenodd" clip-rule="evenodd" d="M9.91208 21.314C8.7873 21.314 7.87341 20.4002 7.87341 19.2754C7.87341 18.1365 8.7873 17.2227 9.91208 17.2227C11.0509 17.2227 11.9648 18.1365 11.9648 19.2754C11.9648 20.4002 11.0509 21.314 9.91208 21.314ZM9.91208 17.785C9.09661 17.785 8.4358 18.4459 8.4358 19.2754C8.4358 20.0908 9.09661 20.7517 9.91208 20.7517C10.7416 20.7517 11.4024 20.0908 11.4024 19.2754C11.4024 18.4459 10.7416 17.785 9.91208 17.785Z" fill="#121212"/>
<path fill-rule="evenodd" clip-rule="evenodd" d="M8.67491 20.794C8.42183 20.794 8.2953 20.4987 8.47807 20.3159L10.9666 17.8274C11.2338 17.5602 11.6275 17.9539 11.3603 18.221L8.87175 20.7096C8.81551 20.7658 8.74521 20.794 8.67491 20.794Z" fill="#121212"/>
<path fill-rule="evenodd" clip-rule="evenodd" d="M10.8963 4.77995C10.7417 4.77995 10.6151 4.65341 10.6151 4.49876V0.421429C10.6151 0.0418154 11.1775 0.0418154 11.1775 0.421429V4.49876C11.1775 4.65341 11.051 4.77995 10.8963 4.77995Z" fill="#121212"/>
<path fill-rule="evenodd" clip-rule="evenodd" d="M13.0474 4.77995C12.8928 4.77995 12.7662 4.65341 12.7662 4.49876V0.421429C12.7662 0.0418154 13.3286 0.0418154 13.3286 0.421429V4.49876C13.3286 4.65341 13.2021 4.77995 13.0474 4.77995Z" fill="#121212"/>
<path fill-rule="evenodd" clip-rule="evenodd" d="M15.1986 4.77995C15.0439 4.77995 14.9174 4.65341 14.9174 4.49876V0.421429C14.9174 0.0418154 15.4797 0.0418154 15.4797 0.421429V4.49876C15.4797 4.65341 15.3532 4.77995 15.1986 4.77995Z" fill="#121212"/>
<path fill-rule="evenodd" clip-rule="evenodd" d="M17.3498 4.77995C17.1951 4.77995 17.0686 4.65341 17.0686 4.49876V0.421429C17.0686 0.0418154 17.631 0.0418154 17.631 0.421429V4.49876C17.631 4.65341 17.5045 4.77995 17.3498 4.77995Z" fill="#121212"/>
<path fill-rule="evenodd" clip-rule="evenodd" d="M19.515 4.77995C19.3603 4.77995 19.2338 4.65341 19.2338 4.49876V0.421429C19.2338 0.0418154 19.7962 0.0418154 19.7962 0.421429V4.49876C19.7962 4.65341 19.6696 4.77995 19.515 4.77995Z" fill="#121212"/>
<path fill-rule="evenodd" clip-rule="evenodd" d="M21.6661 4.77995C21.5114 4.77995 21.3849 4.65341 21.3849 4.49876V0.421429C21.3849 0.0418154 21.9473 0.0418154 21.9473 0.421429V4.49876C21.9473 4.65341 21.8207 4.77995 21.6661 4.77995Z" fill="#121212"/>
</g>
<defs>
<clipPath id="clip0_955_1929">
<rect width="24" height="24" fill="white"/>
</clipPath>
</defs>
</svg>
