<svg width="24" height="24" viewBox="0 0 24 24" fill="none" xmlns="http://www.w3.org/2000/svg">
<g clip-path="url(#clip0_2200_55071)">
<path d="M17.5 24C13.916 24 11 21.084 11 17.5C11 13.916 13.916 11 17.5 11C21.084 11 24 13.916 24 17.5C24 21.084 21.084 24 17.5 24ZM17.5 12.5C14.743 12.5 12.5 14.743 12.5 17.5C12.5 20.257 14.743 22.5 17.5 22.5C20.257 22.5 22.5 20.257 22.5 17.5C22.5 14.743 20.257 12.5 17.5 12.5Z" fill="#3563AD"/>
<path d="M19.25 20.5C19.058 20.5 18.866 20.427 18.72 20.28L16.97 18.53C16.829 18.389 16.75 18.198 16.75 18V14.75C16.75 14.336 17.086 14 17.5 14C17.914 14 18.25 14.336 18.25 14.75V17.689L19.78 19.219C20.073 19.512 20.073 19.987 19.78 20.28C19.634 20.427 19.442 20.5 19.25 20.5Z" fill="#3563AD"/>
<path d="M6.62 24C2.97 24 0 21.03 0 17.38C0 15.613 0.688 13.951 1.939 12.7L12.7 1.94C13.95 0.689 15.612 0 17.38 0C21.03 0 24 2.97 24 6.62C24 7.911 23.621 9.167 22.904 10.256C22.773 10.476 22.533 10.625 22.259 10.625C21.845 10.625 21.509 10.294 21.509 9.88V9.643L21.635 9.454C22.201 8.606 22.5 7.626 22.5 6.62C22.5 3.797 20.203 1.5 17.38 1.5C16.014 1.5 14.729 2.033 13.761 3L3 13.76C2.033 14.728 1.5 16.013 1.5 17.38C1.5 20.203 3.797 22.5 6.62 22.5C7.626 22.5 8.606 22.201 9.454 21.636L9.642 21.51H9.87C10.284 21.51 10.625 21.846 10.625 22.26C10.625 22.553 10.46 22.806 10.217 22.93C9.138 23.63 7.896 24 6.62 24Z" fill="#3563AD"/>
<path d="M11.1399 11.8898C10.9479 11.8898 10.7549 11.8158 10.6089 11.6688L7.47888 8.52875C7.18688 8.23575 7.18688 7.76075 7.47988 7.46875C7.77288 7.17575 8.24789 7.17775 8.54089 7.47075L11.6709 10.6108C11.9629 10.9038 11.9629 11.3788 11.6689 11.6718C11.5219 11.8168 11.3309 11.8898 11.1399 11.8898Z" fill="#3563AD"/>
</g>
<defs>
<clipPath id="clip0_2200_55071">
<rect width="24" height="24" fill="white"/>
</clipPath>
</defs>
</svg>
