<svg width="24" height="24" viewBox="0 0 24 24" fill="none" xmlns="http://www.w3.org/2000/svg">
<path d="M20 10.25C20.4142 10.25 20.75 10.5858 20.75 11C20.75 15.5798 17.2314 19.3383 12.75 19.7188V21.25H15C15.4142 21.25 15.75 21.5858 15.75 22C15.75 22.4142 15.4142 22.75 15 22.75H9C8.58579 22.75 8.25 22.4142 8.25 22C8.25 21.5858 8.58579 21.25 9 21.25H11.25V19.7188C6.7686 19.3383 3.25 15.5798 3.25 11C3.25 10.5858 3.58579 10.25 4 10.25C4.41421 10.25 4.75 10.5858 4.75 11C4.75 15.0041 7.99594 18.25 12 18.25C16.0041 18.25 19.25 15.0041 19.25 11C19.25 10.5858 19.5858 10.25 20 10.25ZM12 1.25C15.1756 1.25 17.75 3.82436 17.75 7V11C17.75 14.1756 15.1756 16.75 12 16.75C8.82436 16.75 6.25 14.1756 6.25 11V7C6.25 3.82436 8.82436 1.25 12 1.25ZM12 2.75C9.65279 2.75 7.75 4.65279 7.75 7V11C7.75 13.3472 9.65279 15.25 12 15.25C14.0912 15.25 15.8283 13.7394 16.1826 11.75H14C13.5858 11.75 13.25 11.4142 13.25 11C13.25 10.5858 13.5858 10.25 14 10.25H16.25V7.75H14C13.5858 7.75 13.25 7.41421 13.25 7C13.25 6.58579 13.5858 6.25 14 6.25H16.1826C15.8283 4.26061 14.0912 2.75 12 2.75Z" fill="#121212"/>
</svg>
