<svg width="24" height="24" viewBox="0 0 24 24" fill="none" xmlns="http://www.w3.org/2000/svg">
<path d="M17 1.125C17.5523 1.125 18 1.57272 18 2.125V2.50781C18.8526 2.63501 19.5738 2.89608 20.1514 3.47363C20.7533 4.07555 21.0128 4.83329 21.1338 5.7334C21.2503 6.60034 21.25 7.70282 21.25 9.07031V13.1797C21.25 13.4969 21.2495 13.7998 21.248 14.0889C21.2486 14.1009 21.25 14.1129 21.25 14.125V16.1797C21.25 17.5472 21.2503 18.6497 21.1338 19.5166C21.0128 20.4167 20.7533 21.1744 20.1514 21.7764C19.5494 22.3783 18.7917 22.6378 17.8916 22.7588C17.0247 22.8753 15.9222 22.875 14.5547 22.875L9.44531 22.875C8.07782 22.875 6.97534 22.8753 6.1084 22.7588C5.20829 22.6378 4.45055 22.3783 3.84863 21.7764C3.24672 21.1745 2.98723 20.4167 2.86621 19.5166C2.74968 18.6497 2.74998 17.5472 2.75 16.1797L2.75 14.125C2.75 14.1129 2.75041 14.1008 2.75098 14.0889C2.74955 13.7998 2.75 13.4969 2.75 13.1797L2.75 9.07031C2.74998 7.70283 2.74968 6.60033 2.86621 5.7334C2.98723 4.83329 3.24672 4.07555 3.84863 3.47363C4.42619 2.89608 5.1474 2.63501 6 2.50781V2.125C6 1.57272 6.44772 1.125 7 1.125C7.55228 1.125 8 1.57272 8 2.125V2.38281C8.44461 2.37648 8.92583 2.37499 9.44531 2.375H11V2.125C11 1.57272 11.4477 1.125 12 1.125C12.5523 1.125 13 1.57272 13 2.125V2.375H14.5547C15.0742 2.37499 15.5554 2.37648 16 2.38281V2.125C16 1.57272 16.4477 1.125 17 1.125ZM19.6631 19.1709C19.1555 19.5003 18.5634 19.6685 17.8916 19.7588C17.0247 19.8753 15.9222 19.875 14.5547 19.875L9.44531 19.875C8.07782 19.875 6.97534 19.8753 6.1084 19.7588C5.43628 19.6684 4.8437 19.5006 4.33594 19.1709C4.34156 19.2204 4.34713 19.2689 4.35352 19.3164C4.45217 20.0502 4.63242 20.4391 4.90918 20.7158C5.18594 20.9926 5.57482 21.1728 6.30859 21.2715C7.0639 21.373 8.06485 21.375 9.5 21.375L14.5 21.375C15.9352 21.375 16.9361 21.373 17.6914 21.2715C18.4252 21.1728 18.8141 20.9926 19.0908 20.7158C19.3676 20.4391 19.5478 20.0502 19.6465 19.3164C19.6529 19.2689 19.6575 19.2204 19.6631 19.1709ZM8 14.375C7.58579 14.375 7.25 14.7108 7.25 15.125C7.25 15.5392 7.58579 15.875 8 15.875H12C12.4142 15.875 12.75 15.5392 12.75 15.125C12.75 14.7108 12.4142 14.375 12 14.375H8ZM8 9.375C7.58579 9.375 7.25 9.71079 7.25 10.125C7.25 10.5392 7.58579 10.875 8 10.875L16 10.875C16.4142 10.875 16.75 10.5392 16.75 10.125C16.75 9.71079 16.4142 9.375 16 9.375L8 9.375Z" fill="#F59E0B"/>
</svg>
