<svg width="24" height="25" viewBox="0 0 24 25" fill="none" xmlns="http://www.w3.org/2000/svg">
<path d="M11 23.25C11.435 23.25 11.8196 23.1748 12.2305 23.042C12.6246 22.9146 12.8412 22.4918 12.7139 22.0977C12.5864 21.7036 12.1636 21.4879 11.7695 21.6152C11.763 21.6173 11.7564 21.6191 11.75 21.6211L11.75 12.1777C12.6351 12.0115 13.5552 11.567 14.835 10.9473C14.8896 10.9208 14.945 10.8933 15.001 10.8662L17.9766 9.42676C18.4539 9.19583 18.8843 8.98462 19.25 8.78613V12C19.25 12.4142 19.5858 12.75 20 12.75C20.4142 12.75 20.75 12.4142 20.75 12L20.75 7.5C20.75 7.42919 20.7361 7.36182 20.7178 7.29688C20.7376 7.20324 20.75 7.10463 20.75 7C20.75 6.29795 20.2648 5.85137 19.8184 5.5498C19.3725 5.24874 18.7316 4.93853 17.9766 4.57324L15.001 3.13379C14.945 3.10669 14.8896 3.0792 14.835 3.05273C13.1932 2.2577 12.1437 1.75 11 1.75C9.85626 1.75 8.8068 2.2577 7.16504 3.05273C7.11037 3.07921 7.05503 3.10669 6.99902 3.13379L4.07813 4.54688C4.06001 4.55564 4.04142 4.56454 4.02344 4.57324C3.26844 4.93853 2.62745 5.24874 2.18164 5.5498C1.73518 5.85137 1.25 6.29795 1.25 7C1.25 7.10456 1.26147 7.2033 1.28125 7.29688C1.26296 7.36174 1.25 7.42928 1.25 7.5L1.25 17.6611C1.25 18.7815 2.06726 19.5272 3.07324 20.1309C4.09163 20.7419 5.59036 21.3742 7.4834 22.1738L7.54492 22.2002C7.59522 22.2214 7.64526 22.2429 7.69434 22.2637C9.11321 22.8635 10.028 23.25 11 23.25ZM4.73145 8.10254C3.90716 7.70368 3.36556 7.4401 3.02051 7.20703C2.87228 7.10689 2.80074 7.03868 2.76758 7C2.80074 6.96132 2.87228 6.89311 3.02051 6.79297C3.36556 6.5599 3.90716 6.29632 4.73145 5.89746L7.65234 4.4834C9.52018 3.57957 10.2424 3.25 11 3.25C11.7576 3.25 12.4798 3.57957 14.3477 4.4834L14.3516 4.48633L5.94336 8.69043L4.73145 8.10254ZM11 10.75C10.2424 10.75 9.52018 10.4204 7.65234 9.5166L7.64746 9.51563L16.0557 5.31152L17.2686 5.89746C18.0928 6.29632 18.6344 6.5599 18.9795 6.79297C19.1277 6.89311 19.1993 6.96132 19.2324 7C19.1993 7.03868 19.1277 7.10689 18.9795 7.20703C18.6344 7.4401 18.0928 7.70368 17.2686 8.10254L14.3477 9.5166C12.4798 10.4204 11.7576 10.75 11 10.75ZM10.25 21.6377C9.77113 21.506 9.14803 21.2489 8.12891 20.8184C6.16009 19.9867 4.76087 19.3945 3.84473 18.8447C2.90516 18.2809 2.75 17.9232 2.75 17.6611L2.75 8.78613C3.11566 8.98462 3.54615 9.19583 4.02344 9.42676L6.99902 10.8662C7.05503 10.8933 7.11037 10.9208 7.16504 10.9473C8.44483 11.567 9.36487 12.0115 10.25 12.1777L10.25 21.6377ZM6.66504 14.1709C7.03538 14.3559 7.48559 14.2061 7.6709 13.8359C7.85611 13.4655 7.70628 13.0144 7.33594 12.8291L5.33594 11.8291C4.96545 11.6439 4.51434 11.7946 4.3291 12.165C4.14411 12.5355 4.29466 12.9857 4.66504 13.1709L6.66504 14.1709ZM18 23.25C20.6234 23.25 22.75 21.1234 22.75 18.5C22.75 15.8766 20.6234 13.75 18 13.75C15.3766 13.75 13.25 15.8766 13.25 18.5C13.25 21.1234 15.3766 23.25 18 23.25ZM18 21.75C16.2051 21.75 14.75 20.2949 14.75 18.5C14.75 16.7051 16.2051 15.25 18 15.25C19.7949 15.25 21.25 16.7051 21.25 18.5C21.25 20.2949 19.7949 21.75 18 21.75ZM17.4697 19.0313C17.7626 19.3238 18.2374 19.3238 18.5303 19.0313L19.4355 18.125C19.7284 17.8321 19.7284 17.3573 19.4355 17.0645C19.1426 16.7718 18.6678 16.7716 18.375 17.0645L17.4697 17.9697C17.1768 18.2626 17.1768 18.7384 17.4697 19.0313Z" fill="#121212"/>
</svg>
