<svg width="24" height="25" viewBox="0 0 24 25" fill="none" xmlns="http://www.w3.org/2000/svg">
<path d="M12 23.25C12.972 23.25 13.8868 22.8635 15.3057 22.2637C15.3547 22.2429 15.4048 22.2214 15.4551 22.2002L15.5176 22.1738C17.4104 21.3743 18.9085 20.7419 19.9268 20.1309C20.9327 19.5272 21.75 18.7815 21.75 17.6611L21.75 7.5C21.75 7.42919 21.7361 7.36182 21.7178 7.29688C21.7376 7.20324 21.75 7.10463 21.75 7C21.75 6.29795 21.2648 5.85137 20.8184 5.5498C20.3725 5.24874 19.7316 4.93853 18.9766 4.57324L16.001 3.13379C15.945 3.10669 15.8896 3.0792 15.835 3.05273C14.1932 2.2577 13.1437 1.75 12 1.75C10.8563 1.75 9.8068 2.2577 8.16504 3.05273C8.11037 3.07921 8.05503 3.10669 7.99902 3.13379L5.07813 4.54688C5.06001 4.55564 5.04142 4.56454 5.02344 4.57324C4.26844 4.93853 3.62745 5.24874 3.18164 5.5498C2.73518 5.85137 2.25 6.29795 2.25 7C2.25 7.10456 2.26147 7.2033 2.28125 7.29688C2.26296 7.36174 2.25 7.42928 2.25 7.5L2.25 17.6611C2.25 18.7815 3.06726 19.5272 4.07324 20.1309C5.09153 20.7419 6.58964 21.3743 8.48242 22.1738L8.54492 22.2002C8.59522 22.2214 8.64527 22.2429 8.69434 22.2637C10.1132 22.8635 11.028 23.25 12 23.25ZM5.73145 8.10254C4.90716 7.70368 4.36556 7.4401 4.02051 7.20703C3.87228 7.10689 3.80074 7.03868 3.76758 7C3.80074 6.96132 3.87228 6.89311 4.02051 6.79297C4.36556 6.5599 4.90716 6.29632 5.73145 5.89746L8.65234 4.4834C10.5202 3.57957 11.2424 3.25 12 3.25C12.7576 3.25 13.4798 3.57957 15.3477 4.4834L15.3516 4.48633L6.94336 8.69043L5.73145 8.10254ZM12 10.75C11.2424 10.75 10.5202 10.4204 8.65234 9.5166L8.64746 9.51563L17.0557 5.31152L18.2686 5.89746C19.0928 6.29632 19.6344 6.5599 19.9795 6.79297C20.1277 6.89311 20.1993 6.96132 20.2324 7C20.1993 7.03868 20.1277 7.10689 19.9795 7.20703C19.6344 7.4401 19.0928 7.70368 18.2686 8.10254L15.3477 9.5166C13.4798 10.4204 12.7576 10.75 12 10.75ZM11.25 21.6377C10.7711 21.506 10.148 21.2489 9.12891 20.8184C7.16009 19.9867 5.76087 19.3945 4.84473 18.8447C3.90516 18.2809 3.75 17.9232 3.75 17.6611L3.75 8.78613C4.11566 8.98462 4.54615 9.19583 5.02344 9.42676L7.99902 10.8662C8.05503 10.8933 8.11037 10.9208 8.16504 10.9473C9.44483 11.567 10.3649 12.0115 11.25 12.1777L11.25 21.6377ZM12.75 12.1777C13.6351 12.0115 14.5552 11.567 15.835 10.9473C15.8896 10.9208 15.945 10.8933 16.001 10.8662L18.9766 9.42676C19.4539 9.19583 19.8843 8.98462 20.25 8.78613V17.6611C20.25 17.9232 20.0948 18.2809 19.1553 18.8447C18.2391 19.3945 16.8399 19.9867 14.8711 20.8184C13.852 21.2489 13.2289 21.506 12.75 21.6377L12.75 12.1777ZM7.66504 14.1709C8.03538 14.3559 8.48559 14.2061 8.6709 13.8359C8.85611 13.4655 8.70628 13.0144 8.33594 12.8291L6.33594 11.8291C5.96545 11.6439 5.51434 11.7946 5.3291 12.165C5.14411 12.5355 5.29466 12.9857 5.66504 13.1709L7.66504 14.1709Z" fill="#121212"/>
</svg>
