<svg width="24" height="25" viewBox="0 0 24 25" fill="none" xmlns="http://www.w3.org/2000/svg">
<path d="M12 23.25C12.1989 23.25 12.3896 23.1709 12.5303 23.0303C12.6709 22.8896 12.75 22.6989 12.75 22.5L12.75 12.1777C13.6351 12.0115 14.5552 11.567 15.835 10.9473C15.8896 10.9208 15.945 10.8933 16.001 10.8662L18.9766 9.42676C19.4539 9.19583 19.8843 8.98462 20.25 8.78613V12.5C20.25 12.9142 20.5858 13.25 21 13.25C21.4142 13.25 21.75 12.9142 21.75 12.5L21.75 7.5C21.75 7.42919 21.7361 7.36182 21.7178 7.29688C21.7376 7.20324 21.75 7.10463 21.75 7C21.75 6.29795 21.2648 5.85137 20.8184 5.5498C20.3725 5.24874 19.7316 4.93853 18.9766 4.57324L16.001 3.13379C15.945 3.10669 15.8896 3.0792 15.835 3.05273C14.1932 2.2577 13.1437 1.75 12 1.75C10.8563 1.75 9.8068 2.2577 8.16504 3.05273C8.11037 3.07921 8.05503 3.10669 7.99902 3.13379L5.07813 4.54688C5.06001 4.55564 5.04142 4.56454 5.02344 4.57324C4.26844 4.93853 3.62745 5.24874 3.18164 5.5498C2.73518 5.85137 2.25 6.29795 2.25 7C2.25 7.10456 2.26147 7.2033 2.28125 7.29688C2.26296 7.36174 2.25 7.42928 2.25 7.5L2.25 17.6611C2.25 18.7815 3.06726 19.5272 4.07324 20.1309C5.09163 20.7419 6.59036 21.3742 8.4834 22.1738L8.54492 22.2002C8.59522 22.2214 8.64526 22.2429 8.69434 22.2637C10.1132 22.8635 11.028 23.25 12 23.25ZM5.73145 8.10254C4.90716 7.70368 4.36556 7.4401 4.02051 7.20703C3.87228 7.10689 3.80074 7.03868 3.76758 7C3.80074 6.96132 3.87228 6.89311 4.02051 6.79297C4.36556 6.5599 4.90716 6.29632 5.73145 5.89746L8.65234 4.4834C10.5202 3.57957 11.2424 3.25 12 3.25C12.7576 3.25 13.4798 3.57957 15.3477 4.4834L15.3516 4.48633L6.94336 8.69043L5.73145 8.10254ZM12 10.75C11.2424 10.75 10.5202 10.4204 8.65234 9.5166L8.64746 9.51563L17.0557 5.31152L18.2686 5.89746C19.0928 6.29632 19.6344 6.5599 19.9795 6.79297C20.1277 6.89311 20.1993 6.96132 20.2324 7C20.1993 7.03868 20.1277 7.10689 19.9795 7.20703C19.6344 7.4401 19.0928 7.70368 18.2686 8.10254L15.3477 9.5166C13.4798 10.4204 12.7576 10.75 12 10.75ZM11.25 21.6377C10.7711 21.506 10.148 21.2489 9.12891 20.8184C7.16009 19.9867 5.76087 19.3945 4.84473 18.8447C3.90516 18.2809 3.75 17.9232 3.75 17.6611L3.75 8.78613C4.11566 8.98462 4.54615 9.19583 5.02344 9.42676L7.99902 10.8662C8.05503 10.8933 8.11037 10.9208 8.16504 10.9473C9.44483 11.567 10.3649 12.0115 11.25 12.1777L11.25 21.6377ZM7.66504 14.1709C8.03538 14.3559 8.48559 14.2061 8.6709 13.8359C8.85611 13.4655 8.70628 13.0144 8.33594 12.8291L6.33594 11.8291C5.96545 11.6439 5.51434 11.7946 5.3291 12.165C5.14411 12.5355 5.29466 12.9857 5.66504 13.1709L7.66504 14.1709ZM16.7148 22.249C16.9994 22.2624 17.2668 22.1132 17.4053 21.8643L17.4062 21.8623L17.4121 21.8535L17.4336 21.8145C17.4533 21.7798 17.4835 21.728 17.5225 21.6611C17.6005 21.5273 17.7155 21.3337 17.8613 21.0977C18.1535 20.6246 18.5673 19.9851 19.0547 19.3174C19.5434 18.6478 20.0969 17.9621 20.668 17.3896C21.2488 16.8075 21.8014 16.3896 22.2813 16.1953C22.6652 16.0399 22.8507 15.6027 22.6953 15.2188C22.5399 14.8349 22.1026 14.6494 21.7188 14.8047C20.9634 15.1104 20.2416 15.6935 19.6064 16.3301C18.9618 16.9762 18.3575 17.7275 17.8428 18.4326C17.4283 19.0004 17.0655 19.5464 16.7803 19.9961C16.515 19.6141 16.2505 19.3434 16.001 19.1533C15.7719 18.9788 15.5603 18.8763 15.3828 18.8184C15.2949 18.7897 15.2173 18.7726 15.1523 18.7627C15.12 18.7578 15.0909 18.7548 15.0654 18.7529C15.0527 18.752 15.0402 18.7514 15.0293 18.751L15.0137 18.75H15C14.5859 18.75 14.2501 19.0859 14.25 19.5C14.25 19.8882 14.5449 20.2075 14.9229 20.2461C14.9438 20.2537 15.0037 20.2788 15.0928 20.3467C15.292 20.4985 15.6603 20.8816 16.0625 21.8008C16.1768 22.062 16.4301 22.2355 16.7148 22.249Z" fill="#121212"/>
</svg>
