<svg width="24" height="24" viewBox="0 0 24 24" fill="none" xmlns="http://www.w3.org/2000/svg">
<path d="M11.9999 17.25C12.4141 17.25 12.7499 17.5858 12.7499 18V22C12.7499 22.4142 12.4141 22.75 11.9999 22.75C11.5857 22.7499 11.2499 22.4142 11.2499 22V18C11.2499 17.5858 11.5857 17.2501 11.9999 17.25ZM15.9999 18.25C16.4141 18.25 16.7499 18.5858 16.7499 19V21C16.7499 21.4142 16.4141 21.75 15.9999 21.75C15.5857 21.7499 15.2499 21.4142 15.2499 21V19C15.2499 18.5858 15.5857 18.2501 15.9999 18.25ZM7.99988 16.25C8.41409 16.25 8.74988 16.5858 8.74988 17V19C8.74988 19.4142 8.41409 19.75 7.99988 19.75C7.58572 19.7499 7.24988 19.4142 7.24988 19V17C7.24988 16.5858 7.58572 16.2501 7.99988 16.25ZM6.99988 1.25C9.00914 1.25 10.8715 1.64828 12.3192 2.33008C13.5365 2.90339 15.1751 3.26658 16.9999 3.2666C18.0113 3.2666 18.969 3.1551 19.8309 2.95605C21.1655 2.64782 22.7496 3.57111 22.7499 5.13965L22.7499 16.1084C22.7505 16.805 22.7513 17.3648 22.4843 17.9307C22.3248 18.2684 22.0007 18.6783 21.7089 18.9111C21.2205 19.3008 20.7745 19.4043 20.2274 19.5303C20.2082 19.5347 20.1883 19.5385 20.1688 19.543C19.826 19.6221 19.4718 19.6891 19.1083 19.7422C18.6985 19.802 18.3176 19.5182 18.2577 19.1084C18.1978 18.6986 18.4817 18.3177 18.8915 18.2578C19.2153 18.2105 19.5292 18.1517 19.8309 18.082C20.4393 17.9415 20.5705 17.9001 20.7733 17.7383C20.8855 17.6487 21.0659 17.4213 21.1278 17.29C21.2355 17.0618 21.2499 16.8513 21.2499 16.0029L21.2499 5.13965C21.2496 4.72235 20.7539 4.28193 20.1688 4.41699C19.1915 4.64273 18.1202 4.7666 16.9999 4.7666C14.9906 4.76658 13.1283 4.36836 11.6805 3.68652C10.4632 3.11321 8.82466 2.75 6.99988 2.75C5.98842 2.75001 5.03078 2.86147 4.16882 3.06055C3.56048 3.20105 3.42924 3.24151 3.22644 3.40332C3.11432 3.49278 2.93394 3.72121 2.87195 3.85254C2.76433 4.08068 2.74988 4.29138 2.74988 5.13965L2.74988 16.0029C2.75023 16.4201 3.24602 16.8605 3.83093 16.7256C4.1737 16.6464 4.52806 16.5794 4.89148 16.5264C5.30135 16.4665 5.68221 16.7503 5.74207 17.1602C5.80191 17.57 5.51814 17.9509 5.10828 18.0107C4.78437 18.058 4.47059 18.1168 4.16882 18.1865C2.83429 18.4948 1.25018 17.5714 1.24988 16.0029L1.24988 5.03418C1.24922 4.33755 1.2484 3.77781 1.5155 3.21191C1.6749 2.87425 1.99907 2.46439 2.29089 2.23145L2.47253 2.09766C2.89261 1.8152 3.29448 1.7226 3.77332 1.6123C3.79235 1.60792 3.81164 1.60406 3.83093 1.59961C4.80825 1.37388 5.87962 1.25001 6.99988 1.25ZM11.9999 7.25C13.7948 7.25 15.2499 8.70507 15.2499 10.5C15.2499 12.2949 13.7948 13.75 11.9999 13.75C10.205 13.7499 8.74988 12.2949 8.74988 10.5C8.74988 8.70512 10.205 7.25007 11.9999 7.25ZM18.4999 10.499C19.0522 10.499 19.4999 10.9467 19.4999 11.499V11.5078C19.4999 12.0601 19.0522 12.5078 18.4999 12.5078C17.9477 12.5077 17.4999 12.0601 17.4999 11.5078V11.499C17.4999 10.9468 17.9477 10.4991 18.4999 10.499ZM11.9999 8.75C11.0334 8.75007 10.2499 9.53354 10.2499 10.5C10.2499 11.4665 11.0334 12.2499 11.9999 12.25C12.9664 12.25 13.7499 11.4665 13.7499 10.5C13.7499 9.5335 12.9664 8.75 11.9999 8.75ZM5.49988 8.49121C6.05216 8.49121 6.49988 8.93893 6.49988 9.49121V9.5C6.49988 10.0523 6.05216 10.5 5.49988 10.5C4.94765 10.4999 4.49988 10.0522 4.49988 9.5V9.49121C4.49988 8.93897 4.94765 8.49128 5.49988 8.49121Z" fill="#121212"/>
</svg>
