<svg width="22" height="22" viewBox="0 0 22 22" fill="none" xmlns="http://www.w3.org/2000/svg">
<path d="M4.19409 13.8369C6.76593 12.3056 9.83261 11.8836 12.6746 12.5654C13.0772 12.662 13.3256 13.0671 13.2292 13.4697C13.1326 13.8725 12.7277 14.1211 12.325 14.0244C9.85227 13.4311 7.18799 13.8005 4.96167 15.126C4.79382 15.2259 4.6094 15.3302 4.41675 15.4395C3.70414 15.8437 2.87184 16.316 2.29175 16.8838C1.93169 17.2362 1.77822 17.5273 1.75366 17.752C1.73423 17.9303 1.77979 18.2242 2.23022 18.6533C3.266 19.6401 4.31825 20.2499 5.59058 20.25H11.9998C12.414 20.25 12.7498 20.5858 12.7498 21C12.7497 21.4142 12.414 21.75 11.9998 21.75H5.59058C3.77238 21.7499 2.36647 20.8553 1.19507 19.7393C0.51626 19.0925 0.177714 18.3646 0.262451 17.5889C0.342197 16.8593 0.781252 16.2634 1.24292 15.8115C1.98108 15.0891 3.05852 14.4812 3.77124 14.0791C3.93385 13.9874 4.07781 13.9062 4.19409 13.8369ZM17.4998 13.25C19.847 13.25 21.7498 15.1528 21.7498 17.5C21.7498 19.8472 19.847 21.75 17.4998 21.75C15.1525 21.75 13.2498 19.8472 13.2498 17.5C13.2498 15.1528 15.1525 13.25 17.4998 13.25ZM15.0984 16.1592C14.8764 16.5559 14.7498 17.0131 14.7498 17.5C14.7498 19.0188 15.981 20.25 17.4998 20.25C17.9866 20.25 18.4439 20.1233 18.8406 19.9014L15.0984 16.1592ZM17.4998 14.75C17.0129 14.75 16.5556 14.8767 16.1589 15.0986L19.9011 18.8408C20.1231 18.4441 20.2498 17.9869 20.2498 17.5C20.2498 15.9812 19.0185 14.75 17.4998 14.75ZM10.9998 0.25C13.8993 0.25 16.2498 2.6005 16.2498 5.5C16.2498 8.39949 13.8993 10.75 10.9998 10.75C8.10026 10.75 5.74976 8.39949 5.74976 5.5C5.74976 2.6005 8.10026 0.25 10.9998 0.25ZM10.9998 1.75C8.92869 1.75 7.24976 3.42893 7.24976 5.5C7.24976 7.57107 8.92869 9.25 10.9998 9.25C13.0708 9.25 14.7498 7.57107 14.7498 5.5C14.7498 3.42893 13.0708 1.75 10.9998 1.75Z" fill="#3C3C3C"/>
</svg>
