<svg width="22" height="16" viewBox="0 0 22 16" fill="none" xmlns="http://www.w3.org/2000/svg">
<path d="M11 0.25C13.5705 0.25 15.7739 1.38137 17.4795 2.71289C19.1865 4.04556 20.4484 5.61958 21.1543 6.60937C21.1718 6.63389 21.19 6.65862 21.208 6.68359C21.4612 7.03567 21.75 7.4378 21.75 8C21.75 8.5622 21.4612 8.96432 21.208 9.31641C21.19 9.34138 21.1718 9.36611 21.1543 9.39062C20.4484 10.3804 19.1865 11.9544 17.4795 13.2871C15.7739 14.6186 13.5705 15.75 11 15.75C8.42952 15.75 6.22613 14.6186 4.52051 13.2871C2.81346 11.9544 1.55159 10.3804 0.845703 9.39062C0.828221 9.36611 0.809951 9.34138 0.791992 9.31641C0.538836 8.96433 0.25 8.5622 0.25 8C0.25 7.4378 0.538836 7.03567 0.791992 6.68359C0.809951 6.65862 0.828221 6.63389 0.845703 6.60938C1.55159 5.61958 2.81347 4.04556 4.52051 2.71289C6.22613 1.38137 8.42952 0.25 11 0.25ZM11 1.75C8.88134 1.75 6.99587 2.68348 5.44336 3.89551C3.89242 5.10633 2.7266 6.55472 2.06641 7.48047C1.90323 7.70928 1.82563 7.82117 1.7793 7.91016C1.74984 7.96674 1.74992 7.98286 1.75 7.99805V8.00195C1.74992 8.01714 1.74984 8.03326 1.7793 8.08984C1.82563 8.17883 1.90323 8.29072 2.06641 8.51953C2.7266 9.44528 3.89242 10.8937 5.44336 12.1045C6.99587 13.3165 8.88134 14.25 11 14.25C13.1187 14.25 15.0041 13.3165 16.5566 12.1045C18.1076 10.8937 19.2734 9.44528 19.9336 8.51953C20.0968 8.29072 20.1744 8.17883 20.2207 8.08984C20.2502 8.03326 20.2501 8.01714 20.25 8.00195V7.99805C20.2501 7.98286 20.2502 7.96675 20.2207 7.91016C20.1744 7.82117 20.0968 7.70928 19.9336 7.48047C19.2734 6.55472 18.1076 5.10633 16.5566 3.89551C15.0041 2.68348 13.1187 1.75 11 1.75ZM11 4.25C13.0711 4.25 14.75 5.92893 14.75 8C14.75 10.0711 13.0711 11.75 11 11.75C8.92893 11.75 7.25 10.0711 7.25 8C7.25 5.92893 8.92893 4.25 11 4.25ZM11 5.75C9.75736 5.75 8.75 6.75736 8.75 8C8.75 9.24264 9.75736 10.25 11 10.25C12.2426 10.25 13.25 9.24264 13.25 8C13.25 6.75736 12.2426 5.75 11 5.75Z" fill="#3C3C3C"/>
</svg>
