<svg width="24" height="24" viewBox="0 0 24 24" fill="none" xmlns="http://www.w3.org/2000/svg">
<path d="M10.125 6.75H10.875V7.5C10.875 7.9125 11.2125 8.25 11.625 8.25H12.375C12.7875 8.25 13.125 7.9125 13.125 7.5V6.75H13.875C14.2875 6.75 14.625 6.4125 14.625 6V5.25C14.625 4.8375 14.2875 4.5 13.875 4.5H13.125V3.75C13.125 3.3375 12.7875 3 12.375 3H11.625C11.2125 3 10.875 3.3375 10.875 3.75V4.5H10.125C9.7125 4.5 9.375 4.8375 9.375 5.25V6C9.375 6.4125 9.7125 6.75 10.125 6.75ZM10.125 5.25H11.25C11.4562 5.25 11.625 5.08125 11.625 4.875V3.75H12.375V4.875C12.375 5.08125 12.5438 5.25 12.75 5.25H13.875V6H12.75C12.5438 6 12.375 6.16875 12.375 6.375V7.5H11.625V6.375C11.625 6.16875 11.4562 6 11.25 6H10.125V5.25Z" fill="#121212"/>
<path d="M22.5 9.75C22.9125 9.75 23.25 9.4125 23.25 9V8.25C23.25 7.8375 22.9125 7.5 22.5 7.5H22.125V4.875C22.125 4.25625 21.6187 3.75 21 3.75H16.125V2.625C16.125 2.00625 15.6187 1.5 15 1.5H9C8.38125 1.5 7.875 2.00625 7.875 2.625V3.75H3C2.38125 3.75 1.875 4.25625 1.875 4.875V7.5H1.5C1.0875 7.5 0.75 7.8375 0.75 8.25V9C0.75 9.4125 1.0875 9.75 1.5 9.75H1.875V20.25H1.5C1.0875 20.25 0.75 20.5875 0.75 21V21.75C0.75 22.1625 1.0875 22.5 1.5 22.5H22.5C22.9125 22.5 23.25 22.1625 23.25 21.75V21C23.25 20.5875 22.9125 20.25 22.5 20.25H22.125V9.75H22.5ZM22.5 9H16.125V8.25H22.5V9ZM21 4.5C21.2062 4.5 21.375 4.66875 21.375 4.875V7.5H16.125V4.5H21ZM8.625 2.625C8.625 2.41875 8.79375 2.25 9 2.25H15C15.2063 2.25 15.375 2.41875 15.375 2.625V9H8.625V2.625ZM2.625 4.875C2.625 4.66875 2.79375 4.5 3 4.5H7.875V7.5H2.625V4.875ZM1.5 8.25H7.875V9H1.5V8.25ZM1.5 21H3.75V21.75H1.5V21ZM4.5 20.625V12.375C4.5 12.1687 4.66875 12 4.875 12H9C9.20625 12 9.375 12.1687 9.375 12.375V21.75H4.5V20.625ZM22.5 21.75H10.125V21H22.5V21.75ZM21.375 20.25H10.125V12.375C10.125 11.7563 9.61875 11.25 9 11.25H4.875C4.25625 11.25 3.75 11.7563 3.75 12.375V20.25H2.625V9.75H21.375V20.25Z" fill="#121212"/>
<path d="M11.25 12.375V17.625C11.25 18.2438 11.7563 18.75 12.375 18.75H19.125C19.7437 18.75 20.25 18.2438 20.25 17.625V12.375C20.25 11.7563 19.7437 11.25 19.125 11.25H12.375C11.7563 11.25 11.25 11.7563 11.25 12.375ZM19.5 12.375V17.625C19.5 17.8313 19.3313 18 19.125 18H12.375C12.1687 18 12 17.8313 12 17.625V12.375C12 12.1687 12.1687 12 12.375 12H19.125C19.3313 12 19.5 12.1687 19.5 12.375Z" fill="#121212"/>
<path d="M14.9738 17.2491C15.3525 17.2491 15.7275 17.1066 16.0162 16.8178L16.7925 16.0416L17.5687 15.2653C17.8462 14.9878 18 14.6166 18 14.2228C18 13.8291 17.8462 13.4578 17.5687 13.1803C16.995 12.6066 16.0613 12.6066 15.4838 13.1803L14.7075 13.9566L13.9313 14.7328C13.6538 15.0103 13.5 15.3816 13.5 15.7753C13.5 16.1691 13.6538 16.5403 13.9313 16.8178C14.22 17.1066 14.595 17.2491 14.9738 17.2491ZM17.04 13.7128C17.175 13.8478 17.25 14.0316 17.25 14.2228C17.25 14.4141 17.175 14.5978 17.04 14.7328L16.53 15.2428L15.5287 14.2453L15.5062 14.2228L16.0162 13.7128C16.2975 13.4316 16.7587 13.4316 17.04 13.7128ZM14.4637 15.2653L14.9738 14.7553L15.975 15.7528L15.9975 15.7753L15.4875 16.2853C15.2062 16.5666 14.745 16.5666 14.4637 16.2853C14.3287 16.1503 14.2537 15.9666 14.2537 15.7753C14.2537 15.5841 14.3287 15.4003 14.4637 15.2653Z" fill="#121212"/>
<path d="M5.625 15.75C5.41875 15.75 5.25 15.9187 5.25 16.125V17.625C5.25 17.8312 5.41875 18 5.625 18C5.83125 18 6 17.8312 6 17.625V16.125C6 15.9187 5.83125 15.75 5.625 15.75Z" fill="#121212"/>
</svg>
