<svg width="24" height="25" viewBox="0 0 24 25" fill="none" xmlns="http://www.w3.org/2000/svg">
<path d="M13.5747 3.25781C16.0647 3.25781 17.3148 3.25821 18.4448 3.9082C18.5547 3.96817 18.6652 4.03749 18.7651 4.10742C19.835 4.83741 20.3844 6.02796 21.3843 8.17773C22.5543 10.6877 23.1348 11.9479 22.4849 13.1279C22.4049 13.2578 22.325 13.3879 22.2251 13.5078C21.3951 14.5478 19.9843 14.5479 17.1743 14.5479H16.7749C16.3349 14.5479 15.8847 14.5479 15.7847 14.5879C15.7347 14.6179 15.6951 14.6682 15.6851 14.6982C15.6754 14.8087 15.8045 15.208 15.9243 15.6074L16.1948 16.4678C16.2648 16.7078 16.3045 16.838 16.3345 16.958C16.6244 18.138 16.4342 19.3682 15.8042 20.4082C15.7442 20.518 15.6641 20.6279 15.5044 20.8574C15.4045 21.0073 15.3444 21.0875 15.2944 21.1475C14.6444 21.8775 13.5244 21.9476 12.7944 21.3076C12.7445 21.2676 12.6843 21.1977 12.5347 21.0381L8.44482 16.5078C7.39482 15.3478 6.8642 14.7678 6.5542 13.9678C6.53246 13.9117 6.51538 13.8544 6.49658 13.7979C5.83259 14.3938 4.95636 14.7578 3.99463 14.7578C2.47463 14.7578 1.24463 13.5278 1.24463 12.0078V6.00781C1.24466 4.48784 2.47465 3.25781 3.99463 3.25781C5.22051 3.25781 6.30926 3.84734 6.99365 4.75781C7.10087 4.60527 7.22469 4.46319 7.36475 4.32812C8.47475 3.25812 10.0049 3.25781 13.0649 3.25781H13.5747ZM13.0747 4.75781C10.4147 4.75781 9.08455 4.7582 8.41455 5.4082C7.78478 6.02824 7.7544 7.1581 7.75439 9.8877V10.8574C7.75439 12.2171 7.7545 12.9075 7.96436 13.4375C8.17436 13.9775 8.63494 14.4876 9.56494 15.5176L13.6851 20.0781C13.7347 20.1278 13.7647 20.1675 13.7847 20.1875C13.8346 20.2374 13.8945 20.2578 13.9644 20.2578L13.9751 20.2773C14.045 20.2772 14.1244 20.2474 14.1743 20.1875C14.2043 20.1575 14.2344 20.1076 14.2944 20.0176C14.4143 19.8378 14.4847 19.7481 14.5347 19.6582C14.9646 18.9582 15.085 18.1278 14.895 17.3379C14.875 17.2379 14.8349 17.1377 14.7749 16.9277L14.5044 16.0576C14.2545 15.2378 14.1152 14.788 14.2651 14.2881C14.3851 13.8982 14.6545 13.5481 15.0044 13.3281C15.4344 13.0581 15.9145 13.0576 16.7944 13.0576H17.1948C19.3745 13.0576 20.6945 13.0579 21.0747 12.5781C21.1147 12.5282 21.1551 12.4682 21.1851 12.4082C21.4651 11.8882 20.9247 10.7376 20.0347 8.80762C19.1147 6.83771 18.6643 5.84764 17.9243 5.34766C17.8544 5.29773 17.7745 5.24795 17.7046 5.20801C16.9246 4.75801 15.8045 4.75781 13.5845 4.75781H13.0747ZM3.99463 4.75781C3.30465 4.75781 2.74466 5.31784 2.74463 6.00781V12.0078C2.74463 12.6978 3.30463 13.2578 3.99463 13.2578C5.23463 13.2578 6.24463 12.2478 6.24463 11.0078V7.00781C6.2446 5.76784 5.23461 4.75781 3.99463 4.75781Z" fill="#121212"/>
</svg>
