<svg width="24" height="25" viewBox="0 0 24 25" fill="none" xmlns="http://www.w3.org/2000/svg">
<path fill-rule="evenodd" clip-rule="evenodd" d="M12.7951 3.68737C13.5251 3.04737 14.6451 3.11737 15.2951 3.84737C15.3451 3.90737 15.4051 3.98737 15.5051 4.13737C15.5311 4.17396 15.5541 4.20752 15.5761 4.23852C15.6901 4.40237 15.7551 4.49487 15.8051 4.58737C16.4351 5.62737 16.6251 6.85737 16.3351 8.03737C16.3131 8.12724 16.2851 8.22271 16.2431 8.36579C16.2281 8.41377 16.2131 8.4671 16.1951 8.52737L15.9251 9.38737C15.9061 9.45203 15.8861 9.51669 15.8671 9.58012C15.7671 9.90911 15.6771 10.2051 15.6851 10.2974C15.6951 10.3274 15.7351 10.3774 15.7851 10.4074C15.8851 10.4474 16.3351 10.4474 16.7751 10.4474L17.7769 10.4478C20.1908 10.4531 21.4566 10.5244 22.2251 11.4874C22.3251 11.6074 22.4051 11.7374 22.4851 11.8674C23.1351 13.0474 22.5551 14.3074 21.3851 16.8174L21.3711 16.8479C20.3801 18.9787 19.8301 20.1608 18.7651 20.8874C18.6651 20.9574 18.5551 21.0274 18.4451 21.0874C17.3151 21.7374 16.0651 21.7374 13.5751 21.7374L12.743 21.7373C9.89635 21.736 8.43547 21.6992 7.36511 20.6674C7.22511 20.5323 7.10212 20.3892 6.99512 20.2367C6.31112 21.1477 5.22112 21.7374 3.99512 21.7374C2.47512 21.7374 1.24512 20.5073 1.24512 18.9873V12.9873C1.24512 11.4673 2.47512 10.2373 3.99512 10.2373C4.95512 10.2373 5.83212 10.5989 6.49512 11.1932C6.51412 11.1377 6.53411 11.0825 6.55511 11.0274C6.86111 10.2369 7.38308 9.66119 8.40808 8.5285L8.44507 8.48737L12.5351 3.95737C12.5761 3.9139 12.6101 3.87708 12.6391 3.84569C12.7171 3.76155 12.7591 3.7165 12.7951 3.68737ZM3.99512 11.7373C3.30512 11.7373 2.74512 12.2973 2.74512 12.9873V18.9873C2.74512 19.6773 3.30512 20.2373 3.99512 20.2373C5.23512 20.2373 6.24512 19.2273 6.24512 17.9873V13.9873C6.24512 12.7473 5.23512 11.7373 3.99512 11.7373ZM13.9751 4.71737L13.9651 4.73737C13.8951 4.73737 13.8351 4.75737 13.7851 4.80737C13.7771 4.81512 13.7681 4.82587 13.7571 4.83904C13.7391 4.85987 13.7161 4.88674 13.6851 4.91737L9.56512 9.47737C8.63512 10.5074 8.17509 11.0174 7.96509 11.5574C7.75509 12.0873 7.75513 12.7771 7.75513 14.1366V15.1074C7.75513 17.8374 7.7851 18.9674 8.4151 19.5874C9.0315 20.1854 10.2065 20.2332 12.4619 20.2371L13.8948 20.2373C15.911 20.2364 16.9622 20.216 17.7051 19.7874C17.7751 19.7474 17.8551 19.6974 17.9251 19.6474C18.6481 19.1591 19.0941 18.2037 19.9711 16.3248C19.9921 16.2795 20.0131 16.2337 20.0351 16.1874L20.0831 16.083C20.9441 14.2158 21.4601 13.0979 21.1851 12.5874C21.1551 12.5274 21.1151 12.4674 21.0751 12.4174C20.7296 11.981 19.6073 11.9414 17.7682 11.9377L16.5833 11.9372C15.8355 11.9355 15.3993 11.9149 15.0051 11.6674C14.6551 11.4474 14.3851 11.0974 14.2651 10.7074C14.1171 10.2119 14.2531 9.76557 14.4981 8.95968L14.5051 8.93737L14.7751 8.06737C14.8011 7.97848 14.8221 7.90929 14.8411 7.85147C14.8651 7.77271 14.8841 7.71504 14.8951 7.65737C15.0851 6.86737 14.9651 6.03737 14.5351 5.33737C14.5041 5.28173 14.4661 5.2261 14.4121 5.1492C14.3791 5.1017 14.3411 5.0461 14.2951 4.97737C14.2821 4.95762 14.2701 4.9398 14.2601 4.92369C14.2221 4.86639 14.1991 4.83079 14.1751 4.80737C14.1251 4.74737 14.0451 4.71737 13.9751 4.71737Z" fill="#121212"/>
</svg>
