<svg width="24" height="24" viewBox="0 0 24 24" fill="none" xmlns="http://www.w3.org/2000/svg">
<path d="M4.69629 14.835C8.08925 12.8171 12.3646 12.7192 15.8545 14.5781C16.2205 14.7731 16.3581 15.2278 16.1631 15.5938C15.968 15.9595 15.5143 16.0972 15.1484 15.9023C12.1194 14.2883 8.40691 14.373 5.46191 16.125C5.31804 16.2099 5.15248 16.3043 4.97168 16.4072C4.06074 16.9222 2.36407 17.8793 2.25586 18.7412C2.24286 18.8432 2.20443 19.1542 2.73242 19.6592C3.88828 20.76 4.92497 21.2509 6.0918 21.251H12.501C12.9148 21.251 13.2507 21.5872 13.251 22.001C13.251 22.415 12.915 22.751 12.501 22.751L12.5 22.75H6.09082C4.531 22.7499 3.13416 22.112 1.69629 20.7432C0.983416 20.0613 0.670666 19.3256 0.767578 18.5547C0.968578 16.9447 2.9334 15.8346 4.2334 15.1006C4.40438 15.0046 4.5603 14.915 4.69629 14.835ZM21.25 13.293C21.6403 13.155 22.0688 13.3597 22.207 13.75C22.3452 14.1404 22.1404 14.5688 21.75 14.707C21.1734 14.9113 20.5296 15.3421 19.8662 15.9238C19.2106 16.4988 18.5762 17.1858 18.0176 17.8555C17.4604 18.5234 16.9871 19.1629 16.6533 19.6357C16.4867 19.8718 16.2219 20.2686 16.1328 20.4023C15.9879 20.6302 15.7316 20.7627 15.4619 20.749C15.192 20.7352 14.95 20.5776 14.8291 20.3359C14.3736 19.4249 13.9522 19.0362 13.709 18.874C13.5867 18.7925 13.4857 18.7592 13.4502 18.749C13.0592 18.7234 12.75 18.3975 12.75 18C12.7501 17.5859 13.0859 17.25 13.5 17.25C13.9142 17.25 14.2883 17.4575 14.541 17.626C14.8544 17.8349 15.1949 18.1489 15.5381 18.6152C15.8791 18.1386 16.3351 17.53 16.8652 16.8945C17.4536 16.1893 18.143 15.4395 18.877 14.7959C19.6031 14.159 20.4149 13.5887 21.25 13.293ZM11.5 1.25C14.395 1.25 16.75 3.605 16.75 6.5C16.75 9.395 14.395 11.75 11.5 11.75C8.605 11.75 6.25 9.395 6.25 6.5C6.25 3.605 8.605 1.25 11.5 1.25ZM11.5 2.75C9.432 2.75 7.75 4.432 7.75 6.5C7.75 8.568 9.432 10.25 11.5 10.25C13.568 10.25 15.25 8.568 15.25 6.5C15.25 4.432 13.568 2.75 11.5 2.75Z" fill="#121212"/>
</svg>
