<svg width="42" height="42" viewBox="0 0 42 42" fill="none" xmlns="http://www.w3.org/2000/svg">
<g clip-path="url(#clip0_2301_9311)">
<path d="M33.4418 3.11719H14.1744V11.1072H37.5569V7.23061C37.5569 4.96225 35.7108 3.11719 33.4418 3.11719Z" fill="#DFE9E8"/>
<path d="M22.5352 12.3403H0V4.92636C0 2.20972 2.21068 0 4.92828 0H12.1336C12.8497 0 13.5396 0.150925 14.1664 0.434509C15.0418 0.828964 15.7939 1.47913 16.3213 2.3286L22.5352 12.3403Z" fill="#3563AD"/>
<path d="M42 14.0023V37.8837C42 40.1549 40.1511 42.0022 37.8789 42.0022H4.12111C1.84891 42.0022 0 40.1549 0 37.8837V9.88281H37.8789C40.1511 9.88281 42 11.7308 42 14.0023Z" fill="#3563AD"/>
<path d="M32.0479 25.9386C32.0479 32.031 27.0918 36.9875 21 36.9875C14.9082 36.9875 9.95203 32.031 9.95203 25.9386C9.95203 19.8471 14.9082 14.8906 21 14.8906C27.0918 14.8906 32.0479 19.8471 32.0479 25.9386Z" fill="#DFE9E8"/>
<path d="M24.561 26.0719C24.3306 26.267 24.0483 26.3622 23.7685 26.3622C23.4183 26.3622 23.0703 26.2138 22.8268 25.9248L22.2304 25.2179V29.846C22.2304 30.5253 21.6793 31.0764 21 31.0764C20.3207 31.0764 19.7695 30.5253 19.7695 29.846V25.2179L19.1732 25.9248C18.7342 26.4442 17.9584 26.5106 17.439 26.0719C16.9199 25.6339 16.8532 24.8578 17.2913 24.3383L19.7269 21.4509C20.0444 21.0753 20.5078 20.8594 21 20.8594C21.4922 20.8594 21.9555 21.0753 22.2731 21.4509L24.7087 24.3383C25.1467 24.8578 25.0801 25.6339 24.561 26.0719Z" fill="#3563AD"/>
</g>
<defs>
<clipPath id="clip0_2301_9311">
<rect width="42" height="42" fill="white"/>
</clipPath>
</defs>
</svg>
