<svg width="24" height="25" viewBox="0 0 24 25" fill="none" xmlns="http://www.w3.org/2000/svg">
<path d="M5.19409 15.3369C7.76593 13.8056 10.8326 13.3836 13.6746 14.0654C14.0772 14.162 14.3256 14.5671 14.2292 14.9697C14.1326 15.3725 13.7277 15.6211 13.325 15.5244C10.8523 14.9311 8.18799 15.3005 5.96167 16.626C5.79382 16.7259 5.6094 16.8302 5.41675 16.9395C4.70414 17.3437 3.87184 17.816 3.29175 18.3838C2.93169 18.7362 2.77822 19.0273 2.75366 19.252C2.73423 19.4303 2.77979 19.7242 3.23022 20.1533C4.266 21.1401 5.31825 21.7499 6.59058 21.75H12.9998C13.414 21.75 13.7498 22.0858 13.7498 22.5C13.7497 22.9142 13.414 23.25 12.9998 23.25H6.59058C4.77238 23.2499 3.36647 22.3553 2.19507 21.2393C1.51626 20.5925 1.17771 19.8646 1.26245 19.0889C1.3422 18.3593 1.78125 17.7634 2.24292 17.3115C2.98108 16.5891 4.05852 15.9812 4.77124 15.5791C4.93385 15.4874 5.07781 15.4062 5.19409 15.3369ZM18.4998 14.75C20.847 14.75 22.7498 16.6528 22.7498 19C22.7498 21.3472 20.847 23.25 18.4998 23.25C16.1525 23.25 14.2498 21.3472 14.2498 19C14.2498 16.6528 16.1525 14.75 18.4998 14.75ZM16.0984 17.6592C15.8764 18.0559 15.7498 18.5131 15.7498 19C15.7498 20.5188 16.981 21.75 18.4998 21.75C18.9866 21.75 19.4439 21.6233 19.8406 21.4014L16.0984 17.6592ZM18.4998 16.25C18.0129 16.25 17.5556 16.3767 17.1589 16.5986L20.9011 20.3408C21.1231 19.9441 21.2498 19.4869 21.2498 19C21.2498 17.4812 20.0185 16.25 18.4998 16.25ZM11.9998 1.75C14.8993 1.75 17.2498 4.1005 17.2498 7C17.2498 9.89949 14.8993 12.25 11.9998 12.25C9.10026 12.25 6.74976 9.89949 6.74976 7C6.74976 4.1005 9.10026 1.75 11.9998 1.75ZM11.9998 3.25C9.92869 3.25 8.24976 4.92893 8.24976 7C8.24976 9.07107 9.92869 10.75 11.9998 10.75C14.0708 10.75 15.7498 9.07107 15.7498 7C15.7498 4.92893 14.0708 3.25 11.9998 3.25Z" fill="#121212"/>
</svg>
