<svg width="25" height="25" viewBox="0 0 25 25" fill="none" xmlns="http://www.w3.org/2000/svg">
<path d="M4.62695 15.9502C7.61288 14.35 11.3871 14.3501 14.373 15.9502C14.4661 16.0001 14.5829 16.0595 14.7158 16.127C15.3082 16.4275 16.2267 16.8935 16.8564 17.4482C17.2447 17.7903 17.6613 18.2784 17.7383 18.9121C17.8226 19.606 17.4776 20.2168 16.8945 20.7168C15.8997 21.5698 14.708 22.2499 13.1748 22.25H5.82617C4.29301 22.25 3.10131 21.5698 2.10645 20.7168C1.52334 20.2168 1.17842 19.606 1.2627 18.9121C1.33969 18.2786 1.75539 17.7903 2.14355 17.4482C2.7734 16.8934 3.69275 16.4275 4.28516 16.127C4.41786 16.0596 4.53391 16 4.62695 15.9502ZM18 14.75C18.5269 14.75 19.2297 14.8911 19.9238 15.1064C20.6292 15.3253 21.3913 15.6413 22.041 16.0303C22.6627 16.4025 23.3034 16.9136 23.5928 17.5723C23.7478 17.9254 23.8037 18.3278 23.6904 18.7451C23.5799 19.1523 23.3273 19.5039 22.9912 19.8037C22.0974 20.601 21.0116 21.25 19.6064 21.25H19.1162C18.702 21.25 18.3662 20.9142 18.3662 20.5C18.3662 20.0858 18.702 19.75 19.1162 19.75H19.6064C20.5008 19.75 21.2447 19.3513 21.9932 18.6836C22.1782 18.5184 22.2291 18.4034 22.2432 18.3516C22.2543 18.31 22.2559 18.2594 22.2188 18.1748C22.1229 17.9571 21.8229 17.6482 21.2705 17.3174C20.7459 17.0033 20.099 16.7313 19.4795 16.5391C18.8485 16.3433 18.3101 16.25 18 16.25C17.5859 16.2499 17.25 15.9142 17.25 15.5C17.25 15.0858 17.5859 14.7501 18 14.75ZM13.665 17.2725C11.1216 15.9095 7.87933 15.9095 5.33594 17.2725C5.19113 17.3501 5.0342 17.4303 4.87109 17.5137C4.27883 17.8162 3.60504 18.1599 3.13574 18.5732C2.83964 18.8341 2.76209 19.0107 2.75195 19.0928V19.1377C2.76172 19.2063 2.81711 19.3509 3.08203 19.5781C3.92653 20.3022 4.78384 20.75 5.82617 20.75H13.1748C14.217 20.7499 15.0736 20.3021 15.918 19.5781C16.2714 19.2751 16.2522 19.1188 16.249 19.0938V19.0928C16.2389 19.0107 16.1614 18.8341 15.8652 18.5732C15.396 18.1599 14.7222 17.8162 14.1299 17.5137C13.9669 17.4304 13.8098 17.35 13.665 17.2725ZM9.5 3.25C12.1234 3.25 14.25 5.37665 14.25 8C14.25 10.6234 12.1234 12.75 9.5 12.75C6.87678 12.7498 4.75 10.6233 4.75 8C4.75 5.37675 6.87678 3.25016 9.5 3.25ZM16.7051 4.75C18.8713 4.75009 20.75 6.36429 20.75 8.5C20.75 10.6357 18.8713 12.2499 16.7051 12.25C16.4142 12.25 16.1294 12.2215 15.8545 12.167C15.4482 12.0864 15.1841 11.6915 15.2646 11.2852C15.3453 10.879 15.7402 10.6147 16.1465 10.6953C16.3255 10.7308 16.5124 10.75 16.7051 10.75C18.1785 10.7499 19.25 9.67789 19.25 8.5C19.25 7.32211 18.1785 6.25008 16.7051 6.25C16.5124 6.25 16.3255 6.2692 16.1465 6.30469C15.7402 6.38527 15.3453 6.12104 15.2646 5.71484C15.1841 5.30855 15.4482 4.9136 15.8545 4.83301C16.1294 4.7785 16.4142 4.75 16.7051 4.75ZM9.5 4.75C7.70521 4.75016 6.25 6.20517 6.25 8C6.25 9.79483 7.70521 11.2498 9.5 11.25C11.2949 11.25 12.75 9.79493 12.75 8C12.75 6.20507 11.2949 4.75 9.5 4.75Z" fill="#121212"/>
</svg>
