<svg width="24" height="24" viewBox="0 0 24 24" fill="none" xmlns="http://www.w3.org/2000/svg">
<path d="M10.0557 3.25C11.6583 3.24998 12.9373 3.2499 13.9404 3.38477C14.9767 3.52409 15.8298 3.81998 16.5049 4.49512C17.18 5.17025 17.4759 6.02332 17.6152 7.05957C17.6301 7.17009 17.6425 7.28408 17.6543 7.40137C18.2506 6.92052 18.7696 6.52488 19.2246 6.25C19.9085 5.83684 20.6933 5.54268 21.4824 5.93359C22.2611 6.3196 22.5234 7.11718 22.6367 7.91797C22.7504 8.7218 22.75 9.81233 22.75 11.1553V12.8467C22.75 14.1899 22.7504 15.2811 22.6367 16.085C22.5234 16.8856 22.261 17.6824 21.4824 18.0684C20.6933 18.4593 19.9085 18.1651 19.2246 17.752C18.7695 17.477 18.2508 17.0806 17.6543 16.5996C17.6426 16.7166 17.6301 16.8302 17.6152 16.9404C17.4759 17.9767 17.18 18.8298 16.5049 19.5049C15.8298 20.18 14.9767 20.4759 13.9404 20.6152C12.9373 20.7501 11.6583 20.75 10.0557 20.75H8.94434C7.34174 20.75 6.06266 20.7501 5.05957 20.6152C4.02332 20.4759 3.17025 20.18 2.49512 19.5049C1.81998 18.8298 1.52409 17.9767 1.38477 16.9404C1.2499 15.9373 1.24998 14.6583 1.25 13.0557V10.9443C1.24998 9.34174 1.2499 8.06266 1.38477 7.05957C1.52409 6.02332 1.81998 5.17025 2.49512 4.49512C3.17025 3.81998 4.02332 3.52409 5.05957 3.38477C6.06266 3.2499 7.34174 3.24998 8.94434 3.25H10.0557ZM9 4.75C7.32908 4.75 6.15123 4.75128 5.25977 4.87109C4.38983 4.98805 3.90565 5.20568 3.55566 5.55566C3.20568 5.90565 2.98805 6.38983 2.87109 7.25977C2.75128 8.15123 2.75 9.32908 2.75 11V13C2.75 14.6709 2.75128 15.8488 2.87109 16.7402C2.98805 17.6102 3.20568 18.0943 3.55566 18.4443C3.90565 18.7943 4.38983 19.0119 5.25977 19.1289C6.15123 19.2487 7.32908 19.25 9 19.25H10C11.6709 19.25 12.8488 19.2487 13.7402 19.1289C14.6102 19.0119 15.0943 18.7943 15.4443 18.4443C15.7943 18.0943 16.0119 17.6102 16.1289 16.7402C16.2487 15.8488 16.25 14.6709 16.25 13V11C16.25 9.32908 16.2487 8.15123 16.1289 7.25977C16.0119 6.38983 15.7943 5.90565 15.4443 5.55566C15.0943 5.20568 14.6102 4.98805 13.7402 4.87109C12.8488 4.75128 11.6709 4.75 10 4.75H9ZM20.8164 7.27734C20.7552 7.24706 20.5851 7.17975 20 7.5332C19.4483 7.86648 18.7446 8.44026 17.7402 9.26855C17.7474 9.78292 17.75 10.3407 17.75 10.9443V13.0557C17.75 13.6597 17.7474 14.2178 17.7402 14.7324C18.7449 15.5609 19.4482 16.1354 20 16.4688C20.5851 16.8222 20.7552 16.7549 20.8164 16.7246C20.8879 16.6892 21.0521 16.5759 21.1514 15.874C21.2484 15.188 21.25 14.2048 21.25 12.7832V11.2188C21.25 9.79717 21.2484 8.81392 21.1514 8.12793C21.0521 7.42609 20.8879 7.31279 20.8164 7.27734ZM13 7.25C13.4142 7.25 13.75 7.58579 13.75 8C13.75 8.41421 13.4142 8.75 13 8.75H11C10.5858 8.75 10.25 8.41421 10.25 8C10.25 7.58579 10.5858 7.25 11 7.25H13Z" fill="#121212"/>
</svg>
