<svg width="29" height="30" viewBox="0 0 29 30" fill="none" xmlns="http://www.w3.org/2000/svg">
<path d="M18.3311 9.99902C17.8399 7.57119 17.0529 5.4854 16.2646 3.83008C16.1462 3.58131 16.0275 3.3293 15.9102 3.08008C15.4782 2.16286 15.0614 1.27583 14.709 0.666992C14.6399 0.66601 14.5703 0.666016 14.501 0.666016C14.4317 0.666016 14.3621 0.66601 14.293 0.666992C13.9406 1.27583 13.5237 2.16286 13.0918 3.08008C12.9744 3.3293 12.8558 3.58131 12.7373 3.83008C11.9491 5.4854 11.1621 7.57119 10.6709 9.99902H18.3311ZM8.63379 10.001C9.15555 7.21402 10.0448 4.83399 10.9316 2.97168C11.0289 2.7675 11.1259 2.56192 11.2227 2.35742L11.2236 2.35547C11.4613 1.85343 11.6967 1.35707 11.9219 0.899414C6.90794 1.81055 2.80238 5.32996 1.06348 10.001L8.63379 10.001ZM27.9365 10.001C26.1976 5.33007 22.093 1.81053 17.0791 0.899414C17.3042 1.35707 17.5397 1.85441 17.7773 2.35645C17.8743 2.56133 17.9719 2.76711 18.0693 2.97168C18.9562 4.83401 19.8454 7.214 20.3672 10.001L27.9365 10.001ZM18.6533 17.999C18.7689 17.041 18.834 16.0399 18.834 15C18.834 13.9595 18.7691 12.9575 18.6533 11.999H10.3486C10.2329 12.9575 10.168 13.9595 10.168 15C10.168 16.0399 10.233 17.041 10.3486 17.999L18.6533 17.999ZM8.33496 18.001C8.22764 17.0401 8.16797 16.0391 8.16797 15.002C8.16797 13.9642 8.22752 12.9624 8.33496 12.001L0.482422 12.001C0.276418 12.9683 0.167998 13.9722 0.167969 15.001C0.167969 16.0298 0.276435 17.0336 0.482422 18.001H8.33496ZM28.5186 18.001C28.7245 17.0336 28.833 16.0298 28.833 15.001C28.833 13.9722 28.7246 12.9683 28.5186 12.001L20.666 12.001C20.7735 12.9624 20.833 13.9642 20.833 15.002C20.833 16.0391 20.7733 17.0401 20.666 18.001H28.5186ZM14.709 29.3311C15.0624 28.7206 15.4808 27.8309 15.9141 26.9111C16.0302 26.6647 16.1475 26.416 16.2646 26.1699C17.0531 24.5142 17.8399 22.4276 18.3311 19.999L10.6709 19.999C11.1621 22.4276 11.9489 24.5142 12.7373 26.1699C12.8542 26.4154 12.9711 26.6633 13.0869 26.9092L13.0879 26.9111C13.5212 27.8309 13.9396 28.7206 14.293 29.3311C14.3621 29.332 14.4316 29.332 14.501 29.332C14.5703 29.332 14.6399 29.332 14.709 29.3311ZM11.2188 27.6387C11.1232 27.4368 11.0276 27.2338 10.9316 27.0322C10.0446 25.1695 9.15551 22.7887 8.63379 20.001H1.06348C2.80226 24.6719 6.90718 28.1922 11.9209 29.1035C11.6944 28.6433 11.4579 28.1437 11.2188 27.6387ZM17.0791 29.1035C22.0929 28.1923 26.1977 24.672 27.9365 20.001H20.3672C19.8455 22.7887 18.9563 25.1695 18.0693 27.0322C17.9733 27.2339 17.8769 27.4367 17.7812 27.6387C17.5422 28.1437 17.3056 28.6433 17.0791 29.1035Z" fill="#121212"/>
</svg>
