<svg width="20" height="20" viewBox="0 0 20 20" fill="none" xmlns="http://www.w3.org/2000/svg">
<path d="M9.99675 1.04297C10.8711 1.04297 11.5599 1.70341 11.9996 2.59456L13.468 5.5556C13.5125 5.64724 13.618 5.77629 13.7767 5.89433C13.9352 6.01226 14.0905 6.07731 14.1926 6.09447L16.8506 6.53974C17.8107 6.70108 18.6155 7.17171 18.8767 7.99122C19.1378 8.81005 18.7553 9.66097 18.0649 10.3527L18.0642 10.3533L15.9993 12.4354C15.9174 12.5179 15.8257 12.6733 15.7682 12.8758C15.7111 13.077 15.7061 13.2602 15.732 13.3786L15.7323 13.3802L16.3231 15.9558C16.5681 17.0278 16.4869 18.0907 15.7309 18.6465C14.9723 19.2041 13.9356 18.9569 12.9938 18.396L10.5021 16.9088C10.3975 16.8463 10.2178 16.7957 10.0009 16.7957C9.78561 16.7957 9.60214 16.8456 9.4907 16.9105L9.48912 16.9114L7.0024 18.3956C6.06171 18.9585 5.02628 19.2013 4.26759 18.6431C3.51208 18.0873 3.42678 17.0263 3.67259 15.9552L4.26325 13.3802L4.26361 13.3786C4.28951 13.2602 4.28444 13.077 4.22733 12.8758C4.16983 12.6733 4.07815 12.5179 3.99631 12.4354L1.92988 10.3518C1.24387 9.66016 0.862672 8.80997 1.12162 7.99235C1.38133 7.17234 2.18452 6.70114 3.14528 6.53969L5.8011 6.0948L5.80194 6.09465C5.89931 6.07776 6.05225 6.01343 6.2104 5.89521C6.36884 5.77676 6.47466 5.64743 6.51927 5.5556L6.52151 5.55103L7.98802 2.59378L7.9886 2.59261C8.43247 1.7022 9.12336 1.04297 9.99675 1.04297Z" fill="#FBBF24"/>
</svg>
